<?xml version="1.0" standalone="no"?>
<!DOCTYPE svg PUBLIC "-//W3C//DTD SVG 1.1//EN" "http://www.w3.org/Graphics/SVG/1.1/DTD/svg11.dtd">
<svg version="1.1" xmlns="http://www.w3.org/2000/svg" viewBox="0 0 227.18881718686157 169.71350745154314" width="681.5664515605847" height="509.1405223546294"><!-- svg-source:excalidraw --><metadata></metadata><defs><style class="style-fonts">
      </style></defs><g stroke-linecap="round" transform="translate(47.90131897709398 10) rotate(0 84.6437491048838 62.94629158396697)"><path d="M31.47 0 C60.04 -2.32, 96.38 -1.84, 137.81 0 C156.88 -2.46, 171.83 7.86, 169.29 31.47 C171.73 49.43, 166.71 64.44, 169.29 94.42 C167.02 112.43, 160.67 126.8, 137.81 125.89 C114 123.68, 89.78 125.34, 31.47 125.89 C7.18 124.69, -2.23 113.67, 0 94.42 C2.42 77.24, 2.92 60.56, 0 31.47 C1.47 13.5, 10.34 -2.92, 31.47 0" stroke="none" stroke-width="0" fill="#0b0e14"></path><path d="M31.47 0 C52.1 -0.62, 76.68 -0.19, 137.81 0 M31.47 0 C56.18 -1.05, 82.55 -0.31, 137.81 0 M137.81 0 C160.37 1.83, 168.78 8.6, 169.29 31.47 M137.81 0 C161.03 1.11, 168.26 10.77, 169.29 31.47 M169.29 31.47 C171.39 51.43, 170.73 70.67, 169.29 94.42 M169.29 31.47 C169.52 51.88, 168.35 70.81, 169.29 94.42 M169.29 94.42 C167.79 115.84, 156.97 124.6, 137.81 125.89 M169.29 94.42 C170.29 115.47, 158.66 124.73, 137.81 125.89 M137.81 125.89 C103.32 124.33, 70.99 124.54, 31.47 125.89 M137.81 125.89 C103.5 125.32, 69.1 126.33, 31.47 125.89 M31.47 125.89 C8.51 127.62, 0.41 115.74, 0 94.42 M31.47 125.89 C8.23 123.71, 0.89 116.13, 0 94.42 M0 94.42 C-0.52 79.73, -0.19 63.67, 0 31.47 M0 94.42 C0.47 69.05, 0.61 45.48, 0 31.47 M0 31.47 C0.04 9.7, 9.86 1.04, 31.47 0 M0 31.47 C0.38 11.78, 9.26 -1.47, 31.47 0" stroke="#ffffff" stroke-width="1" fill="none"></path></g><g stroke-linecap="round" transform="translate(42.02755607427298 16.834270416215986) rotate(0 14.918280864788244 14.207658774402944)"><path d="M0 0 L29.84 0 L29.84 28.42 L0 28.42" stroke="none" stroke-width="0" fill="#0b0e14"></path><path d="M0 0 C9.93 0, 19.86 0, 29.84 0 M0 0 C9.41 0, 18.83 0, 29.84 0 M29.84 0 C29.84 7.8, 29.84 15.61, 29.84 28.42 M29.84 0 C29.84 10.96, 29.84 21.92, 29.84 28.42 M29.84 28.42 C22.77 28.42, 15.7 28.42, 0 28.42 M29.84 28.42 C20.23 28.42, 10.62 28.42, 0 28.42 M0 28.42 C0 19.43, 0 10.45, 0 0 M0 28.42 C0 19.25, 0 10.08, 0 0" stroke="transparent" stroke-width="2" fill="none"></path></g><g stroke-linecap="round" transform="translate(173.7584427889551 108.90697816363445) rotate(0 14.918280864788244 14.207658774402944)"><path d="M0 0 L29.84 0 L29.84 28.42 L0 28.42" stroke="none" stroke-width="0" fill="#0b0e14"></path><path d="M0 0 C8.55 0, 17.09 0, 29.84 0 M0 0 C6.3 0, 12.6 0, 29.84 0 M29.84 0 C29.84 11.29, 29.84 22.58, 29.84 28.42 M29.84 0 C29.84 10.75, 29.84 21.5, 29.84 28.42 M29.84 28.42 C19.01 28.42, 8.19 28.42, 0 28.42 M29.84 28.42 C22.81 28.42, 15.79 28.42, 0 28.42 M0 28.42 C0 18.98, 0 9.55, 0 0 M0 28.42 C0 20.15, 0 11.88, 0 0" stroke="transparent" stroke-width="2" fill="none"></path></g><g stroke-linecap="round" transform="translate(10 33.8209242836092) rotate(0 84.6437491048838 62.94629158396697)"><path d="M31.47 0 C56.78 -1.32, 75.89 0.07, 137.81 0 C161.59 2.83, 170.32 8.31, 169.29 31.47 C170.45 49.72, 166.13 64.89, 169.29 94.42 C168.04 116.27, 157.24 127.22, 137.81 125.89 C103.35 123.52, 71.53 124.5, 31.47 125.89 C10.84 128.07, -1.49 118.08, 0 94.42 C-0.62 76.95, 1.94 65.68, 0 31.47 C-1.88 7.86, 9.58 -1.43, 31.47 0" stroke="none" stroke-width="0" fill="#0b0e14"></path><path d="M31.47 0 C64.54 -1.56, 95.2 0.02, 137.81 0 M31.47 0 C61.53 -1.92, 93.07 -0.49, 137.81 0 M137.81 0 C157.9 0.25, 169.77 12.21, 169.29 31.47 M137.81 0 C159.27 1.8, 168.77 11.53, 169.29 31.47 M169.29 31.47 C167.5 46.52, 170.7 57.97, 169.29 94.42 M169.29 31.47 C167.9 48.76, 169.25 67.36, 169.29 94.42 M169.29 94.42 C169.17 114.39, 159.12 127.3, 137.81 125.89 M169.29 94.42 C170.02 114.4, 156.61 126.38, 137.81 125.89 M137.81 125.89 C114.76 126.23, 91.1 126.04, 31.47 125.89 M137.81 125.89 C100.49 126.98, 61.78 125.86, 31.47 125.89 M31.47 125.89 C11.27 126.52, -1.13 115.89, 0 94.42 M31.47 125.89 C10.91 125.47, 0.74 115.36, 0 94.42 M0 94.42 C-2.2 77.2, -2.23 58.87, 0 31.47 M0 94.42 C-0.33 75.16, 0.15 55.42, 0 31.47 M0 31.47 C-1.07 9.21, 10.49 -0.47, 31.47 0 M0 31.47 C-1.5 8.37, 8.21 0.74, 31.47 0" stroke="#ffffff" stroke-width="1" fill="none"></path></g><g stroke-linecap="round" transform="translate(18.938111991393725 52.03640712352899) rotate(0 65.5162897191019 50.170909081586615)"><path d="M6.02 6.56 C6.02 6.56, 6.02 6.56, 6.02 6.56 M6.02 6.56 C6.02 6.56, 6.02 6.56, 6.02 6.56 M1.17 18.24 C4.18 14.55, 8.93 7.57, 15.6 1.64 M1.17 18.24 C4.61 13.67, 9.06 10.06, 15.6 1.64 M0.91 24.64 C6.97 20.21, 11.5 10.67, 21.9 0.49 M0.91 24.64 C7.85 15.64, 15.88 7.02, 21.9 0.49 M1.3 30.28 C11.57 17.99, 20.78 7.85, 26.89 0.85 M1.3 30.28 C8.72 21.37, 16.02 12.96, 26.89 0.85 M1.04 36.68 C12.95 24.88, 26.3 8.68, 32.53 0.45 M1.04 36.68 C12.43 23.46, 25.03 9.35, 32.53 0.45 M1.43 42.32 C10.42 30.5, 22.65 18.73, 37.52 0.81 M1.43 42.32 C12.58 27.96, 25.74 15.01, 37.52 0.81 M1.17 48.72 C14.04 36.49, 25.77 23.65, 43.16 0.42 M1.17 48.72 C14.02 32.34, 28.37 17.83, 43.16 0.42 M0.91 55.12 C16.18 35.55, 31.29 19.37, 48.15 0.78 M0.91 55.12 C13.93 39.39, 28.82 22.77, 48.15 0.78 M1.31 60.76 C15.05 45.17, 30.18 30.89, 53.79 0.38 M1.31 60.76 C20.27 39.45, 39.13 18.16, 53.79 0.38 M1.04 67.16 C12.79 51.34, 30.32 35.86, 58.78 0.74 M1.04 67.16 C22.62 40.37, 46.37 15.55, 58.78 0.74 M0.78 73.56 C26.93 44, 50.27 16.88, 64.42 0.35 M0.78 73.56 C18.66 52.18, 37.24 31.73, 64.42 0.35 M1.18 79.2 C22.16 56.2, 44.94 30.72, 69.41 0.71 M1.18 79.2 C15.75 62.05, 31.97 44.25, 69.41 0.71 M1.57 84.84 C29.78 51.22, 59.26 18.71, 75.05 0.31 M1.57 84.84 C30.36 53.32, 59.16 20.67, 75.05 0.31 M3.28 88.98 C21.38 70.17, 35.59 50.1, 80.04 0.67 M3.28 88.98 C25.63 62.67, 48.1 37.33, 80.04 0.67 M5.64 92.35 C24.36 73.98, 41.76 51.27, 85.68 0.28 M5.64 92.35 C34.8 58.96, 63.42 25.82, 85.68 0.28 M8 95.73 C33.62 65.58, 59.33 38.28, 90.67 0.64 M8 95.73 C39.43 60.06, 69.13 26.66, 90.67 0.64 M11.68 97.6 C36.68 66.81, 66.14 35.33, 96.31 0.25 M11.68 97.6 C29.57 77.11, 46.82 57.34, 96.31 0.25 M15.35 99.47 C44.12 70.27, 70.46 39.29, 101.3 0.61 M15.35 99.47 C35.56 74.83, 57.33 50.37, 101.3 0.61 M20.34 99.83 C45.47 74.06, 68.48 44.86, 106.94 0.21 M20.34 99.83 C53.64 60.21, 88.56 20.71, 106.94 0.21 M25.33 100.19 C52.46 69.5, 78.75 41.58, 111.27 1.33 M25.33 100.19 C47.09 75.8, 67.11 53.4, 111.27 1.33 M30.31 100.55 C64.95 61.88, 100.87 21.98, 116.26 1.69 M30.31 100.55 C47.17 79.59, 66.23 57.55, 116.26 1.69 M35.96 100.16 C58.96 75.16, 78.92 52.66, 119.93 3.56 M35.96 100.16 C59.98 74.47, 82.28 47.01, 119.93 3.56 M40.94 100.52 C71.81 65.36, 101.18 31.02, 123.61 5.43 M40.94 100.52 C61.14 76.28, 82.48 50.75, 123.61 5.43 M46.59 100.12 C72.72 71.87, 93.27 44.33, 125.97 8.8 M46.59 100.12 C77.29 65.35, 105.65 32.95, 125.97 8.8 M51.57 100.48 C81.97 68.32, 108.85 31.67, 128.33 12.18 M51.57 100.48 C79.88 68.82, 106.68 37.06, 128.33 12.18 M57.22 100.09 C80.26 70.88, 103.68 44.12, 130.04 16.32 M57.22 100.09 C86.37 67.44, 113.82 33.59, 130.04 16.32 M62.2 100.45 C87.87 69.21, 113.88 39.58, 131.09 21.2 M62.2 100.45 C77.27 82.16, 94.44 63.96, 131.09 21.2 M67.85 100.05 C88.33 76.35, 107.97 51.02, 131.49 26.85 M67.85 100.05 C87.38 79.68, 105.54 58.73, 131.49 26.85 M72.84 100.41 C83.95 83.18, 98.04 69.59, 131.22 33.25 M72.84 100.41 C85.06 85.25, 99.16 71.62, 131.22 33.25 M78.48 100.02 C89.82 86.54, 103.48 69.12, 131.62 38.89 M78.48 100.02 C90.45 86.37, 101.92 70.43, 131.62 38.89 M83.47 100.38 C99.25 79.22, 118.07 61.21, 131.36 45.29 M83.47 100.38 C102.36 79.99, 119.95 59.17, 131.36 45.29 M88.45 100.74 C103.88 83.99, 118.69 63.4, 131.1 51.68 M88.45 100.74 C101.93 85.19, 114.27 72.22, 131.1 51.68 M94.1 100.35 C103.24 86.82, 116.52 76.66, 131.49 57.33 M94.1 100.35 C108.44 83.72, 121.43 68.11, 131.49 57.33 M99.08 100.71 C109.16 87.87, 120.01 78.05, 131.23 63.73 M99.08 100.71 C104.56 94.31, 112.49 86.04, 131.23 63.73 M104.73 100.31 C111.78 89.1, 120.8 79.51, 130.97 70.12 M104.73 100.31 C114.17 90.4, 122.99 77.56, 130.97 70.12 M110.37 99.92 C115.33 93.24, 120.32 89.62, 131.36 75.77 M110.37 99.92 C117.81 91.94, 125.01 84.14, 131.36 75.77 M116.67 98.77 C119.9 94.47, 125.88 89.19, 130.44 82.92 M116.67 98.77 C121.87 93.54, 126.79 86.15, 130.44 82.92 M5.93 93.78 C5.93 93.78, 5.93 93.78, 5.93 93.78 M5.93 93.78 C5.93 93.78, 5.93 93.78, 5.93 93.78 M18.37 99.29 C12.78 96.74, 7.08 89.75, 1.01 84.2 M18.37 99.29 C14.59 95.29, 8.82 92.28, 1.01 84.2 M25.52 100.2 C15.06 92.62, 7.83 85.17, 0.62 78.55 M25.52 100.2 C16.54 93.1, 9.21 85.48, 0.62 78.55 M31.16 99.81 C23.18 91.39, 14.07 82.95, 0.22 72.91 M31.16 99.81 C18.94 89.91, 6.48 78.92, 0.22 72.91 M37.56 100.07 C28.11 93.4, 18.79 82.85, 0.58 67.92 M37.56 100.07 C24.58 88.89, 10.31 77.26, 0.58 67.92 M43.96 100.33 C28.56 89.5, 12.16 75.68, 0.19 62.28 M43.96 100.33 C32.75 91.86, 22.92 82.21, 0.19 62.28 M49.6 99.94 C33.69 85.78, 16.31 70.09, 0.55 57.29 M49.6 99.94 C37.69 91.63, 28.65 81.61, 0.55 57.29 M56 100.2 C42.09 90.2, 30.64 76.27, 0.15 51.65 M56 100.2 C38.46 85.39, 22.56 71.2, 0.15 51.65 M61.64 99.8 C46.88 85.16, 31.06 74.02, 0.51 46.66 M61.64 99.8 C44.41 85.54, 29.89 72.58, 0.51 46.66 M68.04 100.07 C48.57 83.23, 27.28 64.62, 0.12 41.02 M68.04 100.07 C53.67 87.49, 38.74 75.12, 0.12 41.02 M74.44 100.33 C51.13 80.29, 32.92 63.34, 0.48 36.03 M74.44 100.33 C58.41 86.68, 43.29 74.58, 0.48 36.03 M80.08 99.93 C46.96 71.57, 15.32 43.87, 0.08 30.39 M80.08 99.93 C52.82 75.67, 24.43 51.84, 0.08 30.39 M86.48 100.19 C55.86 71.61, 20.74 41.94, 0.44 25.4 M86.48 100.19 C62.49 78.94, 37.99 58.66, 0.44 25.4 M92.12 99.8 C56.36 70.05, 18.68 39.24, 0.8 20.42 M92.12 99.8 C71.11 81.25, 50.82 62.49, 0.8 20.42 M98.52 100.06 C75.32 81.47, 53.95 60.72, 1.16 15.43 M98.52 100.06 C71.51 76.91, 42.36 51.41, 1.16 15.43 M104.92 100.32 C76.71 76.26, 48.07 52.88, 3.03 11.75 M104.92 100.32 C76.09 72.96, 45.3 47.14, 3.03 11.75 M109.81 99.27 C86.34 79.48, 63.37 58.46, 4.9 8.08 M109.81 99.27 C76.24 67.48, 41.11 37.48, 4.9 8.08 M115.45 98.88 C89.66 76.59, 60.7 52.14, 7.53 5.06 M115.45 98.88 C77.51 66.13, 39.9 33.54, 7.53 5.06 M119.58 97.17 C97.37 77.65, 69.67 56.46, 10.91 2.7 M119.58 97.17 C90.34 71.86, 60.18 45.05, 10.91 2.7 M122.96 94.81 C79.03 55.95, 37.63 23.24, 15.79 1.65 M122.96 94.81 C91.39 66.56, 59.71 37.89, 15.79 1.65 M126.34 92.44 C91.88 59.87, 52.43 31, 20.68 0.6 M126.34 92.44 C93.66 62.62, 60.99 33.44, 20.68 0.6 M128.21 88.77 C102.28 64.89, 75.75 40.69, 25.57 -0.45 M128.21 88.77 C105.77 70.65, 81.83 49.33, 25.57 -0.45 M130.08 85.09 C95.28 56.32, 60.69 23.5, 31.97 -0.19 M130.08 85.09 C92.92 52.6, 54.76 21.61, 31.97 -0.19 M131.2 80.76 C108.01 59.67, 83.68 37.21, 37.61 -0.59 M131.2 80.76 C103.48 54.3, 74.24 30.17, 37.61 -0.59 M130.8 75.12 C104.46 51.15, 77.07 27.37, 44.01 -0.33 M130.8 75.12 C101.4 49.35, 72.37 23.77, 44.01 -0.33 M131.16 70.13 C107.12 53.28, 85.51 31.96, 49.65 -0.72 M131.16 70.13 C105.71 49.67, 81.57 27.19, 49.65 -0.72 M131.52 65.15 C107.44 45.93, 86.01 28.78, 56.05 -0.46 M131.52 65.15 C116.9 52.28, 101.54 38.54, 56.05 -0.46 M131.13 59.5 C116.5 48.15, 101.87 33.32, 62.45 -0.2 M131.13 59.5 C111.28 43.11, 92.7 26.62, 62.45 -0.2 M131.49 54.52 C114.79 40.72, 97.46 21.46, 68.09 -0.59 M131.49 54.52 C111.74 38.7, 92.55 21.11, 68.09 -0.59 M131.09 48.87 C112.23 34.11, 98.7 21.52, 74.49 -0.33 M131.09 48.87 C116.76 35.98, 103.53 24.02, 74.49 -0.33 M131.45 43.89 C115.46 29.46, 98.46 16.38, 80.13 -0.73 M131.45 43.89 C113.91 29.19, 97.57 13.61, 80.13 -0.73 M131.06 38.24 C115.63 22.9, 100.27 8.55, 86.53 -0.46 M131.06 38.24 C114.18 24.85, 98.61 9.97, 86.53 -0.46 M131.42 33.26 C121.01 24.42, 113.79 17.05, 92.93 -0.2 M131.42 33.26 C118.46 22.36, 105.69 11.73, 92.93 -0.2 M131.78 28.27 C118.43 16.37, 107.99 8.38, 98.57 -0.6 M131.78 28.27 C121.72 19.43, 110.44 11.15, 98.57 -0.6 M130.63 21.97 C123.8 16.87, 116.28 10.9, 104.97 -0.34 M130.63 21.97 C125.33 18.11, 120.89 12.16, 104.97 -0.34 M129.48 15.67 C125.94 10.76, 121.52 10.55, 112.12 0.58 M129.48 15.67 C124.23 10.78, 118.1 6.66, 112.12 0.58" stroke="#153472" stroke-width="0.5" fill="none"></path><path d="M25.09 0 C46.19 0.54, 70.55 2.28, 105.95 0 M25.09 0 C57.71 1.25, 87.95 0.89, 105.95 0 M105.95 0 C123.16 1.72, 131.44 9.93, 131.03 25.09 M105.95 0 C122.15 1.04, 129.17 8.68, 131.03 25.09 M131.03 25.09 C131.89 35.88, 130.26 47.36, 131.03 75.26 M131.03 25.09 C131.01 41.28, 130.52 56.9, 131.03 75.26 M131.03 75.26 C131.36 93.38, 123.31 99.47, 105.95 100.34 M131.03 75.26 C128.85 92.46, 120.72 100.86, 105.95 100.34 M105.95 100.34 C77.99 100.12, 53.01 98.35, 25.09 100.34 M105.95 100.34 C73.71 99.53, 43.83 100.8, 25.09 100.34 M25.09 100.34 C7.23 100.83, 0.37 91.61, 0 75.26 M25.09 100.34 C9.1 100.3, -0.1 94.05, 0 75.26 M0 75.26 C-1.25 60.1, 0.69 41.65, 0 25.09 M0 75.26 C0.32 62.74, -0.38 48.47, 0 25.09 M0 25.09 C0 7.89, 7.06 -1.84, 25.09 0 M0 25.09 C-2.28 9.1, 6.39 -1.23, 25.09 0" stroke="#ffffff" stroke-width="1" fill="none"></path></g><g stroke-linecap="round" transform="translate(33.98666854066505 69.34394603662804) rotate(0 9.565944255170052 34.26215929179011)"><path d="M4.78 0 C8.29 1.41, 9.62 -0.99, 14.35 0 C16.66 -2.27, 16.16 3.47, 19.13 4.78 C17.16 24.82, 16.86 44.45, 19.13 63.74 C19.24 63.61, 16.34 66.29, 14.35 68.52 C12.11 69.53, 8.82 69.77, 4.78 68.52 C-0.89 69.99, 3.01 66.77, 0 63.74 C-2.58 48.21, -1.62 36.51, 0 4.78 C-0.04 3.28, 3.89 3.42, 4.78 0" stroke="none" stroke-width="0" fill="#12b886"></path><path d="M4.78 0 C6.68 0.76, 9.74 -0.23, 14.35 0 M4.78 0 C6.54 0.01, 8.83 0.36, 14.35 0 M14.35 0 C17.95 1.56, 18.68 2.5, 19.13 4.78 M14.35 0 C15.68 0.32, 17.68 -0.56, 19.13 4.78 M19.13 4.78 C19.22 24.68, 19.97 45.73, 19.13 63.74 M19.13 4.78 C19.33 18.16, 19.55 33.25, 19.13 63.74 M19.13 63.74 C19.77 66.06, 15.64 68.95, 14.35 68.52 M19.13 63.74 C17.18 67.45, 18.32 68.32, 14.35 68.52 M14.35 68.52 C12 67.57, 9.46 68.71, 4.78 68.52 M14.35 68.52 C11.5 68.58, 8.01 68.55, 4.78 68.52 M4.78 68.52 C1.96 68.15, 0.64 66.89, 0 63.74 M4.78 68.52 C1.49 70.59, 0.81 65.05, 0 63.74 M0 63.74 C0.77 41.99, -0.3 19.53, 0 4.78 M0 63.74 C-0.63 42.34, -0.1 21.99, 0 4.78 M0 4.78 C-1.3 -0.25, -0.39 0.64, 4.78 0 M0 4.78 C-1.98 0.37, 0.02 1.62, 4.78 0" stroke="#ffffff" stroke-width="2" fill="none"></path></g><g stroke-linecap="round" transform="translate(61.002582140296 70.44051817288982) rotate(0 9.565944255170052 34.26215929179011)"><path d="M4.78 0 C7.82 -1.18, 9.44 -1.22, 14.35 0 C14.57 1.88, 20.04 -0.85, 19.13 4.78 C17.21 21.72, 18.88 32.69, 19.13 63.74 C17.93 64.7, 15.8 66.7, 14.35 68.52 C10.97 69.91, 7.82 69.33, 4.78 68.52 C4.61 68.37, -2.92 69.33, 0 63.74 C-0.36 44.04, 0.51 28.88, 0 4.78 C2.29 5.01, 4.44 -3.31, 4.78 0" stroke="none" stroke-width="0" fill="#12b886"></path><path d="M4.78 0 C8.45 -0.32, 9.46 0.86, 14.35 0 M4.78 0 C8.23 0.4, 11.55 0.36, 14.35 0 M14.35 0 C17.08 0.91, 17.51 1.87, 19.13 4.78 M14.35 0 C16.08 -2.16, 20.57 3.12, 19.13 4.78 M19.13 4.78 C19.48 17.43, 17.75 34.61, 19.13 63.74 M19.13 4.78 C19.26 23.36, 19.42 40.1, 19.13 63.74 M19.13 63.74 C17.23 67.35, 15.84 68.98, 14.35 68.52 M19.13 63.74 C19.91 66.72, 17.51 67.42, 14.35 68.52 M14.35 68.52 C12.41 68.63, 8.98 67.49, 4.78 68.52 M14.35 68.52 C12.12 68.67, 10.51 68.47, 4.78 68.52 M4.78 68.52 C2.24 68.49, -0.09 68.73, 0 63.74 M4.78 68.52 C2.41 66.65, 1.6 65.02, 0 63.74 M0 63.74 C-0.87 40.52, 0.96 18.9, 0 4.78 M0 63.74 C0.31 42.51, -0.34 20.82, 0 4.78 M0 4.78 C-1.98 2.24, -0.12 -1.07, 4.78 0 M0 4.78 C-1.57 3.22, -0.09 -0.72, 4.78 0" stroke="#ffffff" stroke-width="2" fill="none"></path></g><g stroke-linecap="round" transform="translate(86.87216619592391 70.46399782825847) rotate(0 9.565944255170052 34.26215929179011)"><path d="M4.78 0 C7.98 -0.98, 10.61 1, 14.35 0 C18.44 -2.45, 17.86 0.35, 19.13 4.78 C18.79 20.58, 17.47 40.78, 19.13 63.74 C17.4 65.1, 16.79 68.87, 14.35 68.52 C9.71 69.36, 8.89 68.58, 4.78 68.52 C-1.33 70.93, 0.36 65.05, 0 63.74 C0.23 52.06, 2.56 40.41, 0 4.78 C2.84 -1.71, 5.03 -3.18, 4.78 0" stroke="none" stroke-width="0" fill="#12b886"></path><path d="M4.78 0 C7.5 0.95, 12.49 -0.4, 14.35 0 M4.78 0 C7.87 0.29, 10.65 0.13, 14.35 0 M14.35 0 C15.92 0.27, 17.87 -0.28, 19.13 4.78 M14.35 0 C18.98 1.53, 17.88 1.25, 19.13 4.78 M19.13 4.78 C17.97 18.94, 19.33 31.24, 19.13 63.74 M19.13 4.78 C19.55 19.07, 18.28 34.43, 19.13 63.74 M19.13 63.74 C17.43 67.38, 18.21 68.34, 14.35 68.52 M19.13 63.74 C19.11 65.83, 17.29 69.74, 14.35 68.52 M14.35 68.52 C12.59 67.6, 9.6 68.92, 4.78 68.52 M14.35 68.52 C11.27 68.46, 8.16 68.54, 4.78 68.52 M4.78 68.52 C1.51 70.32, 0.71 65.3, 0 63.74 M4.78 68.52 C3.2 66.61, 1.91 67.26, 0 63.74 M0 63.74 C1.27 46.27, 1.36 27.07, 0 4.78 M0 63.74 C-0.65 48.9, -0.99 36.21, 0 4.78 M0 4.78 C-1.72 0.53, 0.23 1.41, 4.78 0 M0 4.78 C-1.68 0.88, 0.8 1.78, 4.78 0" stroke="#ffffff" stroke-width="2" fill="none"></path></g><g stroke-linecap="round" transform="translate(113.7224179899631 71.07178629543023) rotate(0 9.565944255170052 34.26215929179011)"><path d="M4.78 0 C5.65 1.01, 9.79 -1.06, 14.35 0 C16.27 -1.25, 20 0.04, 19.13 4.78 C17.96 22.42, 17.43 42.69, 19.13 63.74 C18.38 67.28, 19.72 67.03, 14.35 68.52 C12.21 68.52, 5.79 69.74, 4.78 68.52 C1.95 66.65, -2.63 66.02, 0 63.74 C2.31 51.81, 2.85 29.75, 0 4.78 C3.44 -1.58, 0.9 2.77, 4.78 0" stroke="none" stroke-width="0" fill="#12b886"></path><path d="M4.78 0 C7.87 -0.52, 10.16 0.14, 14.35 0 M4.78 0 C8.36 0.14, 11.78 -0.01, 14.35 0 M14.35 0 C16.27 -1.88, 20.39 2.92, 19.13 4.78 M14.35 0 C16.28 -0.35, 17.41 2.1, 19.13 4.78 M19.13 4.78 C18.82 16.97, 17.74 29.71, 19.13 63.74 M19.13 4.78 C18.37 26.82, 18.47 48.66, 19.13 63.74 M19.13 63.74 C19.81 66.75, 17.51 67.57, 14.35 68.52 M19.13 63.74 C18.89 68.15, 15.26 70.51, 14.35 68.52 M14.35 68.52 C10.37 68.8, 8.52 67.89, 4.78 68.52 M14.35 68.52 C11.4 68.5, 8.13 68.94, 4.78 68.52 M4.78 68.52 C2.3 66.89, 1.39 65.27, 0 63.74 M4.78 68.52 C3.51 68.85, 0.04 66.02, 0 63.74 M0 63.74 C0.82 46.85, -1.58 32.09, 0 4.78 M0 63.74 C-0.61 47.76, -0.47 30.6, 0 4.78 M0 4.78 C-1.37 3.01, 0.13 -0.62, 4.78 0 M0 4.78 C-0.79 3.38, 3.4 0.66, 4.78 0" stroke="#ffffff" stroke-width="2" fill="none"></path></g><g stroke-linecap="round"><g transform="translate(21.09238561758775 38.609828274463325) rotate(0 19.452249645453776 -12.212859106534552)"><path d="M0 0 C6.48 -4.07, 32.42 -20.35, 38.9 -24.43 M0 0 C6.48 -4.07, 32.42 -20.35, 38.9 -24.43" stroke="#ffffff" stroke-width="2" fill="none"></path></g></g><mask></mask><g stroke-linecap="round"><g transform="translate(171.88438226045173 151.37352385403847) rotate(0 18.6350714298635 -11.066173545948459)"><path d="M0 0 C6.21 -3.69, 31.06 -18.44, 37.27 -22.13 M0 0 C6.21 -3.69, 31.06 -18.44, 37.27 -22.13" stroke="#ffffff" stroke-width="2" fill="none"></path></g></g><mask></mask><g stroke-linecap="round" transform="translate(154.9352278653687 135.90241658748982) rotate(0 5.621806807128451 2.784895632316875)"><path d="M0 0 C3.65 0, 7.29 0, 11.24 0 M0 0 C3.53 0, 7.05 0, 11.24 0 M11.24 0 C11.24 1.26, 11.24 2.51, 11.24 5.57 M11.24 0 C11.24 1.39, 11.24 2.78, 11.24 5.57 M11.24 5.57 C8.82 5.57, 6.41 5.57, 0 5.57 M11.24 5.57 C7.28 5.57, 3.31 5.57, 0 5.57 M0 5.57 C0 3.68, 0 1.8, 0 0 M0 5.57 C0 3.91, 0 2.25, 0 0" stroke="#ffffff" stroke-width="1" fill="none"></path></g><g stroke-linecap="round" transform="translate(154.9542176665973 127.85321779725837) rotate(0 5.621806807128451 2.784895632316875)"><path d="M0 0 C3.6 0, 7.21 0, 11.24 0 M0 0 C2.32 0, 4.64 0, 11.24 0 M11.24 0 C11.24 1.16, 11.24 2.32, 11.24 5.57 M11.24 0 C11.24 2.06, 11.24 4.12, 11.24 5.57 M11.24 5.57 C7.49 5.57, 3.74 5.57, 0 5.57 M11.24 5.57 C6.9 5.57, 2.55 5.57, 0 5.57 M0 5.57 C0 4.21, 0 2.86, 0 0 M0 5.57 C0 3.4, 0 1.23, 0 0" stroke="#ffffff" stroke-width="1" fill="none"></path></g><g stroke-linecap="round" transform="translate(155.9457571499097 109.95384737619952) rotate(0 4.080665976570799 4.080665976570799)"><path d="M8.16 4.08 C8.16 4.32, 8.14 4.56, 8.1 4.79 C8.06 5.02, 8 5.25, 7.92 5.48 C7.83 5.7, 7.73 5.92, 7.61 6.12 C7.5 6.33, 7.36 6.52, 7.21 6.7 C7.05 6.88, 6.88 7.05, 6.7 7.21 C6.52 7.36, 6.33 7.5, 6.12 7.61 C5.92 7.73, 5.7 7.83, 5.48 7.92 C5.25 8, 5.02 8.06, 4.79 8.1 C4.56 8.14, 4.32 8.16, 4.08 8.16 C3.84 8.16, 3.6 8.14, 3.37 8.1 C3.14 8.06, 2.91 8, 2.68 7.92 C2.46 7.83, 2.24 7.73, 2.04 7.61 C1.84 7.5, 1.64 7.36, 1.46 7.21 C1.28 7.05, 1.11 6.88, 0.95 6.7 C0.8 6.52, 0.66 6.33, 0.55 6.12 C0.43 5.92, 0.33 5.7, 0.25 5.48 C0.17 5.25, 0.1 5.02, 0.06 4.79 C0.02 4.56, 0 4.32, 0 4.08 C0 3.84, 0.02 3.6, 0.06 3.37 C0.1 3.14, 0.17 2.91, 0.25 2.68 C0.33 2.46, 0.43 2.24, 0.55 2.04 C0.66 1.84, 0.8 1.64, 0.95 1.46 C1.11 1.28, 1.28 1.11, 1.46 0.95 C1.64 0.8, 1.84 0.66, 2.04 0.55 C2.24 0.43, 2.46 0.33, 2.68 0.25 C2.91 0.17, 3.14 0.1, 3.37 0.06 C3.6 0.02, 3.84 0, 4.08 0 C4.32 0, 4.56 0.02, 4.79 0.06 C5.02 0.1, 5.25 0.17, 5.48 0.25 C5.7 0.33, 5.92 0.43, 6.12 0.55 C6.33 0.66, 6.52 0.8, 6.7 0.95 C6.88 1.11, 7.05 1.28, 7.21 1.46 C7.36 1.64, 7.5 1.84, 7.61 2.04 C7.73 2.24, 7.83 2.46, 7.92 2.68 C8 2.91, 8.06 3.14, 8.1 3.37 C8.14 3.6, 8.15 3.96, 8.16 4.08 C8.17 4.2, 8.17 3.96, 8.16 4.08" stroke="none" stroke-width="0" fill="#4dabf7"></path><path d="M8.16 4.08 C8.16 4.32, 8.14 4.56, 8.1 4.79 C8.06 5.02, 8 5.25, 7.92 5.48 C7.83 5.7, 7.73 5.92, 7.61 6.12 C7.5 6.33, 7.36 6.52, 7.21 6.7 C7.05 6.88, 6.88 7.05, 6.7 7.21 C6.52 7.36, 6.33 7.5, 6.12 7.61 C5.92 7.73, 5.7 7.83, 5.48 7.92 C5.25 8, 5.02 8.06, 4.79 8.1 C4.56 8.14, 4.32 8.16, 4.08 8.16 C3.84 8.16, 3.6 8.14, 3.37 8.1 C3.14 8.06, 2.91 8, 2.68 7.92 C2.46 7.83, 2.24 7.73, 2.04 7.61 C1.84 7.5, 1.64 7.36, 1.46 7.21 C1.28 7.05, 1.11 6.88, 0.95 6.7 C0.8 6.52, 0.66 6.33, 0.55 6.12 C0.43 5.92, 0.33 5.7, 0.25 5.48 C0.17 5.25, 0.1 5.02, 0.06 4.79 C0.02 4.56, 0 4.32, 0 4.08 C0 3.84, 0.02 3.6, 0.06 3.37 C0.1 3.14, 0.17 2.91, 0.25 2.68 C0.33 2.46, 0.43 2.24, 0.55 2.04 C0.66 1.84, 0.8 1.64, 0.95 1.46 C1.11 1.28, 1.28 1.11, 1.46 0.95 C1.64 0.8, 1.84 0.66, 2.04 0.55 C2.24 0.43, 2.46 0.33, 2.68 0.25 C2.91 0.17, 3.14 0.1, 3.37 0.06 C3.6 0.02, 3.84 0, 4.08 0 C4.32 0, 4.56 0.02, 4.79 0.06 C5.02 0.1, 5.25 0.17, 5.48 0.25 C5.7 0.33, 5.92 0.43, 6.12 0.55 C6.33 0.66, 6.52 0.8, 6.7 0.95 C6.88 1.11, 7.05 1.28, 7.21 1.46 C7.36 1.64, 7.5 1.84, 7.61 2.04 C7.73 2.24, 7.83 2.46, 7.92 2.68 C8 2.91, 8.06 3.14, 8.1 3.37 C8.14 3.6, 8.15 3.96, 8.16 4.08 C8.17 4.2, 8.17 3.96, 8.16 4.08" stroke="#ffffff" stroke-width="1" fill="none"></path></g></svg>