<?xml version="1.0" standalone="no"?>
<!DOCTYPE svg PUBLIC "-//W3C//DTD SVG 1.1//EN" "http://www.w3.org/Graphics/SVG/1.1/DTD/svg11.dtd">
<svg version="1.1" xmlns="http://www.w3.org/2000/svg" viewBox="0 0 1077.4963249054108 465.37016804195855" width="3232.4889747162324" height="1396.1105041258757"><!-- svg-source:excalidraw --><metadata></metadata><defs><style class="style-fonts">
      </style></defs><g stroke-linecap="round" transform="translate(112.99889770152504 123.43627503099424) rotate(0 111.8604356697656 117.98982265491213)"><path d="M32.37 33.44 C32.37 33.44, 32.37 33.44, 32.37 33.44 M32.37 33.44 C32.37 33.44, 32.37 33.44, 32.37 33.44 M18.33 55.69 C27.95 42.39, 38.89 29.11, 46.54 23.23 M18.33 55.69 C27.12 45.07, 34.92 36.79, 46.54 23.23 M11.51 69.63 C28.43 49.5, 45.34 32.06, 60.06 13.78 M11.51 69.63 C24.96 55.16, 36.95 41.28, 60.06 13.78 M8.62 79.05 C27.07 57.94, 49.58 33.48, 68.98 9.61 M8.62 79.05 C29.91 55.08, 51.97 30.45, 68.98 9.61 M6.4 87.71 C24.03 65.69, 41.11 49.33, 75.94 7.71 M6.4 87.71 C27.53 62.15, 48.47 37.63, 75.94 7.71 M4.17 96.37 C35.29 61.72, 64.51 26.95, 82.89 5.81 M4.17 96.37 C21.41 77.41, 38.23 56.04, 82.89 5.81 M1.94 105.03 C33.26 67.78, 64.94 32.35, 89.85 3.9 M1.94 105.03 C27.39 75.59, 55.32 45.63, 89.85 3.9 M1.02 112.19 C27.11 80.2, 54.88 49.48, 96.8 2 M1.02 112.19 C28.82 80.59, 59.5 46.89, 96.8 2 M1.41 117.83 C22.79 92.24, 42.38 68.1, 103.76 0.09 M1.41 117.83 C22.32 91.35, 43.94 67.51, 103.76 0.09 M2.46 122.72 C40.49 77.38, 80.11 30.9, 108.09 1.21 M2.46 122.72 C39.74 79.23, 77.41 34.24, 108.09 1.21 M2.86 128.36 C37.91 88.16, 77.1 47.32, 113.08 1.57 M2.86 128.36 C27.66 99.74, 54.29 68.26, 113.08 1.57 M3.25 134 C43.7 84.29, 85.52 36.8, 118.06 1.93 M3.25 134 C32.79 100.69, 61.7 68.97, 118.06 1.93 M3.65 139.65 C50.26 85.32, 94.32 34.94, 123.05 2.29 M3.65 139.65 C38.87 97.96, 75.88 55.69, 123.05 2.29 M4.04 145.29 C29.08 113.5, 56.9 87.35, 128.04 2.65 M4.04 145.29 C52.23 90.52, 101.03 35.08, 128.04 2.65 M5.09 150.18 C58.89 90.7, 109 33.37, 133.02 3.01 M5.09 150.18 C50.24 98.93, 95.72 45, 133.02 3.01 M6.8 154.31 C60.31 92.16, 112.74 33.17, 138.01 3.37 M6.8 154.31 C43.91 110.04, 82.03 66.27, 138.01 3.37 M9.16 157.69 C50.21 106.88, 93.94 59.7, 143 3.73 M9.16 157.69 C47.96 112.77, 85.43 69.66, 143 3.73 M10.87 161.82 C49.73 115.55, 90.8 68.64, 146.67 5.6 M10.87 161.82 C41.77 126.98, 71.19 91.08, 146.67 5.6 M12.58 165.96 C53.73 121.44, 92.19 74.45, 150.35 7.47 M12.58 165.96 C65.5 106.4, 116.18 47.07, 150.35 7.47 M14.28 170.09 C70.62 108.72, 125.72 43.2, 154.02 9.34 M14.28 170.09 C64.41 115.69, 111.61 59.54, 154.02 9.34 M15.99 174.23 C61.94 120.79, 108.27 68.54, 157.7 11.21 M15.99 174.23 C54.26 129.32, 91.55 85.86, 157.7 11.21 M18.35 177.6 C52.56 136.61, 89.64 95.42, 161.37 13.08 M18.35 177.6 C72.63 113.62, 127.82 50.87, 161.37 13.08 M20.06 181.74 C59.25 137.3, 97.25 92.87, 165.05 14.95 M20.06 181.74 C51.78 144.32, 84.43 106.53, 165.05 14.95 M21.77 185.87 C72.25 129.15, 123.46 69.71, 168.72 16.82 M21.77 185.87 C74.6 124.46, 127.63 63.87, 168.72 16.82 M24.78 188.5 C64.02 143.09, 103.5 100.95, 172.4 18.69 M24.78 188.5 C58.86 149.73, 91.23 110.44, 172.4 18.69 M27.15 191.88 C61.6 154.22, 95.82 113.99, 176.07 20.56 M27.15 191.88 C63.03 148.37, 100.91 105.74, 176.07 20.56 M30.17 194.5 C61.97 156.58, 95.11 116.42, 179.09 23.18 M30.17 194.5 C70.2 147.17, 111.38 99.53, 179.09 23.18 M32.53 197.88 C90.32 130.36, 148.5 63.54, 182.11 25.8 M32.53 197.88 C80.25 143.23, 127.27 89.55, 182.11 25.8 M35.55 200.5 C94.51 133.81, 153.08 67.47, 184.47 29.18 M35.55 200.5 C85.47 145.18, 133.36 89.86, 184.47 29.18 M37.91 203.88 C94.21 139.33, 150.61 73.4, 187.49 31.81 M37.91 203.88 C95.44 137.95, 153.95 71.56, 187.49 31.81 M40.27 207.26 C97.45 139.43, 156.1 73.69, 189.85 35.19 M40.27 207.26 C87.73 151.9, 133.99 98.38, 189.85 35.19 M43.29 209.88 C84.09 160.32, 127.23 116.53, 192.87 37.81 M43.29 209.88 C101.9 143.82, 160.49 77.13, 192.87 37.81 M45.65 213.26 C96.15 155.74, 144.65 99.29, 195.24 41.19 M45.65 213.26 C100.82 151.81, 154.35 90.48, 195.24 41.19 M49.33 215.13 C80.78 179.55, 116.08 141.87, 198.25 43.81 M49.33 215.13 C78.92 179.88, 110.72 145.03, 198.25 43.81 M53 217 C103.28 155.14, 159.24 92.69, 200.62 47.19 M53 217 C106.61 156.41, 159.47 94.87, 200.62 47.19 M56.68 218.87 C102.28 167.6, 146.71 116.6, 203.64 49.82 M56.68 218.87 C88.77 184.36, 119.76 147.39, 203.64 49.82 M60.35 220.74 C101.91 170.56, 145.78 124.28, 206 53.2 M60.35 220.74 C111.99 160.46, 165.03 99.95, 206 53.2 M64.03 222.61 C99.59 182.04, 135.86 141.68, 207.71 57.33 M64.03 222.61 C114.03 165.25, 164.61 107.83, 207.71 57.33 M67.7 224.48 C115.44 168, 163.88 111.85, 209.41 61.46 M67.7 224.48 C102.06 184.06, 137.3 144.23, 209.41 61.46 M71.38 226.35 C120.05 169.57, 169.28 112.11, 211.12 65.6 M71.38 226.35 C103.4 188.28, 134.97 150.75, 211.12 65.6 M75.05 228.22 C107.09 187.42, 141.24 150.55, 212.83 69.73 M75.05 228.22 C130.88 164.68, 184.49 102.57, 212.83 69.73 M78.73 230.09 C125.74 179.14, 170.81 123.99, 214.53 73.86 M78.73 230.09 C114.73 188.96, 150.23 148.63, 214.53 73.86 M82.4 231.96 C123.67 185.6, 165.23 139.1, 216.9 77.24 M82.4 231.96 C113.11 195.88, 145.77 159.74, 216.9 77.24 M87.39 232.32 C124.92 188.37, 162.98 145.88, 218.6 81.38 M87.39 232.32 C127.27 184.66, 169.05 137.08, 218.6 81.38 M92.38 232.68 C136.02 180.85, 182.07 131.78, 220.31 85.51 M92.38 232.68 C134.94 185.68, 175.83 138.94, 220.31 85.51 M97.36 233.04 C141.37 187.46, 179.94 136.44, 221.36 90.4 M97.36 233.04 C126.49 197.76, 155.5 164.72, 221.36 90.4 M101.7 234.15 C145.07 183.12, 188.36 130.05, 221.75 96.04 M101.7 234.15 C128.44 202.47, 155.58 171.67, 221.75 96.04 M106.68 234.51 C144.07 191.76, 183.41 143.61, 222.15 101.69 M106.68 234.51 C148.41 186.88, 189.3 138.37, 222.15 101.69 M111.67 234.87 C147.18 193.26, 179.41 157.18, 222.54 107.33 M111.67 234.87 C140.6 202.78, 167.26 171.72, 222.54 107.33 M116 235.99 C143.28 203.8, 168.72 173.77, 222.94 112.97 M116 235.99 C156.74 189.57, 197.02 144.34, 222.94 112.97 M120.99 236.35 C146.66 204.51, 173.42 174.05, 223.33 118.61 M120.99 236.35 C154.29 199.28, 187.28 161.83, 223.33 118.61 M127.94 234.45 C157.49 197.08, 190.01 164.17, 223.73 124.26 M127.94 234.45 C155.58 202.89, 182.29 172.3, 223.73 124.26 M134.9 232.54 C157.89 207.05, 178.13 181.4, 223.47 130.66 M134.9 232.54 C161.02 200.96, 186.57 170.23, 223.47 130.66 M141.85 230.64 C164.13 203.61, 184.7 179.1, 220.58 140.07 M141.85 230.64 C159.75 210.15, 177.03 192.07, 220.58 140.07 M148.81 228.73 C166.96 209.4, 184.47 186.74, 217.69 149.49 M148.81 228.73 C166.9 207.17, 185.42 186.67, 217.69 149.49 M155.11 227.58 C166.95 211.45, 180.58 200.62, 215.46 158.15 M155.11 227.58 C168 211.34, 182.73 194.72, 215.46 158.15 M166.66 220.4 C176.62 207.86, 189.58 196.62, 212.58 167.57 M166.66 220.4 C178.45 207.53, 187.61 195.36, 212.58 167.57 M182.8 207.93 C187.49 203.65, 189.67 200.67, 199.85 188.3 M182.8 207.93 C187.23 201.96, 194.5 195.29, 199.85 188.3" stroke="#1971c2" stroke-width="0.5" fill="none"></path><path d="M102.21 0.35 C114.34 -2.51, 130.12 0.09, 142.59 3.54 C155.06 6.99, 166.71 13.17, 177.03 21.05 C187.35 28.93, 197.21 39.68, 204.5 50.83 C211.79 61.97, 217.55 74.99, 220.78 87.91 C224 100.83, 225.28 114.97, 223.85 128.36 C222.42 141.75, 217.86 156.02, 212.19 168.26 C206.51 180.5, 198.81 192.13, 189.81 201.79 C180.81 211.45, 169.66 220.54, 158.18 226.25 C146.69 231.95, 133.71 235.16, 120.89 236.02 C108.07 236.87, 93.61 235.03, 81.26 231.38 C68.9 227.73, 56.88 222.02, 46.77 214.12 C36.66 206.21, 27.71 195.01, 20.58 183.94 C13.46 172.87, 7.42 160.45, 4.03 147.69 C0.65 134.94, -0.9 120.81, 0.26 107.39 C1.43 93.97, 5.63 79.54, 11.03 67.15 C16.44 54.76, 23.64 42.57, 32.7 33.07 C41.76 23.56, 52.36 15.67, 65.39 10.12 C78.43 4.56, 102 0.92, 110.91 -0.24 C119.83 -1.4, 118.83 1.03, 118.86 3.14 M59.15 14.7 C68.9 6.78, 82.11 2.58, 94.86 0.47 C107.6 -1.64, 122.8 -0.98, 135.63 2.03 C148.47 5.03, 161.14 11.3, 171.86 18.49 C182.58 25.68, 192.07 34.95, 199.96 45.15 C207.85 55.35, 215.23 67.02, 219.18 79.71 C223.14 92.39, 224.04 107.56, 223.68 121.24 C223.33 134.92, 221.82 149.08, 217.03 161.77 C212.24 174.47, 203.55 187.21, 194.95 197.39 C186.36 207.58, 176.58 216.83, 165.47 222.91 C154.36 228.99, 141.11 232.18, 128.28 233.87 C115.46 235.56, 100.91 235.84, 88.52 233.03 C76.13 230.23, 64.6 223.97, 53.93 217.05 C43.26 210.13, 32.71 201.97, 24.49 191.52 C16.28 181.07, 8.89 166.87, 4.63 154.33 C0.38 141.78, -1.39 129.47, -1.04 116.27 C-0.7 103.07, 2.06 87.98, 6.72 75.1 C11.39 62.22, 18.19 48.92, 26.94 38.97 C35.69 29.03, 53.96 19.1, 59.2 15.42 C64.43 11.74, 57.34 15.46, 58.36 16.9" stroke="#ffffff" stroke-width="1" fill="none"></path></g><g stroke-linecap="round" transform="translate(110.49778963723566 121.91294057327605) rotate(0 111.8604356697656 117.98982265491213)"><path d="M25.49 42.03 C25.49 42.03, 25.49 42.03, 25.49 42.03 M25.49 42.03 C25.49 42.03, 25.49 42.03, 25.49 42.03 M18.01 56.73 C25.68 49.86, 33.21 40.09, 47.54 22.77 M18.01 56.73 C28.24 46.39, 37.14 34.65, 47.54 22.77 M11.19 70.68 C25.55 54.19, 40.45 37.56, 60.4 14.08 M11.19 70.68 C21.95 58.7, 30.7 46.96, 60.4 14.08 M6.99 81.61 C26.58 56.55, 49.28 35.48, 68.66 10.66 M6.99 81.61 C31.06 53.44, 54.02 26.58, 68.66 10.66 M5.42 89.51 C31.68 56.68, 58.03 25.77, 76.27 8 M5.42 89.51 C24.94 65.21, 45.57 43.79, 76.27 8 M3.85 97.42 C20.29 77.87, 37.99 57.27, 83.89 5.35 M3.85 97.42 C29.19 67.29, 55.45 38.05, 83.89 5.35 M2.27 105.33 C28.72 76.41, 56.29 44.29, 92.15 1.93 M2.27 105.33 C25.72 79.1, 50.16 52.36, 92.15 1.93 M0.7 113.23 C29.39 77.93, 63.34 42.8, 97.14 2.29 M0.7 113.23 C37.1 72.56, 70.53 32.59, 97.14 2.29 M1.09 118.88 C25 93.8, 46.49 64.61, 102.13 2.65 M1.09 118.88 C39.68 74.72, 78.27 29.89, 102.13 2.65 M1.49 124.52 C43.95 78.91, 82.25 34.04, 107.77 2.26 M1.49 124.52 C22.8 100.63, 45.24 73.89, 107.77 2.26 M2.54 129.41 C32.3 94.28, 60.62 62.09, 112.76 2.62 M2.54 129.41 C34.42 92.12, 67.7 55.79, 112.76 2.62 M2.93 135.05 C44.35 87.81, 86.22 39.63, 117.74 2.98 M2.93 135.05 C49.4 82.61, 94.39 30.64, 117.74 2.98 M3.98 139.94 C29.58 110.95, 54.67 83.52, 122.73 3.34 M3.98 139.94 C32.81 103.68, 65.3 68.16, 122.73 3.34 M5.04 144.83 C38.01 103.05, 74.7 61.08, 128.37 2.94 M5.04 144.83 C33.49 113.99, 59.12 83.95, 128.37 2.94 M5.43 150.47 C44.64 106.7, 86.85 60.58, 133.36 3.3 M5.43 150.47 C52.61 95.3, 99.43 42.73, 133.36 3.3 M6.48 155.36 C36.47 118.99, 66.92 84.23, 137.04 5.17 M6.48 155.36 C52.46 102.18, 100.22 47.65, 137.04 5.17 M7.53 160.25 C57.79 101.33, 108.6 41.41, 141.37 6.29 M7.53 160.25 C55.56 105.03, 103.53 48.89, 141.37 6.29 M9.24 164.38 C53.35 116.05, 94.33 68.49, 145.04 8.16 M9.24 164.38 C44.62 124.06, 77.74 85.87, 145.04 8.16 M11.6 167.76 C50.47 124.85, 86.34 81.65, 149.37 9.27 M11.6 167.76 C61.56 109.57, 111.33 52.87, 149.37 9.27 M13.96 171.14 C51.69 128.52, 90.48 82.68, 153.05 11.14 M13.96 171.14 C59.87 118.21, 107.07 64.8, 153.05 11.14 M15.67 175.27 C69.61 115.11, 122.91 54.41, 157.38 12.26 M15.67 175.27 C68.68 111.89, 124.4 48.59, 157.38 12.26 M18.03 178.65 C69.07 120.33, 119.58 62.3, 161.05 14.13 M18.03 178.65 C73.67 113.6, 130.38 49.32, 161.05 14.13 M19.74 182.79 C72.71 122.62, 123.81 65.68, 165.38 15.24 M19.74 182.79 C48.51 148.28, 77.99 113.67, 165.38 15.24 M22.1 186.17 C79.22 119.21, 139.06 54.53, 169.06 17.11 M22.1 186.17 C57.44 145.1, 92.86 105.05, 169.06 17.11 M23.81 190.3 C53.54 153.78, 83.32 121.51, 172.08 19.73 M23.81 190.3 C63.21 144.49, 102.75 100.85, 172.08 19.73 M26.17 193.68 C76.17 141.06, 123.77 85.58, 175.1 22.36 M26.17 193.68 C84.81 127.33, 143.07 61.99, 175.1 22.36 M29.19 196.3 C83.58 132.03, 140.66 70.85, 178.12 24.98 M29.19 196.3 C59.91 161.38, 90.69 125.65, 178.12 24.98 M32.21 198.93 C75.37 151.11, 116.86 103.54, 181.14 27.61 M32.21 198.93 C64.35 165.46, 95.2 128.92, 181.14 27.61 M35.23 201.55 C73.64 158.57, 107.88 116.65, 184.15 30.23 M35.23 201.55 C84.65 144.32, 134.48 88.6, 184.15 30.23 M38.25 204.17 C83.78 151.34, 127.73 100.04, 187.17 32.86 M38.25 204.17 C93.04 141.64, 149.32 76.42, 187.17 32.86 M41.27 206.8 C84.93 159.71, 125.81 112.5, 189.54 36.23 M41.27 206.8 C88.85 150.75, 137.81 95.16, 189.54 36.23 M44.29 209.42 C75.08 174.64, 107.6 137.48, 192.55 38.86 M44.29 209.42 C75.6 173.98, 106.85 138.1, 192.55 38.86 M47.3 212.05 C85.83 167.04, 124.47 122.5, 195.57 41.48 M47.3 212.05 C99.67 148.68, 153.73 87.34, 195.57 41.48 M50.32 214.67 C100.3 156.88, 148.41 99.75, 198.59 44.11 M50.32 214.67 C101.02 158.18, 150.06 100.44, 198.59 44.11 M53.34 217.3 C89.73 177.62, 121.14 138.71, 200.95 47.49 M53.34 217.3 C107.39 155.43, 161.26 93.56, 200.95 47.49 M57.02 219.17 C89.13 183.31, 120.51 148.74, 202.66 51.62 M57.02 219.17 C91.06 180.44, 124.14 143.59, 202.66 51.62 M60.69 221.03 C115.19 156.58, 172.46 94.26, 205.02 55 M60.69 221.03 C112.02 162.42, 164.21 104.78, 205.02 55 M64.37 222.9 C102.15 182.15, 137.77 139.32, 206.73 59.13 M64.37 222.9 C103.31 178.87, 142.09 134.73, 206.73 59.13 M68.04 224.77 C118.58 171.29, 165.23 112.92, 209.09 62.51 M68.04 224.77 C111.81 171.89, 154.73 122.57, 209.09 62.51 M72.37 225.89 C112.9 176.49, 154.18 128.18, 211.46 65.89 M72.37 225.89 C111.63 181.76, 150.49 137.01, 211.46 65.89 M76.05 227.76 C116.09 178.28, 159.27 131.19, 213.16 70.02 M76.05 227.76 C121.71 177.25, 165.5 126.47, 213.16 70.02 M79.72 229.63 C116.92 188.76, 149.9 147.49, 215.53 73.4 M79.72 229.63 C106.57 197.95, 132.41 167.98, 215.53 73.4 M84.05 230.74 C126.5 184.02, 165.98 133.79, 217.89 76.78 M84.05 230.74 C114.47 198.84, 141.52 166.09, 217.89 76.78 M87.73 232.61 C122.66 193.33, 158.21 151.18, 218.94 81.67 M87.73 232.61 C115.62 201.06, 142.39 170.86, 218.94 81.67 M91.4 234.48 C132.1 187.1, 175.43 136.63, 219.33 87.31 M91.4 234.48 C130.32 187.73, 170.99 142.07, 219.33 87.31 M97.05 234.09 C136.37 185.63, 180.1 140.04, 220.38 92.2 M97.05 234.09 C143.5 177.71, 192.79 123.46, 220.38 92.2 M102.03 234.45 C126.42 205.95, 153.15 174.92, 220.78 97.84 M102.03 234.45 C141.01 189.71, 178.48 146.06, 220.78 97.84 M107.68 234.05 C141.2 197.17, 171.64 163.76, 221.83 102.73 M107.68 234.05 C137.82 198.44, 169.53 162.77, 221.83 102.73 M113.32 233.66 C144.72 194.41, 179.55 157.61, 222.22 108.38 M113.32 233.66 C134.73 207.61, 156.04 182.96, 222.22 108.38 M118.31 234.02 C139.38 206.95, 161.42 184.22, 223.28 113.26 M118.31 234.02 C150.91 196.38, 182.57 160.11, 223.28 113.26 M123.95 233.62 C150.88 201.64, 176.92 169.7, 223.01 119.66 M123.95 233.62 C154.3 198.07, 185.15 163.08, 223.01 119.66 M128.94 233.98 C153.43 208.81, 175.79 177.62, 222.1 126.81 M128.94 233.98 C164.29 196.32, 196.92 157.47, 222.1 126.81 M135.89 232.08 C160.77 207.19, 180.67 180.14, 220.52 134.72 M135.89 232.08 C160.76 203.72, 184.22 176.02, 220.52 134.72 M143.5 229.42 C162.79 207.52, 178.81 186.78, 218.95 142.63 M143.5 229.42 C161.46 207.42, 181.26 185.61, 218.95 142.63 M151.11 226.76 C174.26 203.15, 195.08 176.3, 218.03 149.78 M151.11 226.76 C170.21 201.5, 191 178.13, 218.03 149.78 M158.72 224.1 C177.88 201.24, 197.81 178.1, 216.46 157.69 M158.72 224.1 C182.54 198.5, 204.82 171, 216.46 157.69 M166.34 221.44 C178.24 208.75, 187.35 199.04, 210.95 170.12 M166.34 221.44 C179.42 207.16, 190.69 194.22, 210.95 170.12 M185.1 205.96 C190.35 201.21, 197.71 193.06, 203.47 184.82 M185.1 205.96 C191.86 198.49, 198.75 191.78, 203.47 184.82" stroke="#1971c2" stroke-width="0.5" fill="none"></path><path d="M130.98 2.65 C143.27 3.2, 157.49 9.93, 168.63 16.69 C179.77 23.44, 189.59 33.02, 197.81 43.17 C206.03 53.32, 213.67 65.21, 217.95 77.58 C222.23 89.95, 223.79 103.82, 223.5 117.41 C223.21 131, 220.41 146.32, 216.21 159.13 C212 171.95, 206.26 184.06, 198.26 194.29 C190.26 204.52, 179.31 213.98, 168.23 220.52 C157.14 227.07, 144.6 231.3, 131.78 233.55 C118.96 235.81, 103.87 236.43, 91.31 234.06 C78.76 231.69, 67.42 226.04, 56.45 219.32 C45.48 212.59, 33.91 203.94, 25.49 193.71 C17.06 183.47, 10.16 170.69, 5.9 157.93 C1.65 145.17, -0.3 130.48, -0.04 117.13 C0.22 103.78, 3.18 90.39, 7.46 77.84 C11.74 65.29, 17.5 52.31, 25.65 41.85 C33.81 31.39, 45.27 21.8, 56.4 15.09 C67.54 8.38, 79.26 3.52, 92.47 1.6 C105.69 -0.32, 127.71 2.66, 135.68 3.58 C143.66 4.51, 140.54 5.46, 140.32 7.16 M131.89 0.67 C144.07 1.32, 158.5 9.81, 169.37 17 C180.25 24.19, 189.25 33.61, 197.13 43.8 C205.01 53.99, 212.46 65.74, 216.66 78.12 C220.85 90.51, 222.2 104.62, 222.32 118.11 C222.44 131.6, 221.39 146.4, 217.38 159.07 C213.37 171.75, 206.63 184.1, 198.26 194.15 C189.88 204.21, 178.36 212.7, 167.13 219.42 C155.9 226.13, 143.35 231.81, 130.88 234.44 C118.41 237.07, 104.99 237.56, 92.33 235.22 C79.67 232.89, 66 227.48, 54.92 220.45 C43.84 213.41, 34.05 203.61, 25.87 193.01 C17.68 182.41, 9.94 169.33, 5.82 156.86 C1.69 144.39, 0.8 131.67, 1.12 118.17 C1.45 104.67, 3.46 88.8, 7.76 75.86 C12.07 62.92, 19.01 50.52, 26.97 40.54 C34.92 30.57, 44.55 22.72, 55.51 16 C66.46 9.28, 80.11 2.38, 92.69 0.22 C105.27 -1.94, 124.36 2.16, 131 3.04 C137.64 3.93, 132.74 3.59, 132.53 5.54" stroke="#ffffff" stroke-width="1" fill="none"></path></g><g stroke-linecap="round" transform="translate(39.17950563771683 13.670432178323153) rotate(0 149.77913466265932 205.38645277228488)"><path d="M32 0 C100.18 3.57, 164.73 1.26, 267.56 0 C286.13 0.29, 301.37 10.2, 299.56 32 C299.26 100.33, 298.05 170.34, 299.56 378.77 C296.97 400.47, 290.06 412.47, 267.56 410.77 C181.93 409.93, 94.37 414.8, 32 410.77 C8.53 412.94, 0.11 397.35, 0 378.77 C0.84 295.79, -0.06 212.8, 0 32 C-1.54 13.66, 10.04 -3.11, 32 0" stroke="none" stroke-width="0" fill="#0b0e14"></path><path d="M32 0 C110.2 1.47, 191.1 1.43, 267.56 0 M32 0 C106.41 -2.02, 180.52 -2.44, 267.56 0 M267.56 0 C290.19 1.6, 300.25 11.78, 299.56 32 M267.56 0 C289.53 1.45, 298.04 8.4, 299.56 32 M299.56 32 C300.25 132.41, 299.98 232.49, 299.56 378.77 M299.56 32 C298.17 134.34, 297.82 237.7, 299.56 378.77 M299.56 378.77 C298.27 399.91, 288.55 409.94, 267.56 410.77 M299.56 378.77 C301.35 400.49, 290.92 412.3, 267.56 410.77 M267.56 410.77 C210.36 412.01, 152.13 413.23, 32 410.77 M267.56 410.77 C185.08 411.83, 102.51 411.59, 32 410.77 M32 410.77 C11.61 410.61, 1.69 399.61, 0 378.77 M32 410.77 C10.81 408.92, 0.68 400.26, 0 378.77 M0 378.77 C-1.17 257.86, -1.92 135.96, 0 32 M0 378.77 C-1.38 288.82, -1.59 199.27, 0 32 M0 32 C-1.56 11.53, 9.87 -1.89, 32 0 M0 32 C-1.73 12.34, 11.9 1.94, 32 0" stroke="#ffffff" stroke-width="1" fill="none"></path></g><g stroke-linecap="round" transform="translate(21.98539922722557 23.09113624597512) rotate(0 20.783113664132884 13.912240806572527)"><path d="M0.47 -0.08 L42.41 -0.25 L41.63 27.02 L0.3 27.89" stroke="none" stroke-width="0" fill="#0b0e14"></path><path d="M0 0 C13.02 0.63, 24.77 0.74, 41.57 0 M0 0 C15.95 -0.31, 32.96 0.45, 41.57 0 M41.57 0 C42.27 8.65, 40.66 18.52, 41.57 27.82 M41.57 0 C41.45 9.74, 41.32 20.26, 41.57 27.82 M41.57 27.82 C31.44 27.71, 22.88 27.25, 0 27.82 M41.57 27.82 C29.9 27.82, 17.89 28.07, 0 27.82 M0 27.82 C-0.18 20.93, -0.91 14.92, 0 0 M0 27.82 C-0.11 18, -0.37 8.16, 0 0" stroke="transparent" stroke-width="1" fill="none"></path></g><g stroke-linecap="round" transform="translate(277.4405883477102 367.8262520090034) rotate(0 25.566801041893314 33.559413112495804)"><path d="M1.69 -0.5 L51.26 -1.61 L51.73 67.25 L0.99 68.72" stroke="none" stroke-width="0" fill="#0b0e14"></path><path d="M0 0 C19.9 1.41, 40.99 -0.8, 51.13 0 M0 0 C14.85 1.17, 28.75 0.92, 51.13 0 M51.13 0 C49.59 21.78, 52.84 42.42, 51.13 67.12 M51.13 0 C50.85 16.13, 50.42 33, 51.13 67.12 M51.13 67.12 C34.73 65.73, 16.72 66.69, 0 67.12 M51.13 67.12 C38.8 67.87, 24.12 67.57, 0 67.12 M0 67.12 C-1.63 42.96, 1.06 15.27, 0 0 M0 67.12 C-0.66 42.18, 0.74 18.22, 0 0" stroke="transparent" stroke-width="1" fill="none"></path></g><g stroke-linecap="round"><g transform="translate(298.99437793172 450.8179692985382) rotate(0 17.251700279607235 -19.67185323266267)"><path d="M0 0 C12.99 -14.14, 25.66 -29.44, 34.5 -39.34 M0 0 C6.59 -8.34, 13.93 -16.38, 34.5 -39.34" stroke="#ffffff" stroke-width="1" fill="none"></path></g></g><mask></mask><g stroke-linecap="round" transform="translate(10 44.59726249738878) rotate(0 149.77913466265932 205.38645277228488)"><path d="M32 0 C105.28 -0.68, 172.54 0.04, 267.56 0 C291.09 -1.13, 297 7.69, 299.56 32 C297.38 112.63, 298.28 189.82, 299.56 378.77 C300.89 402.08, 286.31 412.42, 267.56 410.77 C175.94 410.6, 82.4 411.43, 32 410.77 C11.34 408.98, 1.62 396.94, 0 378.77 C1.34 241.34, 1.95 108.89, 0 32 C0.95 10.04, 8.68 -2.07, 32 0" stroke="none" stroke-width="0" fill="#0b0e14"></path><path d="M32 0 C123.16 -2.13, 210.84 -3.03, 267.56 0 M32 0 C85.98 -1.12, 139.61 -1.06, 267.56 0 M267.56 0 C287.57 -1.97, 299.35 11.95, 299.56 32 M267.56 0 C287.1 -1.36, 299.53 8.84, 299.56 32 M299.56 32 C300.34 126.89, 298.68 220.63, 299.56 378.77 M299.56 32 C297.98 147.98, 298.6 264.61, 299.56 378.77 M299.56 378.77 C301.32 401.43, 287.73 411.5, 267.56 410.77 M299.56 378.77 C301.32 399.82, 288.51 408.8, 267.56 410.77 M267.56 410.77 C184.81 408.81, 99.51 407.93, 32 410.77 M267.56 410.77 C210.06 410.4, 151.19 409.93, 32 410.77 M32 410.77 C11.26 410.9, 0.99 401.7, 0 378.77 M32 410.77 C10.26 411.9, 0.38 399.92, 0 378.77 M0 378.77 C1.91 290.06, 0.15 200.29, 0 32 M0 378.77 C1.52 295.16, 1.28 213.26, 0 32 M0 32 C1.07 12.35, 10.23 1.54, 32 0 M0 32 C-0.72 12.66, 12.53 1.24, 32 0" stroke="#ffffff" stroke-width="1" fill="none"></path></g><g stroke-linecap="round" transform="translate(46.96965932832882 190.8303484109788) rotate(0 111.8604356697656 117.98982265491213)"><path d="M38.02 29.07 C38.02 29.07, 38.02 29.07, 38.02 29.07 M38.02 29.07 C38.02 29.07, 38.02 29.07, 38.02 29.07 M13.48 63.39 C20.23 52.42, 29.31 44.13, 48.91 22.64 M13.48 63.39 C23.06 53.08, 31.85 43.14, 48.91 22.64 M10.59 72.81 C21.73 60.02, 30.75 46.96, 60.46 15.45 M10.59 72.81 C26.56 53.42, 43.82 33.06, 60.46 15.45 M7.71 82.23 C25.09 64.16, 40.73 42.27, 71.35 9.02 M7.71 82.23 C22.65 66.31, 36.89 47.86, 71.35 9.02 M4.82 91.64 C29.22 62.64, 52.51 35.79, 78.3 7.12 M4.82 91.64 C25.63 67.82, 45.19 44.36, 78.3 7.12 M2.59 100.31 C19.94 77.98, 40.17 57.04, 84.6 5.97 M2.59 100.31 C35.08 63.23, 67.57 26.59, 84.6 5.97 M2.33 106.7 C32.21 70.94, 60.83 36.05, 90.9 4.82 M2.33 106.7 C37.2 65.97, 73.7 25.11, 90.9 4.82 M2.73 112.35 C24.95 85.04, 49.52 60.5, 97.2 3.67 M2.73 112.35 C25.39 86.71, 45.5 63.97, 97.2 3.67 M2.47 118.74 C25.22 88.43, 52.78 60.92, 104.15 1.76 M2.47 118.74 C28.58 88.73, 55.14 58.9, 104.15 1.76 M2.86 124.39 C44.07 75.69, 87.07 26.47, 110.45 0.62 M2.86 124.39 C25.12 99.19, 47.02 73.42, 110.45 0.62 M3.25 130.03 C45.79 79.3, 90.55 28.29, 115.44 0.98 M3.25 130.03 C41.16 85.51, 79.3 42.56, 115.44 0.98 M2.99 136.43 C32.51 104.21, 62.91 68.95, 120.43 1.34 M2.99 136.43 C47.61 86.51, 90.56 34.56, 120.43 1.34 M3.39 142.07 C51.45 89.14, 94.6 34.78, 124.76 2.45 M3.39 142.07 C31.8 109.29, 61.77 76.3, 124.76 2.45 M5.09 146.2 C33.12 112.03, 60.45 82.36, 129.75 2.81 M5.09 146.2 C54.23 89.03, 104.16 31.04, 129.75 2.81 M6.15 151.09 C50.72 99.33, 98.77 41.97, 134.08 3.92 M6.15 151.09 C43.12 109.4, 77.61 69.85, 134.08 3.92 M7.85 155.23 C58.51 96.38, 109.05 36.89, 139.06 4.29 M7.85 155.23 C40.29 119.14, 71.51 83.79, 139.06 4.29 M9.56 159.36 C54.39 106.94, 103.67 52.61, 143.39 5.4 M9.56 159.36 C52.11 109.49, 97.3 57.46, 143.39 5.4 M10.61 164.25 C41.63 129.16, 75.37 92.02, 148.38 5.76 M10.61 164.25 C53.97 114.03, 96.16 65.04, 148.38 5.76 M12.32 168.38 C46.75 127.95, 83.82 85.95, 152.06 7.63 M12.32 168.38 C64.44 109.59, 114.24 52.26, 152.06 7.63 M14.02 172.52 C59.81 116.9, 106.64 65.25, 155.08 10.25 M14.02 172.52 C62.37 115.84, 109.23 60.13, 155.08 10.25 M15.07 177.4 C57.33 125.47, 102.21 74.82, 158.75 12.12 M15.07 177.4 C60.34 126.01, 102.82 76.34, 158.75 12.12 M17.44 180.78 C54.35 134.81, 94.12 90.16, 162.43 13.99 M17.44 180.78 C59.96 132.33, 103.14 81.54, 162.43 13.99 M19.8 184.16 C51.03 146.25, 82.98 108.46, 165.44 16.62 M19.8 184.16 C71.86 124.59, 124.81 63.13, 165.44 16.62 M22.16 187.54 C70.4 134.82, 116.94 78.72, 169.12 18.49 M22.16 187.54 C61.29 141.99, 101.91 94.88, 169.12 18.49 M25.18 190.17 C81.96 120.57, 142.75 56.11, 172.79 20.36 M25.18 190.17 C72.69 131.99, 122.42 75.37, 172.79 20.36 M27.54 193.54 C81.39 128.17, 136 63.91, 175.81 22.98 M27.54 193.54 C81.95 131.68, 137.21 68.45, 175.81 22.98 M29.91 196.92 C87.42 130.98, 145.3 66.55, 179.49 24.85 M29.91 196.92 C69.87 149.77, 112.39 103.65, 179.49 24.85 M32.92 199.55 C92.33 133.91, 153.17 64.77, 182.51 27.47 M32.92 199.55 C66.8 159.39, 101.58 118.96, 182.51 27.47 M35.29 202.93 C86.36 142.14, 139.71 80.41, 185.53 30.1 M35.29 202.93 C71.62 160.72, 106.24 121.57, 185.53 30.1 M37.65 206.31 C91.43 143.27, 148.48 81.13, 187.89 33.48 M37.65 206.31 C86.51 149.59, 134.49 93.45, 187.89 33.48 M40.01 209.68 C75.94 166.56, 113.04 124.84, 190.91 36.1 M40.01 209.68 C88.61 155.33, 137.72 99.09, 190.91 36.1 M43.69 211.55 C95.93 152.66, 148.44 91.5, 193.27 39.48 M43.69 211.55 C80.49 169.45, 115.99 126.05, 193.27 39.48 M46.71 214.18 C87.15 169.99, 125 125.77, 195.63 42.86 M46.71 214.18 C80.43 172.84, 116.41 132.55, 195.63 42.86 M50.38 216.05 C83.7 176.91, 120.06 137.84, 198.65 45.48 M50.38 216.05 C81.92 179.56, 112.88 143.94, 198.65 45.48 M54.06 217.92 C99.7 165.83, 146.46 113.48, 201.01 48.86 M54.06 217.92 C104.16 160.33, 156.07 100.6, 201.01 48.86 M57.73 219.79 C109.6 157.19, 163.02 94.36, 204.03 51.49 M57.73 219.79 C110.79 157.86, 163.87 96.43, 204.03 51.49 M61.41 221.66 C116.21 157.03, 173.55 94.25, 206.4 54.87 M61.41 221.66 C88.84 189.26, 118.26 155.8, 206.4 54.87 M65.08 223.53 C111.27 166.83, 160.85 115.1, 208.76 58.24 M65.08 223.53 C107.49 177.75, 147.74 129.75, 208.76 58.24 M68.1 226.15 C99.19 189.52, 128.82 152.63, 210.47 62.38 M68.1 226.15 C100.61 189.98, 132.5 154.16, 210.47 62.38 M71.78 228.02 C128.34 164.4, 180.22 101.27, 212.17 66.51 M71.78 228.02 C107.54 185.53, 145.82 143.14, 212.17 66.51 M75.45 229.89 C128.97 168.95, 183.38 108.32, 213.22 71.4 M75.45 229.89 C104.26 198.19, 132.64 165.12, 213.22 71.4 M80.44 230.25 C107.64 196.84, 135.93 166.63, 214.93 75.53 M80.44 230.25 C112.21 194.49, 145.11 158.98, 214.93 75.53 M84.77 231.36 C110.81 198.4, 138.84 168.02, 215.98 80.42 M84.77 231.36 C116.66 197.13, 148.53 160.95, 215.98 80.42 M89.76 231.72 C134.16 180.06, 176.33 130.7, 217.69 84.56 M89.76 231.72 C120.96 195.58, 151.47 158.73, 217.69 84.56 M94.09 232.84 C127.92 193.35, 160.6 152.44, 219.39 88.69 M94.09 232.84 C139.85 180.28, 184.26 126.66, 219.39 88.69 M99.07 233.2 C144.02 182.97, 189.07 130.28, 220.44 93.58 M99.07 233.2 C146.08 180.6, 193.26 126.33, 220.44 93.58 M103.4 234.31 C136.87 193.7, 174.35 153.37, 221.49 98.47 M103.4 234.31 C140.38 192.42, 177.25 149.26, 221.49 98.47 M108.39 234.67 C147.86 188.44, 183.74 144.05, 221.23 104.86 M108.39 234.67 C135.21 204.71, 162.09 172.59, 221.23 104.86 M112.72 235.79 C137.83 205.26, 163.76 173.48, 221.63 110.51 M112.72 235.79 C134.12 210.47, 157.14 183.78, 221.63 110.51 M119.02 234.64 C154.19 198.15, 185.78 159.35, 221.37 116.91 M119.02 234.64 C146.58 203.5, 172.7 172.9, 221.37 116.91 M125.32 233.49 C147.31 205.06, 171.83 181, 221.76 122.55 M125.32 233.49 C145.31 209.11, 166.98 187.17, 221.76 122.55 M131.62 232.34 C154.14 205.11, 178.87 180.97, 221.5 128.95 M131.62 232.34 C147.93 212.39, 166.97 190.67, 221.5 128.95 M137.92 231.19 C159.51 207.64, 185.06 178.46, 221.89 134.59 M137.92 231.19 C163.01 204.29, 186.31 176.02, 221.89 134.59 M144.87 229.29 C167.88 200.79, 191.89 177.41, 219.66 143.25 M144.87 229.29 C163.41 209.4, 179.76 186.76, 219.66 143.25 M151.17 228.14 C165.04 209.51, 180.72 192.66, 216.12 153.42 M151.17 228.14 C169.68 206.94, 188.92 186.56, 216.12 153.42 M162.06 221.71 C177.86 202.76, 197.68 182.01, 213.24 162.84 M162.06 221.71 C176.72 203.98, 192.95 186.35, 213.24 162.84 M172.96 215.27 C183.57 204.5, 194.63 191.53, 210.35 172.26 M172.96 215.27 C188.68 198.07, 203.11 181.02, 210.35 172.26 M183.85 208.84 C185.88 206.29, 188.45 203.55, 189.75 202.05 M183.85 208.84 C185.97 207.13, 187.59 205.02, 189.75 202.05" stroke="#1971c2" stroke-width="0.5" fill="none"></path><path d="M72.75 8.11 C83.65 1.76, 97.93 0.67, 110.65 0.29 C123.37 -0.09, 137.29 1.5, 149.09 5.83 C160.88 10.17, 171.52 17.85, 181.42 26.32 C191.32 34.78, 201.87 45.05, 208.48 56.61 C215.1 68.17, 218.94 82.36, 221.11 95.66 C223.28 108.95, 223.44 123.2, 221.52 136.37 C219.6 149.53, 215.53 162.8, 209.57 174.66 C203.61 186.51, 195.5 198.62, 185.77 207.51 C176.04 216.41, 163.13 223.39, 151.17 228.03 C139.2 232.66, 126.64 235.1, 113.98 235.32 C101.31 235.53, 87.34 233.48, 75.17 229.32 C62.99 225.15, 50.76 218.65, 40.9 210.34 C31.05 202.03, 22.42 191.24, 16.05 179.47 C9.68 167.7, 5.06 152.96, 2.68 139.73 C0.3 126.5, -0.11 113.32, 1.77 100.1 C3.66 86.89, 7.99 72.24, 13.99 60.45 C19.99 48.66, 27.06 38.61, 37.76 29.37 C48.45 20.13, 70.34 8.94, 78.16 5 C85.99 1.06, 84.26 3.91, 84.7 5.73 M83.89 3.73 C95.03 -1.58, 108.84 -2, 121.41 -0.78 C133.98 0.43, 147.64 4.97, 159.32 11.02 C171 17.08, 182.57 25.95, 191.49 35.54 C200.41 45.13, 207.51 56.63, 212.85 68.58 C218.19 80.54, 222.44 94.11, 223.52 107.28 C224.6 120.45, 222.47 134.4, 219.35 147.61 C216.22 160.81, 211.84 175.52, 204.78 186.51 C197.71 197.5, 187.55 206.14, 176.98 213.55 C166.4 220.96, 153.96 227.19, 141.33 230.97 C128.71 234.75, 114.07 237.43, 101.23 236.2 C88.38 234.98, 75.82 229.22, 64.25 223.64 C52.69 218.06, 40.65 211.77, 31.84 202.73 C23.03 193.69, 16.69 181.56, 11.41 169.39 C6.12 157.23, 1.48 143.12, 0.13 129.73 C-1.23 116.34, -0.26 102.11, 3.27 89.05 C6.79 75.99, 13.9 62.82, 21.28 51.37 C28.66 39.93, 37.29 28.12, 47.53 20.36 C57.78 12.61, 76.84 7.43, 82.75 4.85 C88.66 2.28, 82.53 2.98, 83.02 4.91" stroke="#ffffff" stroke-width="1" fill="none"></path></g><g stroke-linecap="round" transform="translate(36.12392521057154 72.90593878964819) rotate(0 33.56865894963346 35.408051940039286)"><path d="M5.82 14.33 C5.82 14.33, 5.82 14.33, 5.82 14.33 M5.82 14.33 C5.82 14.33, 5.82 14.33, 5.82 14.33 M3.59 22.99 C9.56 17.06, 18.36 8.86, 20.65 3.37 M3.59 22.99 C9.44 16.88, 13.15 11.13, 20.65 3.37 M2.02 30.9 C9.69 19.05, 19.14 10.03, 27.6 1.47 M2.02 30.9 C9.86 21.31, 19.43 10.44, 27.6 1.47 M1.1 38.05 C12.86 25.78, 21.02 12.04, 32.59 1.83 M1.1 38.05 C9.38 28.25, 17.73 19.61, 32.59 1.83 M2.8 42.19 C16.36 27.94, 30.04 11.5, 37.58 2.19 M2.8 42.19 C12.44 33.1, 19.8 22.77, 37.58 2.19 M3.85 47.08 C16.04 34.08, 30.28 19.27, 43.22 1.79 M3.85 47.08 C14.15 35.11, 25.07 24.03, 43.22 1.79 M4.91 51.96 C17.58 37.55, 27.71 25.13, 46.89 3.66 M4.91 51.96 C15.62 39.63, 27.11 26.51, 46.89 3.66 M6.61 56.1 C17.94 44.91, 25.16 33.47, 49.91 6.29 M6.61 56.1 C18.77 40.05, 32.17 25.08, 49.91 6.29 M9.63 58.72 C20.67 47.14, 29.81 34.43, 53.59 8.16 M9.63 58.72 C18.94 47.91, 28.34 36.39, 53.59 8.16 M12.65 61.35 C29.27 40.49, 45.73 20.95, 56.61 10.78 M12.65 61.35 C24.78 47.38, 39.83 30.37, 56.61 10.78 M16.32 63.22 C31.86 48.78, 43.18 30.11, 59.62 13.41 M16.32 63.22 C33.05 44.17, 48.35 26.78, 59.62 13.41 M19.34 65.84 C30.65 49.2, 44.14 33.48, 62.64 16.03 M19.34 65.84 C30.96 53.23, 42.31 40.55, 62.64 16.03 M22.36 68.46 C35.01 55.94, 44.66 42.11, 63.69 20.92 M22.36 68.46 C34.01 55.42, 46.31 40.35, 63.69 20.92 M27.35 68.83 C41.83 52.49, 53.65 40.73, 64.74 25.81 M27.35 68.83 C41.69 52.35, 55.62 37.93, 64.74 25.81 M32.34 69.19 C40.19 60.27, 48.69 52.7, 65.8 30.69 M32.34 69.19 C39.07 60.64, 45.58 52.83, 65.8 30.69 M37.98 68.79 C49.45 57.35, 59.36 43.62, 66.19 36.34 M37.98 68.79 C46.26 59.99, 54.11 50.72, 66.19 36.34 M42.97 69.15 C53.06 58.14, 57.86 52.11, 64.62 44.25 M42.97 69.15 C47.8 63.7, 54.65 56.51, 64.62 44.25 M55.17 61.21 C57.68 59.3, 59.69 56.29, 62.39 52.91 M55.17 61.21 C56.65 59.54, 59.1 57.42, 62.39 52.91" stroke="#96f2d7" stroke-width="0.5" fill="none"></path><path d="M44.84 2.13 C50.88 3.61, 58.02 8.65, 61.57 14.25 C65.12 19.84, 66.22 28.77, 66.15 35.69 C66.08 42.6, 65.01 50.17, 61.16 55.75 C57.3 61.33, 49.52 67.03, 43.01 69.19 C36.49 71.34, 28.2 71.02, 22.06 68.69 C15.92 66.36, 9.73 60.75, 6.16 55.2 C2.6 49.65, 0.69 42.22, 0.67 35.37 C0.64 28.52, 2.15 19.84, 6.02 14.1 C9.89 8.37, 17.28 2.94, 23.89 0.97 C30.51 -1, 41.92 1.68, 45.7 2.27 C49.49 2.86, 46.76 3.8, 46.6 4.52 M45.66 1.75 C51.82 3.14, 57.11 7.98, 60.83 13.82 C64.54 19.66, 68.21 29.46, 67.97 36.77 C67.73 44.08, 63.6 52.33, 59.4 57.68 C55.2 63.04, 49.12 67.17, 42.76 68.9 C36.4 70.64, 27.23 70.31, 21.23 68.09 C15.24 65.87, 10.1 61.2, 6.77 55.58 C3.44 49.97, 1.26 41.52, 1.27 34.4 C1.28 27.29, 3.03 18.34, 6.86 12.88 C10.68 7.42, 17.81 3.27, 24.21 1.64 C30.61 0.02, 41.95 2.85, 45.25 3.13 C48.55 3.41, 44.29 3, 44.02 3.34" stroke="#ffffff" stroke-width="1" fill="none"></path></g><g stroke-linecap="round"><g transform="translate(16.561409472820742 54.81094419864303) rotate(0 16.9044493759518 -17.860758734037745)"><path d="M0 0 C8.61 -7.87, 16.04 -16.05, 33.81 -35.72 M0 0 C12.34 -12.48, 24.27 -26.06, 33.81 -35.72" stroke="#ffffff" stroke-width="1" fill="none"></path></g></g><mask></mask><g stroke-linecap="round" transform="translate(478.32593523313244 122.83691779737046) rotate(0 111.8604356697656 117.98982265491213)"><path d="M21.24 48.94 C21.24 48.94, 21.24 48.94, 21.24 48.94 M21.24 48.94 C21.24 48.94, 21.24 48.94, 21.24 48.94 M15.73 61.37 C25.04 50.51, 35.27 39.74, 54.43 16.84 M15.73 61.37 C28.65 46.73, 39.91 34.25, 54.43 16.84 M9.56 74.56 C23.58 56.41, 37.7 40.93, 62.7 13.43 M9.56 74.56 C23.15 58.22, 37.56 41.68, 62.7 13.43 M4.71 86.24 C25.93 59.99, 48.67 36.14, 71.63 9.26 M4.71 86.24 C18.7 69.56, 33.05 51.78, 71.63 9.26 M3.79 93.4 C24.11 69.47, 46.78 44.76, 80.55 5.09 M3.79 93.4 C19.94 74.64, 35.64 56.89, 80.55 5.09 M3.53 99.79 C28.29 68.74, 54.36 37.2, 87.5 3.19 M3.53 99.79 C25.49 75.92, 46.09 53.04, 87.5 3.19 M2.61 106.95 C31.21 73.28, 56.76 42.1, 93.15 2.8 M2.61 106.95 C35.87 69.67, 69.09 31.29, 93.15 2.8 M1.69 114.1 C32.17 79.76, 63.19 46.13, 98.79 2.4 M1.69 114.1 C21.79 91.53, 42.09 67.16, 98.79 2.4 M0.78 121.25 C40.53 78.25, 80.14 29.8, 103.78 2.76 M0.78 121.25 C41 74.7, 81.17 28.49, 103.78 2.76 M0.51 127.65 C26.77 98.66, 53.5 68.46, 109.42 2.37 M0.51 127.65 C28.34 96.18, 55.74 63.6, 109.42 2.37 M1.57 132.54 C36.12 91.02, 75.69 46.47, 115.06 1.97 M1.57 132.54 C42.13 84.04, 84.29 34.95, 115.06 1.97 M2.62 137.43 C30.33 103.95, 59.2 68.73, 120.71 1.58 M2.62 137.43 C41.74 91.71, 81.34 45.12, 120.71 1.58 M3.67 142.31 C27.66 112.16, 53.55 83.53, 126.35 1.18 M3.67 142.31 C43.01 97.01, 82.32 51.49, 126.35 1.18 M4.72 147.2 C45.57 103.09, 82.74 58.72, 130.68 2.3 M4.72 147.2 C51.7 90.79, 99.11 37.28, 130.68 2.3 M5.77 152.09 C47.23 100.43, 90.01 54.16, 135.01 3.41 M5.77 152.09 C38.5 115.17, 67.92 79.92, 135.01 3.41 M6.82 156.98 C35.48 123.37, 65.79 87.08, 138.69 5.28 M6.82 156.98 C41.93 117.76, 75.16 78.48, 138.69 5.28 M7.87 161.87 C57.09 102.05, 109.53 43.28, 143.02 6.4 M7.87 161.87 C49.84 112.52, 94.92 61.76, 143.02 6.4 M9.58 166 C40.62 128.47, 70.43 94.97, 147.35 7.51 M9.58 166 C43.37 125.58, 78.94 83.73, 147.35 7.51 M11.94 169.38 C56.12 118.88, 101.33 68.32, 151.68 8.63 M11.94 169.38 C57.99 118.57, 102.82 65.36, 151.68 8.63 M14.3 172.76 C66.79 113.54, 117.93 53.88, 156.01 9.74 M14.3 172.76 C45.41 136.95, 75.23 103.28, 156.01 9.74 M16.66 176.14 C55.63 130.59, 98.74 83.28, 159.68 11.61 M16.66 176.14 C70.26 115.68, 121.92 56.41, 159.68 11.61 M18.37 180.27 C63.21 132.96, 105.22 84.39, 163.36 13.48 M18.37 180.27 C68.75 122.76, 119.75 64.77, 163.36 13.48 M20.73 183.65 C63.02 133.38, 105.09 85.13, 167.03 15.35 M20.73 183.65 C74.43 121.63, 126.93 60.65, 167.03 15.35 M23.1 187.03 C73.58 130.81, 122.09 74.63, 170.05 17.97 M23.1 187.03 C60.78 144.89, 97.59 102.98, 170.05 17.97 M25.46 190.41 C74.65 133.14, 125.42 77.73, 173.07 20.6 M25.46 190.41 C84.48 122.92, 140.85 57.44, 173.07 20.6 M27.82 193.79 C60.27 156.61, 91.18 119.88, 176.09 23.22 M27.82 193.79 C71.6 145.15, 115.77 96.44, 176.09 23.22 M30.18 197.17 C67.25 154.01, 106.35 108.53, 179.11 25.85 M30.18 197.17 C77.39 143.88, 123.37 91.47, 179.11 25.85 M32.55 200.54 C73.02 153.32, 114.52 106.35, 182.78 27.72 M32.55 200.54 C64.74 163.57, 96.83 126.69, 182.78 27.72 M35.57 203.17 C80.66 149.5, 130.41 92.78, 185.8 30.34 M35.57 203.17 C86.63 143.4, 136.97 84.07, 185.8 30.34 M39.24 205.04 C82.99 154.96, 126 103.65, 188.82 32.96 M39.24 205.04 C90.93 145.39, 141.5 88.74, 188.82 32.96 M42.26 207.66 C74.38 171.53, 106.73 133.02, 191.84 35.59 M42.26 207.66 C87.16 155.62, 132.07 103.48, 191.84 35.59 M45.28 210.29 C85.38 162.42, 125.33 118.26, 194.86 38.21 M45.28 210.29 C96.33 149.38, 150.78 88.22, 194.86 38.21 M48.3 212.91 C84.98 169.04, 122.77 127.02, 196.57 42.35 M48.3 212.91 C101.02 150.5, 156.34 88.19, 196.57 42.35 M51.32 215.54 C87.23 177.97, 119.5 138.39, 198.93 45.73 M51.32 215.54 C102.07 157.75, 151.7 101.71, 198.93 45.73 M54.34 218.16 C110.03 156.81, 163.39 93.41, 201.29 49.1 M54.34 218.16 C99.71 167.35, 143.41 117.41, 201.29 49.1 M58.01 220.03 C91.08 184.76, 126.14 144.53, 203.66 52.48 M58.01 220.03 C103.69 168.12, 150.32 113.5, 203.66 52.48 M61.03 222.65 C111.57 167.17, 159.22 108.07, 206.02 55.86 M61.03 222.65 C91.58 186.74, 122.68 151.12, 206.02 55.86 M64.7 224.52 C113.97 168.85, 159.36 113.81, 208.38 59.24 M64.7 224.52 C113.33 169.74, 159.55 116.85, 208.38 59.24 M69.03 225.64 C118.52 170.09, 163.22 116.28, 210.09 63.38 M69.03 225.64 C101.76 186.07, 135.87 147.92, 210.09 63.38 M73.37 226.75 C107.31 189.5, 140.84 148.67, 212.45 66.75 M73.37 226.75 C123.04 171.22, 171.06 114.1, 212.45 66.75 M77.7 227.87 C132.09 168.1, 182.47 107.48, 214.81 70.13 M77.7 227.87 C111.63 192.01, 142.1 155.76, 214.81 70.13 M82.03 228.98 C122.09 183.6, 165.22 135.42, 215.86 75.02 M82.03 228.98 C129.34 173.44, 177.41 117.72, 215.86 75.02 M86.36 230.1 C126.31 184.84, 164.68 138.3, 216.91 79.91 M86.36 230.1 C121.22 188.61, 155.21 149.07, 216.91 79.91 M90.03 231.97 C122.33 196.61, 151.75 162.31, 217.97 84.8 M90.03 231.97 C126.59 189.15, 165.93 145.13, 217.97 84.8 M94.36 233.08 C142.17 178.29, 187.31 125.54, 219.02 89.69 M94.36 233.08 C140.96 181.47, 186.24 128.78, 219.02 89.69 M98.7 234.2 C127.59 199.55, 154.41 165.73, 220.07 94.57 M98.7 234.2 C132.38 194.62, 167.78 154.57, 220.07 94.57 M103.68 234.56 C135.66 196.9, 165.97 159.79, 220.46 100.22 M103.68 234.56 C141.88 187.72, 180.85 143.01, 220.46 100.22 M108.67 234.92 C141.45 197.06, 175.88 159.6, 221.51 105.11 M108.67 234.92 C133.01 206.89, 155.8 180.53, 221.51 105.11 M114.31 234.52 C147.88 193.17, 184.4 153.12, 222.56 109.99 M114.31 234.52 C152.35 190.35, 192.29 144.4, 222.56 109.99 M119.3 234.88 C144.26 205.87, 169.23 174.84, 222.96 115.64 M119.3 234.88 C155.72 194.56, 190.96 153.36, 222.96 115.64 M124.94 234.49 C152.1 204.73, 177.8 177.79, 222.04 122.79 M124.94 234.49 C161.94 189.83, 201.48 147.07, 222.04 122.79 M130.59 234.09 C160.12 198.96, 192.45 162.7, 221.12 129.94 M130.59 234.09 C159.68 198.3, 189.77 164.51, 221.12 129.94 M135.57 234.45 C155.94 209.52, 176.47 186.3, 220.86 136.34 M135.57 234.45 C166.83 198.94, 198.89 162.36, 220.86 136.34 M143.18 231.79 C159.85 211.47, 179.08 192.05, 219.94 143.49 M143.18 231.79 C171.27 198.41, 201.76 163.61, 219.94 143.49 M152.76 226.87 C168.71 206.62, 185.6 186.5, 218.37 151.4 M152.76 226.87 C176.72 198, 203.27 168.44, 218.37 151.4 M161.69 222.7 C174.16 208.43, 188.01 192.14, 212.86 163.84 M161.69 222.7 C176.9 204.55, 193.86 186.72, 212.86 163.84 M171.27 217.78 C183.48 204.34, 196.12 189.21, 208.01 175.52 M171.27 217.78 C183.57 203.53, 194.44 191.18, 208.01 175.52" stroke="#1971c2" stroke-width="0.5" fill="none"></path><path d="M85.47 2.68 C96.84 -2.1, 112.43 -0.63, 125.16 0.89 C137.88 2.41, 150.55 5.9, 161.85 11.79 C173.14 17.67, 184.04 26.33, 192.93 36.2 C201.81 46.07, 210.21 58.71, 215.16 71.03 C220.11 83.35, 222.06 96.76, 222.62 110.12 C223.17 123.48, 221.81 138.39, 218.5 151.22 C215.2 164.04, 210.26 176.19, 202.79 187.08 C195.31 197.97, 184.33 208.8, 173.65 216.56 C162.97 224.32, 150.96 230.68, 138.71 233.64 C126.45 236.6, 112.98 236.04, 100.12 234.33 C87.27 232.63, 73.07 229.32, 61.59 223.44 C50.11 217.56, 40.07 208.81, 31.26 199.06 C22.44 189.32, 13.91 177.36, 8.68 164.97 C3.45 152.57, 0.58 137.92, -0.11 124.7 C-0.79 111.47, 0.98 98.27, 4.56 85.61 C8.15 72.95, 13.88 59.89, 21.39 48.76 C28.9 37.63, 37.8 26.55, 49.64 18.84 C61.48 11.13, 83.76 5.18, 92.42 2.51 C101.08 -0.16, 101.09 1.04, 101.61 2.81 M102.09 0.23 C113.86 -2.3, 128.51 1.54, 140.61 5.06 C152.72 8.58, 164.01 13.82, 174.72 21.34 C185.43 28.86, 197.09 39.23, 204.86 50.15 C212.63 61.08, 218.24 74.1, 221.35 86.9 C224.45 99.7, 224.62 113.36, 223.49 126.95 C222.36 140.54, 220.04 156.25, 214.57 168.45 C209.1 180.65, 199.89 190.68, 190.67 200.14 C181.45 209.6, 170.76 219.57, 159.25 225.22 C147.74 230.87, 134.46 233.12, 121.6 234.04 C108.74 234.96, 94.29 233.98, 82.1 230.74 C69.9 227.51, 58.81 222.19, 48.42 214.62 C38.03 207.06, 26.99 196.46, 19.76 185.35 C12.52 174.24, 8.44 160.74, 5.01 147.97 C1.58 135.19, -1.8 122.08, -0.83 108.7 C0.14 95.32, 5.21 79.87, 10.82 67.69 C16.43 55.51, 23.92 45, 32.83 35.62 C41.74 26.25, 52.66 17.53, 64.26 11.44 C75.87 5.35, 96.04 0.62, 102.45 -0.94 C108.85 -2.49, 102.74 0.12, 102.69 2.1" stroke="#ffffff" stroke-width="1" fill="none"></path></g><g stroke-linecap="round" transform="translate(475.8248271688435 121.31358333965227) rotate(0 111.8604356697656 117.98982265491213)"><path d="M39.73 26.59 C39.73 26.59, 39.73 26.59, 39.73 26.59 M39.73 26.59 C39.73 26.59, 39.73 26.59, 39.73 26.59 M15.19 60.91 C27.39 47.91, 36.32 35.88, 49.96 20.91 M15.19 60.91 C28.08 46.71, 41.28 30.71, 49.96 20.91 M12.31 70.32 C26.44 53.48, 41.44 36.87, 60.2 15.23 M12.31 70.32 C30.16 49.79, 49.33 28.6, 60.2 15.23 M8.76 80.5 C28.19 59.44, 43.34 41.07, 71.09 8.8 M8.76 80.5 C30.58 54.31, 51.96 29.38, 71.09 8.8 M5.88 89.91 C28.65 64.43, 50.19 39.17, 75.42 9.91 M5.88 89.91 C20.09 73.83, 35.42 56.24, 75.42 9.91 M2.99 99.33 C25.71 70.35, 50.52 43.56, 81.72 8.76 M2.99 99.33 C22.8 77.38, 42.71 53.68, 81.72 8.76 M2.73 105.73 C33.12 69.16, 68.68 30.52, 88.02 7.61 M2.73 105.73 C25.93 78.9, 48.14 52.5, 88.02 7.61 M2.47 112.12 C23.72 89.25, 43 63.6, 94.32 6.46 M2.47 112.12 C30.68 78.69, 59.13 47.75, 94.32 6.46 M2.87 117.77 C30.73 84.22, 58.67 55.21, 100.62 5.32 M2.87 117.77 C24.99 92.3, 47.5 66.82, 100.62 5.32 M2.6 124.16 C43 79.65, 79.87 33.86, 106.92 4.17 M2.6 124.16 C31.02 90.18, 59.52 58.48, 106.92 4.17 M2.34 130.56 C31.07 98.2, 58.38 70.11, 114.53 1.51 M2.34 130.56 C44.96 80.94, 86.81 32.33, 114.53 1.51 M2.74 136.21 C35.47 95.91, 71.77 60.86, 118.86 2.62 M2.74 136.21 C40.71 91.18, 77.97 47.7, 118.86 2.62 M4.44 140.34 C41.41 98.53, 81.52 51.31, 123.85 2.98 M4.44 140.34 C46.67 91.8, 88.4 44.58, 123.85 2.98 M5.49 145.23 C44.03 100.07, 86.26 52.47, 128.18 4.1 M5.49 145.23 C54.42 90.27, 103.15 35.17, 128.18 4.1 M7.2 149.36 C55.89 95.57, 102.7 38.47, 132.51 5.21 M7.2 149.36 C50.07 98.27, 95.16 46.28, 132.51 5.21 M8.91 153.49 C44.43 110.85, 80.23 69.77, 137.5 5.57 M8.91 153.49 C56.67 97.04, 106.71 40.97, 137.5 5.57 M9.96 158.38 C56.01 106.51, 102.85 54.99, 141.83 6.69 M9.96 158.38 C38.84 126.74, 65.02 95.53, 141.83 6.69 M11.67 162.52 C57.87 109.73, 106.51 54.41, 146.81 7.05 M11.67 162.52 C60.87 105.14, 109.75 49.51, 146.81 7.05 M13.37 166.65 C59.39 115.11, 103.37 63.47, 151.8 7.41 M13.37 166.65 C48.47 123.99, 84.46 82.63, 151.8 7.41 M14.42 171.54 C70.31 106.55, 122.82 44.06, 154.82 10.03 M14.42 171.54 C68.87 109.09, 123.35 45.35, 154.82 10.03 M14.82 177.18 C55.17 133.1, 93.71 87.5, 158.49 11.9 M14.82 177.18 C50.61 136.03, 87.91 92.31, 158.49 11.9 M17.18 180.56 C54.56 137.89, 92.39 91.53, 162.17 13.77 M17.18 180.56 C63.78 128.15, 108.61 76.66, 162.17 13.77 M20.2 183.19 C71.63 123.94, 123.47 65.36, 165.19 16.39 M20.2 183.19 C66.28 129.82, 113.85 76.97, 165.19 16.39 M22.56 186.56 C57.06 146.8, 91.47 103.92, 168.86 18.26 M22.56 186.56 C69.48 132.66, 115.92 77.76, 168.86 18.26 M24.92 189.94 C83.43 125.46, 140.7 58.67, 172.54 20.13 M24.92 189.94 C74.28 132.28, 125.37 72.61, 172.54 20.13 M27.94 192.57 C64.14 149.39, 102.43 106.43, 175.56 22.76 M27.94 192.57 C59.09 159.37, 87.62 124.27, 175.56 22.76 M30.31 195.95 C88.39 128.7, 145.93 62.23, 179.23 24.63 M30.31 195.95 C89.66 127.72, 148.24 58.43, 179.23 24.63 M32.67 199.33 C66.85 160.37, 100.81 120.31, 182.91 26.5 M32.67 199.33 C79.63 145.87, 126.93 93.04, 182.91 26.5 M35.69 201.95 C67.36 165.83, 98.1 133.46, 185.93 29.12 M35.69 201.95 C82.32 146.65, 130.94 91.46, 185.93 29.12 M38.05 205.33 C86.9 147.37, 138.82 89.43, 188.29 32.5 M38.05 205.33 C94.23 142.14, 149.28 75.92, 188.29 32.5 M40.41 208.71 C87.55 153.27, 135.76 99.92, 191.31 35.12 M40.41 208.71 C90.05 150.86, 140.12 92.96, 191.31 35.12 M44.09 210.58 C96.18 152.22, 150.33 91.56, 193.67 38.5 M44.09 210.58 C91.84 157.72, 136.52 105.26, 193.67 38.5 M47.76 212.45 C80.14 176.1, 114.71 140.28, 196.03 41.88 M47.76 212.45 C82.38 174.76, 115.28 135.51, 196.03 41.88 M50.78 215.07 C93.45 164.08, 139.55 110.11, 198.4 45.26 M50.78 215.07 C107.27 151.05, 163.45 86.42, 198.4 45.26 M54.46 216.94 C89 175.77, 125.58 131.4, 201.41 47.89 M54.46 216.94 C108.67 154.34, 161.78 90.7, 201.41 47.89 M58.13 218.81 C91.67 180.59, 122.57 145.5, 203.78 51.26 M58.13 218.81 C95.87 174.06, 133.12 131.22, 203.78 51.26 M61.15 221.43 C109.32 162.26, 158.86 106.39, 206.14 54.64 M61.15 221.43 C106.04 170.09, 151.95 117.46, 206.14 54.64 M64.83 223.3 C115.26 162.74, 169.14 100.76, 209.16 57.27 M64.83 223.3 C116.52 163.84, 169.35 102.28, 209.16 57.27 M68.5 225.17 C106.89 178.54, 148.18 131.5, 211.52 60.65 M68.5 225.17 C121.7 165.91, 172.89 107.63, 211.52 60.65 M71.52 227.8 C102.87 190.03, 136.43 151.57, 212.57 65.53 M71.52 227.8 C114.32 176.36, 158.99 126.03, 212.57 65.53 M74.54 230.42 C111.84 185, 149.22 140.65, 214.28 69.67 M74.54 230.42 C103.38 195.62, 134.93 159, 214.28 69.67 M79.52 230.78 C126.23 178.47, 169.55 129.56, 215.33 74.56 M79.52 230.78 C116.56 188.17, 153.95 146.96, 215.33 74.56 M83.86 231.9 C127.95 179.5, 171.83 128.81, 217.04 78.69 M83.86 231.9 C129.95 178.58, 176.68 124.94, 217.04 78.69 M88.84 232.26 C138.5 175.43, 187.69 118.15, 218.09 83.58 M88.84 232.26 C117.23 201.09, 144.26 169.87, 218.09 83.58 M93.17 233.37 C132.64 187.02, 174.45 139.37, 219.79 87.71 M93.17 233.37 C118.67 203.71, 144.09 175.25, 219.79 87.71 M98.16 233.73 C143.46 178.52, 191.64 126.06, 220.84 92.6 M98.16 233.73 C130.21 197.99, 160.59 163.72, 220.84 92.6 M102.49 234.85 C136.49 193.31, 174.46 153.59, 221.89 97.49 M102.49 234.85 C148.85 182.05, 196.06 129.3, 221.89 97.49 M107.48 235.21 C142.29 197.42, 174.12 155.68, 221.63 103.89 M107.48 235.21 C141.27 196.24, 177.06 155.81, 221.63 103.89 M113.12 234.81 C154.86 187.93, 197.66 141.01, 222.03 109.53 M113.12 234.81 C147.36 195.49, 179.21 158.67, 222.03 109.53 M118.76 234.42 C154.03 192, 190.81 150.55, 221.77 115.93 M118.76 234.42 C144 204.78, 170.03 174.28, 221.77 115.93 M125.06 233.27 C153.18 203.63, 180.33 171.98, 222.16 121.57 M125.06 233.27 C157.5 198.77, 187.73 162.46, 222.16 121.57 M130.71 232.87 C165.61 192.93, 198.36 158.42, 221.9 127.97 M130.71 232.87 C161.95 197.69, 192.49 161.65, 221.9 127.97 M137.01 231.72 C166.97 196.92, 198.76 160.74, 222.29 133.61 M137.01 231.72 C169.83 194.35, 200.28 158.21, 222.29 133.61 M143.31 230.57 C161.33 211.49, 179.66 193.42, 222.69 139.25 M143.31 230.57 C160.75 210.75, 177.6 191.3, 222.69 139.25 M148.95 230.18 C175.11 198.48, 204.44 168.91, 219.8 148.67 M148.95 230.18 C177.79 197.89, 203.69 167.44, 219.8 148.67 M153.28 231.29 C179.47 201.28, 202.61 173.93, 216.92 158.09 M153.28 231.29 C171.21 212.06, 188.27 192.11, 216.92 158.09 M164.83 224.11 C183.21 202.98, 199.66 182.41, 214.03 167.5 M164.83 224.11 C176.32 210.66, 189.55 195.58, 214.03 167.5 M177.03 216.17 C189.84 199.01, 202.8 185.26, 211.15 176.92 M177.03 216.17 C187.63 204.35, 196.82 194.03, 211.15 176.92" stroke="#1971c2" stroke-width="0.5" fill="none"></path><path d="M112.44 0.16 C124.61 -1.7, 138.27 2.04, 150.14 6.51 C162.01 10.99, 173.76 18.26, 183.64 27.02 C193.52 35.78, 203.17 47.43, 209.41 59.05 C215.65 70.68, 219.1 83.61, 221.1 96.79 C223.09 109.97, 223.29 124.97, 221.4 138.14 C219.5 151.32, 216.01 164.11, 209.75 175.84 C203.49 187.57, 193.64 199.52, 183.83 208.51 C174.02 217.49, 162.72 225.32, 150.89 229.75 C139.05 234.17, 125.77 235.24, 112.83 235.07 C99.9 234.9, 85.35 233.19, 73.3 228.71 C61.25 224.24, 50.36 216.87, 40.54 208.24 C30.73 199.61, 20.95 188.65, 14.43 176.94 C7.91 165.24, 3.54 151.07, 1.41 138.03 C-0.71 124.99, -0.5 111.69, 1.67 98.68 C3.84 85.68, 8.13 71.97, 14.43 60 C20.73 48.04, 29.74 35.56, 39.46 26.9 C49.17 18.24, 58.96 12.47, 72.74 8.03 C86.51 3.6, 112.37 0.98, 122.12 0.29 C131.88 -0.39, 131.6 1.86, 131.29 3.91 M58.87 14.97 C68.51 7.35, 81.8 3.27, 94.69 1.16 C107.58 -0.95, 123.26 -0.35, 136.2 2.32 C149.14 4.99, 161.7 10.28, 172.34 17.18 C182.98 24.09, 192.18 32.99, 200.04 43.76 C207.9 54.53, 215.62 69.02, 219.51 81.81 C223.41 94.61, 224.02 107.12, 223.41 120.51 C222.79 133.91, 220.54 149.75, 215.84 162.2 C211.14 174.66, 203.87 185.47, 195.21 195.24 C186.54 205.01, 174.97 214.24, 163.84 220.83 C152.72 227.43, 141.02 232.75, 128.45 234.8 C115.88 236.86, 100.82 236.04, 88.42 233.19 C76.01 230.34, 64.99 224.57, 54.02 217.69 C43.05 210.81, 30.64 202.46, 22.62 191.9 C14.59 181.34, 9.63 167.1, 5.88 154.32 C2.12 141.55, -0.21 128.56, 0.09 115.25 C0.39 101.94, 2.89 87.35, 7.68 74.45 C12.47 61.56, 20.22 48.07, 28.84 37.87 C37.47 27.67, 54.39 17.1, 59.44 13.24 C64.5 9.39, 58.31 12.87, 59.17 14.73" stroke="#ffffff" stroke-width="1" fill="none"></path></g><g stroke-linecap="round" transform="translate(404.5065431693247 13.071074944699376) rotate(0 149.77913466265932 205.38645277228488)"><path d="M32 0 C87.26 2.1, 143.91 -1.08, 267.56 0 C291.09 -0.21, 296.9 8.04, 299.56 32 C298.05 144.51, 297.62 254.51, 299.56 378.77 C301.01 400.18, 289.86 409.79, 267.56 410.77 C174.13 413.69, 85.56 409.85, 32 410.77 C10.08 414.2, -0.95 401.02, 0 378.77 C-0.17 271.43, 0.06 164.74, 0 32 C2.88 7.97, 13.07 -2.72, 32 0" stroke="none" stroke-width="0" fill="#0b0e14"></path><path d="M32 0 C91.33 -1.05, 152.36 0.27, 267.56 0 M32 0 C108.08 0.55, 185.11 -0.86, 267.56 0 M267.56 0 C287.96 -1.33, 299.38 12.45, 299.56 32 M267.56 0 C286.76 -0.26, 300.24 11.92, 299.56 32 M299.56 32 C300.54 169.34, 301.76 306.91, 299.56 378.77 M299.56 32 C298.51 112.67, 299.58 193.04, 299.56 378.77 M299.56 378.77 C301.14 399.47, 287.16 409.49, 267.56 410.77 M299.56 378.77 C301.47 401.8, 288.58 412.12, 267.56 410.77 M267.56 410.77 C199.24 411.53, 133.99 411.34, 32 410.77 M267.56 410.77 C181.48 410.63, 94.7 410.4, 32 410.77 M32 410.77 C10.93 408.95, 1.8 400.84, 0 378.77 M32 410.77 C10.27 408.76, 0.25 400.52, 0 378.77 M0 378.77 C1.21 274.47, 2.27 168.44, 0 32 M0 378.77 C-2.39 281.46, -1.7 183.06, 0 32 M0 32 C0.04 12.13, 10.18 0.54, 32 0 M0 32 C0.44 8.55, 11.18 -1.07, 32 0" stroke="#ffffff" stroke-width="1" fill="none"></path></g><g stroke-linecap="round" transform="translate(387.3124367588334 22.491779012351344) rotate(0 20.783113664132884 13.912240806572527)"><path d="M0.13 -0.91 L42.46 0.37 L41.4 26.95 L0.11 28.01" stroke="none" stroke-width="0" fill="#0b0e14"></path><path d="M0 0 C13.28 0.29, 25.15 -0.39, 41.57 0 M0 0 C12.86 -0.61, 25.21 -0.5, 41.57 0 M41.57 0 C41.58 8.39, 42.23 17.17, 41.57 27.82 M41.57 0 C41.32 10.59, 41.29 20.45, 41.57 27.82 M41.57 27.82 C30.18 28.61, 18.34 28.47, 0 27.82 M41.57 27.82 C30.84 28.06, 19.21 27.98, 0 27.82 M0 27.82 C-0.96 19.9, -0.12 11.91, 0 0 M0 27.82 C0.57 17.5, 0.6 7.11, 0 0" stroke="transparent" stroke-width="1" fill="none"></path></g><g stroke-linecap="round" transform="translate(642.7676258793181 367.2268947753796) rotate(0 25.566801041893314 33.559413112495804)"><path d="M1.8 0.73 L50.79 -1.75 L51.35 67.48 L0.05 65.13" stroke="none" stroke-width="0" fill="#0b0e14"></path><path d="M0 0 C12.6 -1.11, 24.35 -0.93, 51.13 0 M0 0 C18.94 -0.22, 38.72 1.35, 51.13 0 M51.13 0 C52.15 15.84, 52.53 25.99, 51.13 67.12 M51.13 0 C50.68 15.91, 50.72 32.84, 51.13 67.12 M51.13 67.12 C38.48 69.18, 26.94 65.86, 0 67.12 M51.13 67.12 C38.94 68.08, 26.84 67.32, 0 67.12 M0 67.12 C0.38 43.82, 2.03 19.39, 0 0 M0 67.12 C0.35 46.7, -0.47 26.18, 0 0" stroke="transparent" stroke-width="1" fill="none"></path></g><g stroke-linecap="round"><g transform="translate(664.3214154633279 450.2186120649144) rotate(0 17.251700279607235 -19.67185323266267)"><path d="M0 0 C10.91 -12.76, 22.54 -24.48, 34.5 -39.34 M0 0 C7.35 -7.76, 14.23 -16.59, 34.5 -39.34" stroke="#ffffff" stroke-width="1" fill="none"></path></g></g><mask></mask><g stroke-linecap="round" transform="translate(375.32703753160786 43.997905263765006) rotate(0 149.77913466265932 205.38645277228488)"><path d="M32 0 C101.96 0.98, 168.64 3.47, 267.56 0 C289.58 0.38, 297.09 12.12, 299.56 32 C302.79 135.54, 300.94 240.33, 299.56 378.77 C302.53 402.41, 287.3 410.19, 267.56 410.77 C174.73 411.14, 79.25 410.51, 32 410.77 C10.41 409.74, 0.48 402.99, 0 378.77 C-1.03 301.2, -1.63 222.41, 0 32 C0.13 7.86, 13.01 -1.2, 32 0" stroke="none" stroke-width="0" fill="#0b0e14"></path><path d="M32 0 C91.82 1.31, 147.48 0.06, 267.56 0 M32 0 C86.17 -1.86, 142.15 -1.31, 267.56 0 M267.56 0 C290.83 1.47, 297.74 9.61, 299.56 32 M267.56 0 C288.35 0.93, 298.88 9.12, 299.56 32 M299.56 32 C298.83 128.28, 298.24 223.15, 299.56 378.77 M299.56 32 C298.13 125.44, 297.5 218.3, 299.56 378.77 M299.56 378.77 C299.22 399.76, 289.74 408.81, 267.56 410.77 M299.56 378.77 C299.45 399.78, 288.52 412.35, 267.56 410.77 M267.56 410.77 C217.73 414.14, 167.69 412.76, 32 410.77 M267.56 410.77 C218.26 410.76, 169.35 411.65, 32 410.77 M32 410.77 C10.72 408.78, -1.02 398.5, 0 378.77 M32 410.77 C11.84 410.79, -0.68 399.69, 0 378.77 M0 378.77 C1.69 246.99, 0.43 114.68, 0 32 M0 378.77 C0.68 248.73, 0.7 119.58, 0 32 M0 32 C-1.32 8.95, 10.96 0.11, 32 0 M0 32 C2 11.97, 10.25 1.41, 32 0" stroke="#ffffff" stroke-width="1" fill="none"></path></g><g stroke-linecap="round" transform="translate(412.2966968599367 190.230991177355) rotate(0 111.8604356697656 117.98982265491213)"><path d="M22.2 47.12 C22.2 47.12, 22.2 47.12, 22.2 47.12 M22.2 47.12 C22.2 47.12, 22.2 47.12, 22.2 47.12 M14.72 61.82 C24.48 48.64, 34.3 38.12, 52.12 18.8 M14.72 61.82 C24.06 50.52, 34.2 38.9, 52.12 18.8 M7.9 75.77 C24.56 54.84, 42.66 36.33, 60.38 15.39 M7.9 75.77 C18.94 62.74, 30.18 48.53, 60.38 15.39 M4.36 85.94 C21.27 65.84, 40.64 44.93, 69.31 11.22 M4.36 85.94 C18.1 69.99, 31.26 55.16, 69.31 11.22 M3.44 93.09 C25.33 65.37, 48.5 37.16, 78.23 7.05 M3.44 93.09 C23.07 71.81, 41.37 51.56, 78.23 7.05 M3.18 99.49 C29.76 68.23, 53.27 39.39, 87.15 2.89 M3.18 99.49 C34.04 64.92, 64.89 29.28, 87.15 2.89 M2.26 106.64 C30.62 74.62, 59.59 43.35, 92.8 2.49 M2.26 106.64 C21 85.63, 39.95 62.81, 92.8 2.49 M1.34 113.79 C38.86 73.37, 76.23 27.51, 98.44 2.1 M1.34 113.79 C39.27 69.88, 77.1 26.36, 98.44 2.1 M1.08 120.19 C25.82 93.06, 50.97 64.68, 103.43 2.46 M1.08 120.19 C27.3 90.63, 53.02 59.97, 103.43 2.46 M0.82 126.59 C33.71 87.02, 71.56 44.45, 109.07 2.06 M0.82 126.59 C39.5 80.36, 79.72 33.51, 109.07 2.06 M1.87 131.48 C28.28 99.49, 55.85 65.76, 114.71 1.67 M1.87 131.48 C39.28 87.82, 77.11 43.26, 114.71 1.67 M2.92 136.37 C25.82 107.51, 50.59 80.18, 120.36 1.27 M2.92 136.37 C40.56 92.99, 78.21 49.38, 120.36 1.27 M3.97 141.26 C43.37 98.79, 79.13 56.05, 125.34 1.63 M3.97 141.26 C49.24 86.86, 94.93 35.33, 125.34 1.63 M5.68 145.39 C45.46 95.75, 86.51 51.46, 129.68 2.75 M5.68 145.39 C37.12 109.96, 65.27 76.16, 129.68 2.75 M6.73 150.28 C34.05 118.13, 63.2 83.01, 133.35 4.62 M6.73 150.28 C40.59 112.63, 72.38 74.88, 133.35 4.62 M7.78 155.17 C54.73 97.61, 105.29 41.21, 137.68 5.73 M7.78 155.17 C47.86 107.87, 91.39 59.04, 137.68 5.73 M8.83 160.05 C38.83 123.72, 67.58 91.45, 142.01 6.85 M8.83 160.05 C41.46 121.01, 75.86 80.48, 142.01 6.85 M9.88 164.94 C52.81 115.87, 96.8 66.73, 145.69 8.72 M9.88 164.94 C54.66 115.6, 98.22 63.83, 145.69 8.72 M12.25 168.32 C63.31 110.73, 113.05 52.67, 150.02 9.83 M12.25 168.32 C42.52 133.49, 71.51 100.79, 150.02 9.83 M14.61 171.7 C52.63 127.23, 94.83 81.01, 154.35 10.95 M14.61 171.7 C67 112.61, 117.44 54.74, 154.35 10.95 M16.97 175.08 C60.65 129.1, 101.5 81.87, 158.02 12.82 M16.97 175.08 C65.96 119.13, 115.62 62.71, 158.02 12.82 M18.68 179.21 C60.22 129.8, 101.54 82.42, 162.35 13.93 M18.68 179.21 C71.42 118.28, 122.96 58.4, 162.35 13.93 M21.04 182.59 C70.87 127.14, 118.71 71.73, 166.03 15.8 M21.04 182.59 C58.23 141.01, 94.55 99.67, 166.03 15.8 M23.4 185.97 C71.93 129.46, 122.06 74.8, 169.05 18.43 M23.4 185.97 C81.66 119.37, 137.25 54.78, 169.05 18.43 M25.77 189.35 C57.93 152.49, 88.55 116.08, 172.72 20.29 M25.77 189.35 C69.15 141.14, 112.95 92.87, 172.72 20.29 M27.47 193.48 C64.37 150.52, 103.31 105.23, 175.74 22.92 M27.47 193.48 C74.47 140.43, 120.25 88.25, 175.74 22.92 M29.84 196.86 C69.94 150.05, 111.08 103.49, 178.76 25.54 M29.84 196.86 C61.74 160.21, 93.55 123.65, 178.76 25.54 M32.2 200.24 C77.3 146.57, 127.04 89.86, 182.44 27.41 M32.2 200.24 C83.27 140.47, 133.6 81.14, 182.44 27.41 M35.22 202.87 C79.16 152.56, 122.36 101.03, 185.45 30.04 M35.22 202.87 C87.13 142.96, 137.92 86.06, 185.45 30.04 M38.89 204.73 C71.02 168.6, 103.37 130.09, 188.47 32.66 M38.89 204.73 C83.8 152.69, 128.7 100.55, 188.47 32.66 M41.91 207.36 C82.19 159.28, 122.31 114.92, 192.15 34.53 M41.91 207.36 C93.2 146.18, 147.87 84.76, 192.15 34.53 M44.93 209.98 C82.12 165.55, 120.41 122.94, 195.17 37.15 M44.93 209.98 C98.37 146.74, 154.42 83.6, 195.17 37.15 M47.95 212.61 C84.17 174.69, 116.74 134.76, 196.87 41.29 M47.95 212.61 C99.14 154.32, 149.21 97.77, 196.87 41.29 M50.97 215.23 C107.14 153.31, 161 89.35, 199.24 44.67 M50.97 215.23 C96.73 163.97, 140.82 113.58, 199.24 44.67 M53.99 217.86 C87.36 182.24, 122.71 141.68, 200.94 48.8 M53.99 217.86 C100.08 165.47, 147.12 110.37, 200.94 48.8 M57.01 220.48 C108 164.47, 156.1 104.87, 203.31 52.18 M57.01 220.48 C87.84 184.24, 119.22 148.29, 203.31 52.18 M60.02 223.1 C109.93 166.67, 155.99 110.88, 205.67 55.56 M60.02 223.1 C109.3 167.58, 156.16 113.95, 205.67 55.56 M63.7 224.97 C114.06 168.42, 159.67 113.59, 207.38 59.69 M63.7 224.97 C97.05 184.7, 131.77 145.83, 207.38 59.69 M68.03 226.09 C102.61 188.08, 136.8 146.51, 209.74 63.07 M68.03 226.09 C118.62 169.49, 167.57 111.33, 209.74 63.07 M72.36 227.2 C127.75 166.31, 179.13 104.55, 212.1 66.45 M72.36 227.2 C106.92 190.65, 138.01 153.7, 212.1 66.45 M76.69 228.32 C117.76 181.79, 161.85 132.51, 213.81 70.58 M76.69 228.32 C125.18 171.43, 174.43 114.36, 213.81 70.58 M81.02 229.43 C122.09 182.79, 161.76 135.01, 215.51 74.72 M81.02 229.43 C116.91 186.89, 152.03 146.1, 215.51 74.72 M84.7 231.3 C117.73 194.89, 148.17 159.45, 216.57 79.61 M84.7 231.3 C122.56 187.06, 162.96 141.7, 216.57 79.61 M89.03 232.42 C138.31 175.93, 184.91 121.51, 217.62 84.49 M89.03 232.42 C137.1 179.19, 183.82 124.84, 217.62 84.49 M93.36 233.53 C123.18 197.79, 150.93 162.89, 218.67 89.38 M93.36 233.53 C128.16 192.68, 164.68 151.35, 218.67 89.38 M97.69 234.65 C131.1 195.33, 162.84 156.56, 219.72 94.27 M97.69 234.65 C137.64 185.74, 178.37 139, 219.72 94.27 M103.33 234.25 C137.66 194.6, 173.65 155.35, 221.42 98.41 M103.33 234.25 C128.8 204.95, 152.7 177.33, 221.42 98.41 M108.32 234.61 C143.83 191.01, 182.26 148.75, 222.47 103.29 M108.32 234.61 C148.45 188, 190.51 139.61, 222.47 103.29 M113.96 234.22 C140.33 203.52, 166.75 170.82, 223.53 108.18 M113.96 234.22 C152.47 191.59, 189.75 148.04, 223.53 108.18 M118.95 234.58 C148.39 202.29, 176.3 172.81, 224.58 113.07 M118.95 234.58 C159.26 186.07, 202.14 139.48, 224.58 113.07 M124.59 234.18 C157.03 195.74, 192.19 156.23, 223.66 120.22 M124.59 234.18 C156.42 195.1, 189.34 158.06, 223.66 120.22 M130.24 233.79 C152.21 207.01, 174.31 181.97, 222.08 128.13 M130.24 233.79 C163.95 195.49, 198.39 156.18, 222.08 128.13 M135.22 234.15 C154.01 211.47, 175.35 189.62, 221.17 135.28 M135.22 234.15 C166.79 196.73, 200.85 157.82, 221.17 135.28 M142.18 232.25 C161.35 208.21, 181.45 184.41, 220.25 142.43 M142.18 232.25 C170.85 197.83, 202.12 162.83, 220.25 142.43 M151.1 228.08 C167.65 208.9, 185.64 187.84, 219.33 149.59 M151.1 228.08 C171.67 203.89, 193.92 179.97, 219.33 149.59 M159.37 224.66 C177.27 204.58, 195.61 182.89, 213.82 162.02 M159.37 224.66 C177.57 203.94, 194.13 185.04, 213.82 162.02 M168.29 220.5 C181.51 208.09, 191.29 191.99, 207.66 175.21 M168.29 220.5 C177.71 208.62, 189.39 196.19, 207.66 175.21" stroke="#1971c2" stroke-width="0.5" fill="none"></path><path d="M86.99 2.24 C98.47 -2.43, 112.16 -0.78, 124.77 1.1 C137.38 2.98, 151.11 7.7, 162.64 13.54 C174.18 19.38, 185.42 26.55, 193.99 36.14 C202.56 45.73, 209.07 58.6, 214.06 71.06 C219.05 83.51, 223.22 97.45, 223.94 110.88 C224.65 124.3, 222.12 138.79, 218.34 151.61 C214.55 164.43, 208.74 176.8, 201.23 187.78 C193.73 198.77, 183.98 209.89, 173.31 217.53 C162.63 225.16, 149.65 230.8, 137.18 233.6 C124.72 236.4, 111.22 235.87, 98.52 234.31 C85.82 232.75, 72.2 230.16, 60.98 224.24 C49.76 218.32, 39.75 208.75, 31.2 198.8 C22.66 188.84, 14.92 176.78, 9.72 164.52 C4.52 152.26, 1.01 138.64, 0.01 125.23 C-0.98 111.82, 0.06 97.05, 3.73 84.06 C7.4 71.08, 14.12 58.26, 22.02 47.34 C29.91 36.41, 39.99 25.81, 51.11 18.49 C62.23 11.18, 81.98 5.64, 88.74 3.44 C95.51 1.23, 91.39 3.46, 91.71 5.25 M62.28 10.78 C72.18 3.44, 87.28 2.43, 100.01 0.96 C112.73 -0.52, 126.42 -1.04, 138.65 1.93 C150.87 4.9, 162.66 11.04, 173.38 18.78 C184.09 26.52, 195.35 37.36, 202.93 48.37 C210.51 59.39, 215.23 72.03, 218.85 84.87 C222.48 97.7, 225.67 111.73, 224.68 125.37 C223.69 139.01, 218.23 154.39, 212.92 166.71 C207.62 179.04, 201.49 189.6, 192.87 199.31 C184.25 209.02, 172.78 218.92, 161.22 224.99 C149.66 231.05, 136.15 234.67, 123.51 235.7 C110.87 236.73, 97.67 234.58, 85.41 231.18 C73.14 227.78, 60.72 222.77, 49.91 215.3 C39.11 207.83, 28.11 197.06, 20.56 186.33 C13.02 175.6, 7.82 163.49, 4.65 150.92 C1.48 138.36, 0.78 124.24, 1.55 110.95 C2.32 97.67, 4.35 83.86, 9.27 71.23 C14.19 58.6, 22.38 44.97, 31.08 35.17 C39.77 25.37, 56.16 16.09, 61.44 12.44 C66.71 8.79, 61.64 11.52, 62.72 13.28" stroke="#ffffff" stroke-width="1" fill="none"></path></g><g stroke-linecap="round" transform="translate(401.4509627421794 72.30658155602441) rotate(0 33.56865894963346 35.408051940039286)"><path d="M12.38 6.79 C12.38 6.79, 12.38 6.79, 12.38 6.79 M12.38 6.79 C12.38 6.79, 12.38 6.79, 12.38 6.79 M1.62 25.26 C7.26 21.86, 9.1 17.43, 19.99 4.13 M1.62 25.26 C7.41 18.65, 11.96 13.26, 19.99 4.13 M3.33 29.39 C11.65 20.92, 18.92 11.67, 26.95 2.23 M3.33 29.39 C12.21 19.59, 22.55 7.71, 26.95 2.23 M3.72 35.04 C12.29 25.66, 19.8 14.45, 33.25 1.08 M3.72 35.04 C11.6 27.04, 18.44 18.03, 33.25 1.08 M4.12 40.68 C12.14 31.97, 18.63 22.12, 36.92 2.95 M4.12 40.68 C17.14 27.68, 28.48 13.65, 36.92 2.95 M2.55 48.59 C13.81 34.87, 26.01 21, 41.25 4.06 M2.55 48.59 C13.63 36.05, 23.67 24.41, 41.25 4.06 M4.91 51.97 C15.97 39.39, 24.99 26.13, 45.58 5.17 M4.91 51.97 C13.18 42.12, 22.59 32.79, 45.58 5.17 M7.27 55.35 C21.5 40.9, 35.51 22.69, 49.91 6.29 M7.27 55.35 C15.89 44.35, 25.41 34.4, 49.91 6.29 M10.29 57.97 C24.87 38.21, 41.54 21.29, 53.59 8.16 M10.29 57.97 C22.49 43.88, 35.2 29.78, 53.59 8.16 M12.65 61.35 C27.95 44.07, 42.55 29.96, 56.61 10.78 M12.65 61.35 C29.13 42.2, 44.44 24.4, 56.61 10.78 M15.02 64.73 C27.64 53.65, 38.4 41.13, 58.97 14.16 M15.02 64.73 C31.97 45.45, 49.01 26.57, 58.97 14.16 M19.35 65.84 C37.34 46.41, 49.71 30.14, 61.99 16.79 M19.35 65.84 C35.3 49.27, 49.02 32.08, 61.99 16.79 M23.68 66.96 C35.64 53.07, 46.29 39.38, 64.35 20.17 M23.68 66.96 C33.28 57.63, 41.14 48.34, 64.35 20.17 M27.35 68.83 C41.51 54.5, 51.97 39.44, 66.72 23.54 M27.35 68.83 C33.99 60.07, 42.15 50.33, 66.72 23.54 M31.68 69.94 C40.93 59.03, 53 48.16, 67.11 29.19 M31.68 69.94 C40.71 59.89, 49.91 47.19, 67.11 29.19 M35.36 71.81 C46.35 62.08, 55.07 47.18, 66.85 35.59 M35.36 71.81 C44.7 61.18, 55.97 48.86, 66.85 35.59 M43.63 68.4 C48.56 62.36, 52.07 57.78, 66.59 41.98 M43.63 68.4 C48.67 62.81, 55.22 56.39, 66.59 41.98 M51.24 65.74 C55.92 61.98, 57.06 56.56, 67.64 46.87 M51.24 65.74 C56.13 59.99, 58.59 56.15, 67.64 46.87" stroke="#96f2d7" stroke-width="0.5" fill="none"></path><path d="M31.96 0.33 C38.12 -0.12, 46.98 3.21, 52.61 6.83 C58.24 10.45, 63.6 15.77, 65.73 22.07 C67.87 28.36, 67.2 37.81, 65.4 44.6 C63.59 51.39, 60.06 58.48, 54.9 62.8 C49.73 67.12, 41.09 70.28, 34.39 70.52 C27.7 70.76, 20.11 67.88, 14.74 64.26 C9.37 60.63, 4.48 55.02, 2.15 48.78 C-0.18 42.53, -0.92 33.76, 0.78 26.77 C2.47 19.78, 6.91 11.17, 12.33 6.85 C17.75 2.53, 29.27 1.87, 33.29 0.83 C37.32 -0.2, 36.29 0.23, 36.48 0.65 M30.59 -0.08 C36.62 -0.71, 45.2 2.49, 50.63 6.09 C56.05 9.7, 60.3 15.38, 63.13 21.56 C65.96 27.74, 68.64 36.52, 67.62 43.19 C66.59 49.85, 62.16 57.19, 57.01 61.54 C51.85 65.9, 43.24 68.52, 36.68 69.31 C30.11 70.11, 23.33 69.87, 17.61 66.3 C11.9 62.73, 5.17 54.35, 2.41 47.91 C-0.36 41.48, -0.51 34.49, 1.03 27.7 C2.56 20.91, 6.79 11.98, 11.6 7.18 C16.41 2.39, 26.58 -0.01, 29.89 -1.07 C33.21 -2.12, 31.38 0.11, 31.48 0.85" stroke="#ffffff" stroke-width="1" fill="none"></path></g><g stroke-linecap="round"><g transform="translate(381.8884470044286 54.21158696501925) rotate(0 16.9044493759518 -17.860758734037745)"><path d="M0 0 C9.58 -9.97, 17.15 -17.8, 33.81 -35.72 M0 0 C11.35 -13.05, 23.67 -25.24, 33.81 -35.72" stroke="#ffffff" stroke-width="1" fill="none"></path></g></g><mask></mask><g stroke-linecap="round" transform="translate(841.7574476439008 119.76584285267018) rotate(0 111.8604356697656 117.9898226549119)"><path d="M33.88 34.75 C33.88 34.75, 33.88 34.75, 33.88 34.75 M33.88 34.75 C33.88 34.75, 33.88 34.75, 33.88 34.75 M11.96 66.05 C23.37 52.27, 34.18 39.94, 50.02 22.28 M11.96 66.05 C23.67 53.72, 34.39 41.82, 50.02 22.28 M9.08 75.47 C28.24 52.06, 45.11 32.1, 64.84 11.32 M9.08 75.47 C27.8 52.76, 47.37 29.33, 64.84 11.32 M7.5 83.37 C25 59.73, 46.69 39.47, 71.8 9.41 M7.5 83.37 C22.94 64.73, 41.38 45.19, 71.8 9.41 M5.27 92.04 C27.02 65.45, 47.66 38.87, 78.75 7.51 M5.27 92.04 C32.86 60.24, 62.36 26.06, 78.75 7.51 M3.7 99.94 C23.95 79.5, 41.68 57.35, 85.71 5.6 M3.7 99.94 C33.89 64.28, 65.25 28.11, 85.71 5.6 M1.47 108.61 C28.22 80.17, 53.31 50.05, 92.66 3.7 M1.47 108.61 C19.33 86.95, 39.53 64.45, 92.66 3.7 M1.87 114.25 C34.8 75.1, 68.7 34.65, 100.28 1.04 M1.87 114.25 C21.84 91.33, 42.47 67.65, 100.28 1.04 M2.26 119.89 C28.75 88.78, 56.42 57.71, 105.26 1.4 M2.26 119.89 C31.51 85.86, 62.94 52.04, 105.26 1.4 M2.66 125.53 C32.93 92.69, 59.68 62.27, 110.25 1.76 M2.66 125.53 C34.53 87.97, 66.18 53.1, 110.25 1.76 M3.05 131.18 C38.25 92.17, 71.87 51.46, 115.24 2.12 M3.05 131.18 C37.6 89.13, 73.56 48.04, 115.24 2.12 M2.79 137.58 C48.73 85.9, 92.77 31.49, 120.22 2.48 M2.79 137.58 C32.74 103.87, 61.04 69.69, 120.22 2.48 M3.18 143.22 C44.26 95.85, 85.18 52.29, 124.55 3.6 M3.18 143.22 C52.02 86.87, 100.62 31.86, 124.55 3.6 M3.58 148.86 C42.38 104.41, 80.17 59.1, 129.54 3.96 M3.58 148.86 C42.34 102.78, 81.38 57.06, 129.54 3.96 M5.28 153 C33.54 122.44, 60.9 91.76, 134.53 4.32 M5.28 153 C42.1 112.44, 76.55 72.71, 134.53 4.32 M6.99 157.13 C57.29 101.27, 107.28 42.04, 139.52 4.68 M6.99 157.13 C47.78 110.03, 89.88 61.07, 139.52 4.68 M8.7 161.26 C59.84 100.02, 113.17 40.76, 143.85 5.79 M8.7 161.26 C49.4 114.13, 89.79 67.31, 143.85 5.79 M10.4 165.4 C56.74 113.03, 102.53 60.32, 147.52 7.66 M10.4 165.4 C57.56 110.44, 106.25 55.61, 147.52 7.66 M12.11 169.53 C49.8 125.07, 88.1 84.12, 151.2 9.53 M12.11 169.53 C51.43 124.86, 90.78 79.62, 151.2 9.53 M14.47 172.91 C51.69 127.63, 90.38 86.42, 154.87 11.4 M14.47 172.91 C56.29 123.93, 98.13 76.13, 154.87 11.4 M16.18 177.04 C53.37 135.92, 88.56 95.74, 158.55 13.27 M16.18 177.04 C44.57 142.02, 74.14 108.5, 158.55 13.27 M17.89 181.18 C55.47 137.08, 96.09 91.61, 162.22 15.14 M17.89 181.18 C59.2 132.78, 102.27 84.25, 162.22 15.14 M19.59 185.31 C65.5 131.86, 109.66 82.18, 165.9 17.01 M19.59 185.31 C70.67 128.81, 120.02 71.95, 165.9 17.01 M21.96 188.69 C81.26 122.16, 141.25 53.99, 169.57 18.88 M21.96 188.69 C64.53 139.64, 106.34 89.09, 169.57 18.88 M24.98 191.31 C80.31 123.15, 140.11 60.37, 173.25 20.75 M24.98 191.31 C73.02 136.7, 120.9 81.37, 173.25 20.75 M27.99 193.94 C68.97 147.38, 110.69 97.96, 176.92 22.62 M27.99 193.94 C65.74 147.69, 105.01 103.54, 176.92 22.62 M31.01 196.56 C90.26 127.8, 149.65 62.55, 179.94 25.24 M31.01 196.56 C70.55 152.47, 108.26 109.08, 179.94 25.24 M33.38 199.94 C79.58 143.25, 128.92 88.24, 182.96 27.87 M33.38 199.94 C65.03 163.71, 95.84 128.67, 182.96 27.87 M36.4 202.56 C72 161.11, 109.19 119.05, 185.32 31.25 M36.4 202.56 C73.62 160.85, 109.64 118.39, 185.32 31.25 M39.41 205.19 C84.05 155.49, 127.12 105, 188.34 33.87 M39.41 205.19 C92.5 144.89, 144.29 84.67, 188.34 33.87 M41.78 208.57 C96.17 142.88, 152.54 79.31, 191.36 36.49 M41.78 208.57 C77.54 168.13, 111.56 127.41, 191.36 36.49 M44.8 211.19 C98.56 146.32, 155.34 83.27, 193.72 39.87 M44.8 211.19 C98.21 151.89, 148.86 93.27, 193.72 39.87 M47.81 213.82 C85.45 169.89, 121.97 129.69, 196.74 42.5 M47.81 213.82 C106.29 148.83, 161.91 84.88, 196.74 42.5 M51.49 215.69 C90.83 169.6, 133.61 120.45, 199.1 45.88 M51.49 215.69 C92.15 170.57, 132.11 124.41, 199.1 45.88 M55.16 217.56 C96.95 169.86, 136.87 122.83, 202.12 48.5 M55.16 217.56 C97.05 172.04, 136.53 125.35, 202.12 48.5 M58.18 220.18 C105.22 167.79, 148.65 113.12, 205.14 51.12 M58.18 220.18 C88.96 184.04, 120.95 148.31, 205.14 51.12 M61.86 222.05 C101.16 179.39, 137.09 133.89, 206.85 55.26 M61.86 222.05 C109.39 167.3, 156.75 112.45, 206.85 55.26 M65.53 223.92 C116.63 165.31, 166.29 104.46, 208.55 59.39 M65.53 223.92 C111.47 171.39, 157.05 119.23, 208.55 59.39 M69.21 225.79 C119.56 167.33, 171.02 108.25, 210.26 63.53 M69.21 225.79 C122.63 164.01, 177.12 102.4, 210.26 63.53 M72.88 227.66 C111.12 182.13, 149.73 136.93, 211.97 67.66 M72.88 227.66 C115.43 177.06, 158.93 125.88, 211.97 67.66 M76.56 229.53 C121.92 179.41, 165.19 126.37, 213.67 71.79 M76.56 229.53 C117.97 181.12, 158.98 135.04, 213.67 71.79 M80.23 231.4 C118.25 184.79, 160.88 139.84, 214.72 76.68 M80.23 231.4 C133.67 170.88, 185.85 109.73, 214.72 76.68 M83.91 233.27 C121.4 189.76, 156.74 146.31, 216.43 80.81 M83.91 233.27 C132.63 179.21, 179.32 123.31, 216.43 80.81 M88.89 233.63 C115.33 201.6, 147.05 168.64, 218.14 84.95 M88.89 233.63 C133.9 180.97, 178.66 129.9, 218.14 84.95 M93.88 233.99 C130.01 190.97, 169.59 147.25, 219.84 89.08 M93.88 233.99 C130.55 192.03, 166.69 151.33, 219.84 89.08 M98.87 234.35 C126.52 203.14, 154.62 170.72, 220.24 94.73 M98.87 234.35 C124.44 204.96, 148.7 176.54, 220.24 94.73 M103.86 234.71 C133.31 199.18, 164.03 165.68, 220.63 100.37 M103.86 234.71 C128.65 206.13, 153.82 177.74, 220.63 100.37 M108.84 235.07 C142.55 198.61, 175.75 159.32, 221.03 106.01 M108.84 235.07 C133.81 205.41, 158 177.81, 221.03 106.01 M113.83 235.43 C135.21 208.44, 158.68 179.61, 222.08 110.9 M113.83 235.43 C147.38 198.2, 179.79 159.57, 222.08 110.9 M118.82 235.79 C149.57 196.8, 184.52 160.44, 222.47 116.54 M118.82 235.79 C146.3 205.35, 172.56 173.54, 222.47 116.54 M124.46 235.39 C160.13 194.34, 199.13 152.21, 222.87 122.19 M124.46 235.39 C157.56 195.21, 191.6 157.51, 222.87 122.19 M131.41 233.49 C153.17 210.68, 173.09 185.86, 223.26 127.83 M131.41 233.49 C150.8 210.18, 172.31 187.73, 223.26 127.83 M138.37 231.58 C162.96 200.09, 192.58 168.91, 221.69 135.74 M138.37 231.58 C167.34 198.68, 196.58 165.78, 221.69 135.74 M145.33 229.68 C167.03 203.02, 189.06 176.54, 220.12 143.64 M145.33 229.68 C162.72 207.98, 180.74 186.58, 220.12 143.64 M152.28 227.78 C168.39 208.86, 184.6 188.85, 217.89 152.31 M152.28 227.78 C176.02 200.53, 199.04 174.5, 217.89 152.31 M159.24 225.87 C180.04 199.07, 201.92 175.37, 216.31 160.21 M159.24 225.87 C175.71 208.25, 191.14 190.64, 216.31 160.21 M174.72 214.16 C186.95 203.14, 196.66 190.46, 214.08 168.87 M174.72 214.16 C183.6 203.77, 191.47 193.35, 214.08 168.87 M190.2 202.44 C191.31 200.37, 192.6 199.54, 194.8 197.16 M190.2 202.44 C191.81 201.22, 193 199.31, 194.8 197.16" stroke="#1971c2" stroke-width="0.5" fill="none"></path><path d="M101.31 0.6 C113.27 -2.36, 128.65 1.22, 141.26 4.78 C153.86 8.34, 166.44 14.31, 176.94 21.97 C187.43 29.63, 197.12 39.67, 204.21 50.74 C211.3 61.8, 216.41 75.35, 219.48 88.37 C222.54 101.38, 223.57 115.43, 222.59 128.83 C221.6 142.22, 218.8 156.63, 213.57 168.76 C208.33 180.89, 200.22 192.12, 191.17 201.6 C182.11 211.08, 170.95 219.91, 159.24 225.66 C147.52 231.41, 133.67 234.92, 120.87 236.11 C108.08 237.3, 94.67 236.49, 82.47 232.79 C70.27 229.09, 58.2 221.8, 47.68 213.92 C37.16 206.04, 26.71 196.39, 19.34 185.51 C11.97 174.62, 6.46 161.45, 3.46 148.6 C0.46 135.74, 0.28 121.62, 1.34 108.37 C2.39 95.12, 4.41 81.32, 9.79 69.1 C15.17 56.88, 24.54 44.66, 33.63 35.03 C42.72 25.4, 52.46 17.01, 64.32 11.33 C76.17 5.64, 97.86 2.32, 104.75 0.93 C111.65 -0.46, 105.73 1, 105.69 3 M153.86 7.55 C165.44 10.13, 175.01 19.86, 184.14 28.82 C193.28 37.77, 202.38 49.34, 208.66 61.29 C214.94 73.24, 219.74 87.43, 221.85 100.54 C223.95 113.66, 223.74 127.04, 221.28 139.99 C218.82 152.93, 213.77 166.32, 207.1 178.2 C200.43 190.07, 191.35 202.44, 181.26 211.24 C171.18 220.04, 158.69 226.98, 146.57 230.99 C134.45 235, 121.11 235.63, 108.55 235.32 C95.99 235.01, 82.85 233.83, 71.22 229.15 C59.6 224.48, 48.27 216.14, 38.78 207.28 C29.29 198.42, 20.5 187.96, 14.27 176.01 C8.05 164.07, 3.22 149.02, 1.41 135.62 C-0.4 122.22, 0.97 108.72, 3.42 95.6 C5.88 82.48, 9.67 68.32, 16.14 56.88 C22.61 45.45, 32.32 35.6, 42.27 26.98 C52.21 18.36, 63.9 9.53, 75.82 5.16 C87.74 0.8, 100.94 0.53, 113.77 0.79 C126.59 1.06, 146.39 5.04, 152.75 6.76 C159.11 8.48, 152.84 9.23, 151.91 11.09" stroke="#ffffff" stroke-width="1" fill="none"></path></g><g stroke-linecap="round" transform="translate(839.256339579611 118.24250839495289) rotate(0 111.8604356697656 117.9898226549119)"><path d="M17.33 54.82 C17.33 54.82, 17.33 54.82, 17.33 54.82 M17.33 54.82 C17.33 54.82, 17.33 54.82, 17.33 54.82 M13.13 65.74 C25.02 51.45, 35.89 37.34, 51.19 21.97 M13.13 65.74 C25.05 52.85, 36.21 40.32, 51.19 21.97 M9.59 75.91 C23.29 59.02, 39.9 43.94, 61.42 16.29 M9.59 75.91 C28.59 53.1, 48.26 31.62, 61.42 16.29 M6.05 86.09 C33.42 57.47, 57.67 27.79, 71.66 10.62 M6.05 86.09 C28.13 62.33, 47.69 38.87, 71.66 10.62 M3.82 94.75 C30.63 60.6, 62.32 30.84, 81.89 4.94 M3.82 94.75 C27.2 67.73, 48.04 42.48, 81.89 4.94 M3.56 101.15 C30.43 69.97, 60.46 38.15, 87.54 4.54 M3.56 101.15 C25.59 75.72, 48.04 50.5, 87.54 4.54 M2.64 108.3 C19.32 88.8, 36.93 67.04, 93.18 4.15 M2.64 108.3 C28.98 78.83, 55.03 49.26, 93.18 4.15 M2.38 114.7 C39.37 70.51, 75.13 27.41, 99.48 3 M2.38 114.7 C31.51 81.35, 59.51 49.55, 99.48 3 M2.12 121.09 C40 78.13, 74.29 39.29, 105.12 2.6 M2.12 121.09 C24.81 97.39, 44.99 71.2, 105.12 2.6 M1.2 128.25 C43.93 80.22, 86.44 29.24, 111.42 1.46 M1.2 128.25 C41 83.86, 79.95 37.79, 111.42 1.46 M0.94 134.64 C41.81 86.5, 81.12 42.25, 117.06 1.06 M0.94 134.64 C41.13 88.94, 81.93 43.82, 117.06 1.06 M2.65 138.78 C46.28 85.68, 91.22 35.74, 121.39 2.18 M2.65 138.78 C31.58 103.42, 63.29 66.92, 121.39 2.18 M3.7 143.67 C40.68 104.14, 78.42 60.28, 125.73 3.29 M3.7 143.67 C50.73 90.33, 97.24 36.42, 125.73 3.29 M5.41 147.8 C46.19 99.68, 88.42 52.6, 130.06 4.41 M5.41 147.8 C54.78 89.88, 103.61 32.88, 130.06 4.41 M6.46 152.69 C42.91 112.15, 76.45 68.7, 135.04 4.77 M6.46 152.69 C38.5 115.51, 72.4 77.77, 135.04 4.77 M7.51 157.58 C37.37 122.07, 68.1 87.7, 139.37 5.88 M7.51 157.58 C36.9 123.56, 67.34 89.98, 139.37 5.88 M9.21 161.71 C57.53 107.48, 103.79 55.55, 143.71 6.99 M9.21 161.71 C50.79 113.29, 93.47 64.41, 143.71 6.99 M10.26 166.6 C39.06 133.28, 67.28 101.28, 148.04 8.11 M10.26 166.6 C64.72 105.44, 116.4 43.98, 148.04 8.11 M11.31 171.49 C60.27 117.68, 106.17 62.49, 152.37 9.22 M11.31 171.49 C58.56 117.17, 104.02 65.38, 152.37 9.22 M13.68 174.87 C69.42 113.95, 122.54 49.14, 156.7 10.34 M13.68 174.87 C67.59 113.22, 120.31 51.55, 156.7 10.34 M16.04 178.24 C51.52 137.71, 85.64 97.75, 159.72 12.96 M16.04 178.24 C59.36 129.25, 103 79.8, 159.72 12.96 M19.06 180.87 C56.67 138.94, 92.51 97.13, 163.39 14.83 M19.06 180.87 C64.89 129.25, 109.7 76.47, 163.39 14.83 M21.42 184.25 C59.1 141.61, 100.13 94.18, 166.41 17.46 M21.42 184.25 C58.91 140.71, 97.01 97.33, 166.41 17.46 M23.78 187.63 C66.47 139.67, 107.18 91.65, 170.09 19.33 M23.78 187.63 C70.43 130.89, 120.07 76.38, 170.09 19.33 M26.15 191.01 C79.81 134.66, 130.48 73.84, 173.1 21.95 M26.15 191.01 C63.28 147.94, 100.15 105.16, 173.1 21.95 M28.51 194.38 C76.19 138.32, 124.62 84.48, 176.78 23.82 M28.51 194.38 C86.64 128.76, 145.26 60.94, 176.78 23.82 M30.87 197.76 C64.19 161.91, 97.5 121, 179.8 26.44 M30.87 197.76 C83.43 136.9, 136.45 76.2, 179.8 26.44 M33.89 200.39 C92.81 134.13, 147.29 68.73, 183.47 28.31 M33.89 200.39 C75.75 152.69, 117.54 103.34, 183.47 28.31 M36.25 203.77 C97.63 133.85, 154.34 67.06, 186.49 30.94 M36.25 203.77 C75.63 156.96, 115.83 111.16, 186.49 30.94 M39.27 206.39 C77.17 162.15, 118.41 115.41, 189.51 33.56 M39.27 206.39 C71.4 168.77, 105.61 131.55, 189.51 33.56 M42.29 209.02 C95.04 149.27, 144.59 90.48, 191.87 36.94 M42.29 209.02 C88.54 153.88, 136.87 100.39, 191.87 36.94 M45.97 210.89 C95.11 156.24, 144.76 98.97, 194.89 39.57 M45.97 210.89 C80.49 170.54, 116.94 127.49, 194.89 39.57 M48.99 213.51 C98.37 158.12, 148.72 100.23, 197.26 42.94 M48.99 213.51 C84.71 172.01, 121.91 128.84, 197.26 42.94 M52 216.13 C100.5 160.54, 145.52 107.32, 199.62 46.32 M52 216.13 C82.89 180.41, 113.19 144.97, 199.62 46.32 M55.68 218 C111.15 153.1, 167.66 87.59, 201.98 49.7 M55.68 218 C90.54 175.99, 127.12 134.31, 201.98 49.7 M58.7 220.63 C108.2 159.45, 159.56 101.69, 204.34 53.08 M58.7 220.63 C89.72 186.68, 120.24 150.49, 204.34 53.08 M61.72 223.25 C104.66 169.97, 151.31 120.75, 206.71 56.46 M61.72 223.25 C105.24 172.37, 150.2 121.4, 206.71 56.46 M65.39 225.12 C111.58 168.69, 161.24 112.24, 209.07 59.84 M65.39 225.12 C117.47 165.84, 169.16 106.99, 209.07 59.84 M68.41 227.75 C109.12 180.84, 152.35 135.13, 211.43 63.22 M68.41 227.75 C104.4 187.27, 139.46 145.64, 211.43 63.22 M72.74 228.86 C117.73 176.06, 163.6 126.33, 213.14 67.35 M72.74 228.86 C127.15 165.12, 182.56 102.42, 213.14 67.35 M77.07 229.97 C112.2 186.79, 150.88 143.89, 214.19 72.24 M77.07 229.97 C122.54 178.82, 167.81 126.72, 214.19 72.24 M81.4 231.09 C132.52 176.18, 181.09 118.63, 215.9 76.37 M81.4 231.09 C116.4 189.53, 152.05 148.45, 215.9 76.37 M85.73 232.2 C136.03 171.39, 190.53 113.4, 216.95 81.26 M85.73 232.2 C114.02 196.97, 144.19 163.17, 216.95 81.26 M90.07 233.32 C127.63 193.53, 161.5 151.29, 218 86.15 M90.07 233.32 C138.98 177.97, 188.38 122.67, 218 86.15 M95.05 233.68 C142.01 181.81, 185.27 129.71, 219.05 91.04 M95.05 233.68 C124.02 201.14, 152.63 167.54, 219.05 91.04 M99.38 234.79 C129.15 200.93, 157.03 164.08, 220.75 95.17 M99.38 234.79 C140.3 187.36, 181.93 140.9, 220.75 95.17 M103.71 235.91 C134.1 202.46, 163.64 165.39, 221.81 100.06 M103.71 235.91 C137.7 197.57, 171.97 157.67, 221.81 100.06 M108.7 236.27 C138.77 201.13, 164.05 169.63, 222.86 104.95 M108.7 236.27 C152.84 185.55, 195.33 136.31, 222.86 104.95 M115 235.12 C151.02 191.6, 188.32 150.99, 222.59 111.35 M115 235.12 C149.16 194.32, 184.41 154.83, 222.59 111.35 M120.64 234.73 C146.15 207.81, 168.17 178.86, 222.33 117.75 M120.64 234.73 C159.62 188.26, 199.43 143.54, 222.33 117.75 M126.94 233.58 C150.2 208.94, 172.16 184.87, 222.07 124.14 M126.94 233.58 C158.03 199.24, 188.11 162.57, 222.07 124.14 M132.59 233.18 C159.72 200.89, 186.33 169.26, 221.81 130.54 M132.59 233.18 C153.03 211.93, 172.46 190.13, 221.81 130.54 M138.23 232.79 C167.74 200.81, 196.3 166.13, 221.55 136.94 M138.23 232.79 C162.78 205.3, 187.76 177.31, 221.55 136.94 M144.53 231.64 C173.29 197.23, 200.15 167.64, 220.63 144.09 M144.53 231.64 C174.52 196.45, 205.2 161.86, 220.63 144.09 M153.45 227.47 C169.12 207.73, 186.23 189.23, 217.75 153.51 M153.45 227.47 C169.31 209.29, 186.45 190.53, 217.75 153.51 M163.69 221.79 C177.84 204.52, 193.08 186.95, 214.2 163.68 M163.69 221.79 C177.3 206.56, 190.42 190.7, 214.2 163.68 M173.92 216.11 C184.84 204.65, 194.54 191.07, 210.01 174.61 M173.92 216.11 C182.19 205.16, 191.76 196.7, 210.01 174.61" stroke="#1971c2" stroke-width="0.5" fill="none"></path><path d="M155.7 10 C167.83 13.34, 179.42 23, 188.82 32.09 C198.21 41.18, 206.49 52.52, 212.09 64.53 C217.69 76.55, 221.06 90.81, 222.41 104.18 C223.77 117.54, 222.93 131.63, 220.22 144.74 C217.52 157.85, 212.94 171.61, 206.18 182.85 C199.42 194.1, 189.86 204.08, 179.66 212.18 C169.46 220.28, 157.33 227.42, 144.99 231.46 C132.65 235.49, 118.43 237.06, 105.6 236.41 C92.78 235.76, 79.66 233, 68.02 227.57 C56.39 222.13, 45.23 213.11, 35.8 203.8 C26.37 194.49, 17.34 183.55, 11.46 171.71 C5.58 159.88, 1.82 146, 0.53 132.79 C-0.76 119.58, 0.93 105.43, 3.71 92.46 C6.48 79.5, 10.27 66.34, 17.17 55 C24.08 43.66, 34.91 32.69, 45.14 24.44 C55.37 16.2, 66.42 9.48, 78.56 5.53 C90.71 1.59, 104.08 -0.52, 118.02 0.79 C131.95 2.1, 153.79 10.2, 162.18 13.4 C170.58 16.6, 169.03 18.27, 168.4 20.01 M163.82 13.85 C174.84 18.42, 185.81 29.65, 194.41 39.89 C203.01 50.13, 210.56 62.96, 215.39 75.3 C220.22 87.64, 223.04 100.74, 223.4 113.94 C223.76 127.13, 221.65 141.35, 217.54 154.48 C213.44 167.61, 206.85 181.82, 198.76 192.72 C190.68 203.62, 179.94 213.19, 169.02 219.9 C158.1 226.61, 145.55 230.34, 133.24 233 C120.94 235.66, 107.54 237.67, 95.18 235.88 C82.82 234.09, 70.22 228.66, 59.11 222.24 C48 215.83, 37.07 207.64, 28.53 197.41 C19.99 187.18, 12.4 173.49, 7.87 160.87 C3.33 148.24, 1.66 135.03, 1.3 121.65 C0.94 108.28, 1.79 93.29, 5.7 80.6 C9.61 67.91, 16.82 56.22, 24.77 45.5 C32.71 34.77, 42.65 23.32, 53.37 16.25 C64.09 9.19, 76.5 5.82, 89.07 3.11 C101.64 0.41, 116.04 -1.98, 128.8 0.03 C141.55 2.05, 159.89 12.65, 165.6 15.2 C171.31 17.74, 164.1 13.88, 163.04 15.29" stroke="#ffffff" stroke-width="1" fill="none"></path></g><g stroke-linecap="round" transform="translate(767.9380555800922 10) rotate(0 149.77913466265932 205.38645277228466)"><path d="M32 0 C81.54 0.35, 138.04 -0.23, 267.56 0 C291.75 0.44, 295.99 9.66, 299.56 32 C302.22 101.59, 302.2 172.48, 299.56 378.77 C297.71 400.29, 289.53 408.42, 267.56 410.77 C189.83 410.13, 119.85 409.88, 32 410.77 C13.15 411.85, 1.28 403.68, 0 378.77 C-3.12 279.35, -0.98 182.66, 0 32 C2.55 9.2, 11.62 -1.68, 32 0" stroke="none" stroke-width="0" fill="#0b0e14"></path><path d="M32 0 C97.2 -1.33, 165.85 -0.31, 267.56 0 M32 0 C124.32 -1.77, 216.71 -2, 267.56 0 M267.56 0 C289.97 0.66, 301.34 11.11, 299.56 32 M267.56 0 C289.28 0.26, 301.24 9, 299.56 32 M299.56 32 C298.58 155.05, 297.43 279.78, 299.56 378.77 M299.56 32 C300.19 123.64, 300.39 216.75, 299.56 378.77 M299.56 378.77 C300.52 399.54, 289.45 412.02, 267.56 410.77 M299.56 378.77 C301.04 398.81, 290.01 409.89, 267.56 410.77 M267.56 410.77 C178.87 413.13, 86.29 409.85, 32 410.77 M267.56 410.77 C204.27 411.05, 141.46 410.2, 32 410.77 M32 410.77 C10.17 409.39, -0.78 401.72, 0 378.77 M32 410.77 C8.81 412.7, -1.27 399.14, 0 378.77 M0 378.77 C-1.3 276.53, -0.69 173.5, 0 32 M0 378.77 C-1.96 281.25, -1.74 184.06, 0 32 M0 32 C-0.16 9.22, 9.9 1.02, 32 0 M0 32 C0.48 8.71, 11.1 1.31, 32 0" stroke="#ffffff" stroke-width="1" fill="none"></path></g><g stroke-linecap="round" transform="translate(750.7439491696009 19.420704067651968) rotate(0 20.783113664132998 13.912240806572527)"><path d="M-0.25 -0.69 L41.18 0.8 L40.76 28.66 L-0.55 27.4" stroke="none" stroke-width="0" fill="#0b0e14"></path><path d="M0 0 C16.22 0.73, 32.47 0.59, 41.57 0 M0 0 C15.87 -0.26, 31.11 0.26, 41.57 0 M41.57 0 C41.71 11.55, 40.87 22.22, 41.57 27.82 M41.57 0 C41.33 6.72, 41.61 14.15, 41.57 27.82 M41.57 27.82 C28.06 28.95, 16.8 28.44, 0 27.82 M41.57 27.82 C30.59 27.67, 19.22 27.76, 0 27.82 M0 27.82 C0.89 18.1, -0.43 5.48, 0 0 M0 27.82 C-0.07 20.54, 0.02 12.6, 0 0" stroke="transparent" stroke-width="1" fill="none"></path></g><g stroke-linecap="round" transform="translate(1006.1991382900856 364.1558198306798) rotate(0 25.566801041893314 33.559413112495804)"><path d="M-0.78 1.61 L49.52 1.68 L50.03 66.28 L-0.08 68.73" stroke="none" stroke-width="0" fill="#0b0e14"></path><path d="M0 0 C17.92 0.87, 33.64 0.44, 51.13 0 M0 0 C13.66 0.69, 27.13 0.58, 51.13 0 M51.13 0 C49.76 22.42, 50.36 44.21, 51.13 67.12 M51.13 0 C50.51 19.73, 50.74 41.07, 51.13 67.12 M51.13 67.12 C34.03 68.58, 12.92 68.18, 0 67.12 M51.13 67.12 C33.08 66.45, 14.9 67.57, 0 67.12 M0 67.12 C-1.32 42.41, -1.32 19.99, 0 0 M0 67.12 C0.07 46.2, 0.01 26.01, 0 0" stroke="transparent" stroke-width="1" fill="none"></path></g><g stroke-linecap="round"><g transform="translate(1027.7529278740953 447.14753712021457) rotate(0 17.25170027960712 -19.67185323266267)"><path d="M0 0 C13.49 -14.48, 25.31 -28.76, 34.5 -39.34 M0 0 C8.26 -8.97, 15.81 -18.06, 34.5 -39.34" stroke="#ffffff" stroke-width="1" fill="none"></path></g></g><mask></mask><g stroke-linecap="round" transform="translate(738.7585499423753 40.92683031906563) rotate(0 149.77913466265932 205.38645277228466)"><path d="M32 0 C102.61 1.35, 180.58 3.8, 267.56 0 C287.62 3.3, 299 8.82, 299.56 32 C300.7 136.44, 299.82 241.4, 299.56 378.77 C299.63 402.35, 288.67 413.26, 267.56 410.77 C189.39 415.94, 109.14 413.14, 32 410.77 C9.98 412.65, 2.8 402.65, 0 378.77 C-2.44 288.86, -0.96 201.24, 0 32 C-2.99 8.96, 12.16 1.57, 32 0" stroke="none" stroke-width="0" fill="#0b0e14"></path><path d="M32 0 C116.68 0.71, 201.64 0.09, 267.56 0 M32 0 C110.63 -0.34, 189.59 -1.05, 267.56 0 M267.56 0 C290.04 -0.85, 301.23 10.65, 299.56 32 M267.56 0 C287.25 -2.03, 299.21 9.87, 299.56 32 M299.56 32 C300.71 140.17, 302.75 246.38, 299.56 378.77 M299.56 32 C300.61 125.88, 300.51 220.24, 299.56 378.77 M299.56 378.77 C301.23 401.59, 289.66 412.77, 267.56 410.77 M299.56 378.77 C301.74 399.35, 286.59 410.02, 267.56 410.77 M267.56 410.77 C217.65 409.69, 165.52 409.6, 32 410.77 M267.56 410.77 C212.48 413.07, 158.3 412.01, 32 410.77 M32 410.77 C10.59 412.39, 0.93 400.92, 0 378.77 M32 410.77 C11.44 412.78, 0.18 399.68, 0 378.77 M0 378.77 C-0.89 245.84, -0.11 112.12, 0 32 M0 378.77 C1.01 299.29, 0.99 221.29, 0 32 M0 32 C-1.61 9.16, 9.68 -1.45, 32 0 M0 32 C-1.07 12.64, 9.15 1.83, 32 0" stroke="#ffffff" stroke-width="1" fill="none"></path></g><g stroke-linecap="round" transform="translate(775.7282092707042 187.15991623265518) rotate(0 111.8604356697656 117.98982265491213)"><path d="M34.22 35.05 C34.22 35.05, 34.22 35.05, 34.22 35.05 M34.22 35.05 C34.22 35.05, 34.22 35.05, 34.22 35.05 M13.62 64.84 C27.47 47.74, 38.83 34.12, 52.98 19.56 M13.62 64.84 C26.72 48.89, 40.51 32.11, 52.98 19.56 M14.67 69.73 C28.25 50.72, 46.03 34.96, 65.84 10.86 M14.67 69.73 C26.78 55.01, 41.82 39.38, 65.84 10.86 M11.78 79.15 C29.83 56.96, 46.71 34.7, 72.8 8.96 M11.78 79.15 C34.63 52.86, 59.32 24.23, 72.8 8.96 M8.9 88.56 C26.5 71.14, 41.63 51.97, 79.75 7.05 M8.9 88.56 C34.93 57.77, 62.02 26.51, 79.75 7.05 M6.67 97.22 C30.19 72.43, 52.01 46.07, 86.71 5.15 M6.67 97.22 C22.23 78.28, 40.06 58.5, 86.71 5.15 M1.82 108.9 C32.5 72.39, 64.15 34.53, 93.66 3.25 M1.82 108.9 C20.4 87.5, 39.7 65.35, 93.66 3.25 M2.21 114.55 C27.53 84.8, 54.03 55.07, 100.62 1.34 M2.21 114.55 C30.15 82.02, 60.22 49.76, 100.62 1.34 M2.6 120.19 C31.65 88.75, 57.22 59.7, 105.61 1.7 M2.6 120.19 C33.15 84.2, 63.46 50.87, 105.61 1.7 M3 125.83 C36.64 88.67, 68.67 49.79, 109.94 2.82 M3 125.83 C35.91 85.73, 70.2 46.56, 109.94 2.82 M3.39 131.48 C47.05 82.48, 88.8 30.7, 114.92 3.18 M3.39 131.48 C31.88 99.48, 58.69 67.02, 114.92 3.18 M3.79 137.12 C43.08 91.75, 82.27 50.19, 119.91 3.54 M3.79 137.12 C50.52 83.22, 97.03 30.61, 119.91 3.54 M4.18 142.76 C41.21 100.43, 77.18 57.22, 124.24 4.65 M4.18 142.76 C41.15 98.86, 78.35 55.27, 124.24 4.65 M3.92 149.16 C31.37 119.55, 57.9 89.82, 129.23 5.01 M3.92 149.16 C39.64 109.82, 73.02 71.32, 129.23 5.01 M5.63 153.29 C54.42 99.38, 102.86 41.75, 134.22 5.37 M5.63 153.29 C45.04 107.75, 85.89 60.16, 134.22 5.37 M7.99 156.67 C57.61 97.16, 109.45 39.63, 139.2 5.73 M7.99 156.67 C47.52 110.91, 86.71 65.47, 139.2 5.73 M9.7 160.81 C55.16 109.42, 100.09 57.71, 144.19 6.09 M9.7 160.81 C55.94 106.91, 103.73 53.11, 144.19 6.09 M11.4 164.94 C48.38 121.27, 86 81.13, 147.87 7.96 M11.4 164.94 C49.99 121.11, 88.61 76.7, 147.87 7.96 M13.11 169.07 C49.82 124.41, 87.98 83.82, 151.54 9.83 M13.11 169.07 C54.34 120.77, 95.61 73.64, 151.54 9.83 M14.82 173.21 C51.52 132.65, 86.21 93.04, 155.21 11.7 M14.82 173.21 C42.81 138.65, 71.97 105.62, 155.21 11.7 M17.18 176.59 C54.05 133.32, 93.97 88.67, 158.89 13.57 M17.18 176.59 C57.73 129.08, 100.03 81.44, 158.89 13.57 M18.89 180.72 C63.97 128.19, 107.31 79.47, 162.56 15.44 M18.89 180.72 C69.07 125.23, 117.54 69.39, 162.56 15.44 M20.59 184.85 C79.11 119.23, 138.32 51.97, 166.24 17.31 M20.59 184.85 C62.6 136.47, 103.83 86.57, 166.24 17.31 M22.96 188.23 C77.53 120.94, 136.58 59.05, 169.26 19.93 M22.96 188.23 C70.37 134.35, 117.61 79.74, 169.26 19.93 M25.98 190.86 C66.38 144.95, 107.56 96.15, 172.93 21.8 M25.98 190.86 C63.22 145.21, 101.97 101.66, 172.93 21.8 M28.34 194.24 C87.59 125.47, 146.98 60.23, 177.26 22.92 M28.34 194.24 C67.88 150.15, 105.59 106.76, 177.26 22.92 M31.36 196.86 C77.14 140.65, 126.08 86.12, 179.63 26.3 M31.36 196.86 C62.73 160.94, 93.27 126.21, 179.63 26.3 M33.72 200.24 C69.33 158.78, 106.51 116.72, 182.65 28.92 M33.72 200.24 C70.95 158.53, 106.97 116.07, 182.65 28.92 M36.74 202.86 C81.37 153.16, 124.45 102.68, 185.66 31.54 M36.74 202.86 C89.83 142.56, 141.62 82.35, 185.66 31.54 M39.76 205.49 C93.67 140.36, 149.56 77.35, 188.03 34.92 M39.76 205.49 C75.21 165.4, 108.93 125.03, 188.03 34.92 M42.12 208.87 C95.88 143.99, 152.67 80.94, 191.05 37.55 M42.12 208.87 C95.54 149.57, 146.19 90.94, 191.05 37.55 M45.14 211.49 C82.61 167.75, 118.98 127.74, 193.41 40.93 M45.14 211.49 C103.36 146.79, 158.74 83.13, 193.41 40.93 M47.5 214.87 C87.21 168.36, 130.34 118.8, 196.43 43.55 M47.5 214.87 C88.51 169.36, 128.83 122.79, 196.43 43.55 M51.18 216.74 C93.15 168.84, 133.25 121.59, 198.79 46.93 M51.18 216.74 C93.25 171.02, 132.91 124.12, 198.79 46.93 M54.85 218.61 C101.89 166.22, 145.31 111.55, 201.81 49.55 M54.85 218.61 C85.63 182.47, 117.62 146.74, 201.81 49.55 M58.53 220.48 C98 177.62, 134.1 131.93, 204.17 52.93 M58.53 220.48 C106.27 165.48, 153.85 110.38, 204.17 52.93 M62.2 222.35 C113.53 163.46, 163.43 102.35, 205.88 57.07 M62.2 222.35 C108.35 169.58, 154.14 117.19, 205.88 57.07 M65.88 224.22 C116.71 165.21, 168.65 105.58, 208.24 60.45 M65.88 224.22 C119.8 161.86, 174.79 99.68, 208.24 60.45 M69.55 226.09 C108.16 180.14, 147.13 134.52, 209.95 64.58 M69.55 226.09 C112.51 175, 156.42 123.36, 209.95 64.58 M73.23 227.96 C119.02 177.34, 162.73 123.81, 211.66 68.71 M73.23 227.96 C115.03 179.1, 156.43 132.56, 211.66 68.71 M76.9 229.83 C115.5 182.54, 158.7 136.91, 213.36 72.85 M76.9 229.83 C131.11 168.43, 184.07 106.39, 213.36 72.85 M80.58 231.7 C118.63 187.55, 154.52 143.49, 215.07 76.98 M80.58 231.7 C130.01 176.82, 177.42 120.1, 215.07 76.98 M84.25 233.57 C111.63 200.61, 143.76 166.8, 216.78 81.11 M84.25 233.57 C130.39 179.7, 176.29 127.27, 216.78 81.11 M89.24 233.93 C126.32 189.76, 166.88 144.91, 218.48 85.25 M89.24 233.93 C126.85 190.89, 163.94 149.1, 218.48 85.25 M94.23 234.29 C122.9 201.87, 152.08 168.21, 220.19 89.38 M94.23 234.29 C120.77 203.8, 145.97 174.3, 220.19 89.38 M98.56 235.4 C129.35 198.3, 161.46 163.2, 220.58 95.02 M98.56 235.4 C124.49 205.52, 150.79 175.83, 220.58 95.02 M103.54 235.76 C138.78 197.59, 173.49 156.55, 220.98 100.67 M103.54 235.76 C129.63 204.76, 154.96 175.86, 220.98 100.67 M108.53 236.12 C130.86 207.97, 155.32 178, 221.37 106.31 M108.53 236.12 C143.49 197.27, 177.31 157.03, 221.37 106.31 M112.86 237.24 C145.22 196.37, 181.84 158.09, 221.77 111.95 M112.86 237.24 C141.73 205.22, 169.33 171.87, 221.77 111.95 M117.85 237.6 C156.01 193.78, 197.45 148.83, 222.82 116.84 M117.85 237.6 C153.15 194.79, 189.46 154.5, 222.82 116.84 M122.18 238.71 C146.07 213.51, 168.07 186.31, 223.21 122.49 M122.18 238.71 C143.59 213.12, 167.14 188.33, 223.21 122.49 M129.13 236.81 C157.05 201.31, 190.11 166.17, 222.95 128.88 M129.13 236.81 C161.87 199.71, 194.76 162.6, 222.95 128.88 M136.09 234.9 C160.59 204.84, 185.51 175.03, 220.72 137.54 M136.09 234.9 C155.84 210.32, 176.27 186.15, 220.72 137.54 M143.05 233 C161.58 211.31, 180.24 188.48, 218.49 146.21 M143.05 233 C170.37 201.81, 196.86 171.78, 218.49 146.21 M150 231.09 C174.1 200.58, 199.21 173.16, 215.61 155.62 M150 231.09 C168.87 210.81, 186.63 190.53, 215.61 155.62 M159.58 226.17 C175.81 210.48, 189.58 193.14, 213.38 164.29 M159.58 226.17 C171.58 212.17, 182.66 198.05, 213.38 164.29 M175.72 213.7 C186.38 198.84, 197.83 187.54, 213.77 169.93 M175.72 213.7 C187.52 201.94, 197.94 188.4, 213.77 169.93" stroke="#1971c2" stroke-width="0.5" fill="none"></path><path d="M141.91 4.44 C154.01 6.04, 166.65 14.75, 176.88 22.62 C187.1 30.49, 196.14 40.58, 203.28 51.67 C210.42 62.77, 216.39 76.4, 219.71 89.21 C223.03 102.02, 224.49 115.29, 223.2 128.51 C221.91 141.74, 217.51 156.29, 211.97 168.57 C206.43 180.85, 198.76 192.6, 189.97 202.18 C181.18 211.75, 170.88 220.27, 159.22 226.01 C147.56 231.74, 132.73 235.57, 120.01 236.6 C107.29 237.63, 95.12 235.89, 82.89 232.19 C70.67 228.48, 57.1 222.15, 46.68 214.37 C36.25 206.59, 27.61 196.57, 20.34 185.53 C13.06 174.48, 6.39 161.08, 3.02 148.09 C-0.35 135.1, -1.31 121, 0.13 107.59 C1.56 94.18, 5.9 79.77, 11.61 67.64 C17.32 55.52, 25.49 44.5, 34.4 34.84 C43.31 25.17, 53.7 15.54, 65.08 9.66 C76.46 3.77, 89.21 0.25, 102.69 -0.49 C116.17 -1.23, 138.13 3.62, 145.97 5.23 C153.81 6.84, 150.41 7.27, 149.72 9.17 M72.78 8.23 C83.55 1.85, 98.5 -0.67, 111.44 -0.63 C124.39 -0.59, 138.23 3.62, 150.45 8.48 C162.67 13.33, 174.95 19.79, 184.78 28.49 C194.61 37.19, 203.21 49.15, 209.44 60.68 C215.68 72.21, 219.91 84.5, 222.21 97.65 C224.5 110.8, 225.51 126.27, 223.21 139.58 C220.92 152.89, 214.98 165.82, 208.42 177.5 C201.85 189.19, 193.64 201.28, 183.84 209.69 C174.04 218.09, 161.77 223.42, 149.61 227.93 C137.45 232.44, 123.55 236.82, 110.87 236.74 C98.19 236.66, 85.35 232.07, 73.53 227.44 C61.7 222.81, 49.92 217.61, 39.93 208.95 C29.93 200.29, 20.08 187.47, 13.57 175.48 C7.07 163.48, 2.97 149.82, 0.88 136.96 C-1.2 124.11, -1.15 111.21, 1.07 98.36 C3.29 85.5, 7.64 71.89, 14.2 59.81 C20.77 47.72, 30.56 34.89, 40.46 25.84 C50.35 16.79, 67.83 8.17, 73.57 5.51 C79.32 2.86, 73.99 7.92, 74.92 9.93" stroke="#ffffff" stroke-width="1" fill="none"></path></g><g stroke-linecap="round" transform="translate(764.8824751529469 69.23550661132504) rotate(0 33.56865894963357 35.408051940039286)"><path d="M10.13 11.45 C10.13 11.45, 10.13 11.45, 10.13 11.45 M10.13 11.45 C10.13 11.45, 10.13 11.45, 10.13 11.45 M1.99 26.91 C5.6 23.67, 9.63 18.46, 21.68 4.27 M1.99 26.91 C7.39 20.01, 15 13.75, 21.68 4.27 M1.73 33.31 C7.54 25.26, 16.04 15.66, 28.63 2.36 M1.73 33.31 C9.49 23.56, 19.62 13.65, 28.63 2.36 M2.78 38.2 C16.04 24.71, 26.51 9.95, 33.62 2.72 M2.78 38.2 C11.69 29.47, 18.56 19.76, 33.62 2.72 M3.83 43.08 C12.81 35.05, 19.68 22.26, 37.95 3.84 M3.83 43.08 C15.82 29.94, 26.12 17.01, 37.95 3.84 M4.89 47.97 C20.44 31.99, 34.67 12.82, 42.94 4.2 M4.89 47.97 C14.18 37.88, 21.66 29.14, 42.94 4.2 M5.28 53.62 C21.01 35.95, 38.76 18.51, 47.92 4.56 M5.28 53.62 C17.35 39.56, 27.68 26.76, 47.92 4.56 M8.3 56.24 C19.74 41.73, 30.42 32.54, 50.94 7.18 M8.3 56.24 C18.47 44.77, 27.11 33.77, 50.94 7.18 M11.32 58.86 C23.29 46.38, 34.66 31.21, 53.96 9.81 M11.32 58.86 C22.37 45.89, 33.89 32.58, 53.96 9.81 M13.68 62.24 C26.04 49.5, 38.66 33.94, 56.32 13.19 M13.68 62.24 C31.34 42.2, 47.09 23.81, 56.32 13.19 M16.7 64.87 C31.58 47.82, 51.07 27.08, 59.34 15.81 M16.7 64.87 C30.48 49.45, 44.89 32.08, 59.34 15.81 M19.06 68.25 C36.28 49.91, 54.13 30.13, 62.36 18.43 M19.06 68.25 C36.32 49.74, 51.73 29.94, 62.36 18.43 M24.05 68.61 C36.07 56.49, 48.02 43.2, 64.72 21.81 M24.05 68.61 C35.12 56.52, 45.77 45.2, 64.72 21.81 M29.04 68.97 C36.41 58.48, 46.7 47.05, 65.78 26.7 M29.04 68.97 C40.47 55.61, 52.9 41.21, 65.78 26.7 M33.37 70.08 C46.08 57.61, 56.84 44.63, 66.83 31.59 M33.37 70.08 C43.58 59.97, 52.94 48.32, 66.83 31.59 M38.35 70.44 C48.14 59.71, 58.29 49.96, 67.88 36.48 M38.35 70.44 C48.99 56.95, 61.78 43.56, 67.88 36.48 M42.03 72.31 C50.71 61.59, 58.23 55.43, 68.27 42.12 M42.03 72.31 C50.04 62.64, 56.49 55, 68.27 42.12" stroke="#96f2d7" stroke-width="0.5" fill="none"></path><path d="M48.13 4.18 C53.8 6.65, 59.29 12.97, 62.34 19.08 C65.39 25.19, 67.16 34.19, 66.43 40.85 C65.69 47.52, 62.52 54.19, 57.92 59.06 C53.31 63.93, 45.34 68.67, 38.81 70.07 C32.29 71.47, 24.42 70.3, 18.78 67.45 C13.14 64.61, 8.18 58.94, 4.98 52.99 C1.78 47.05, -1.26 38.69, -0.41 31.78 C0.44 24.87, 5.48 16.67, 10.07 11.52 C14.67 6.37, 19.82 1.53, 27.16 0.87 C34.5 0.21, 49.12 5.64, 54.12 7.56 C59.13 9.48, 57.7 11.88, 57.2 12.38 M47.17 1.92 C52.81 3.54, 57.2 9.85, 60.31 15.77 C63.41 21.69, 66.02 30.36, 65.79 37.44 C65.57 44.53, 62.98 53.09, 58.98 58.28 C54.98 63.47, 48.15 67.08, 41.82 68.59 C35.49 70.11, 27.2 69.51, 21.02 67.37 C14.84 65.23, 8.44 61.21, 4.75 55.76 C1.05 50.31, -1.49 41.88, -1.16 34.65 C-0.82 27.41, 2.4 17.75, 6.75 12.37 C11.11 6.99, 18.36 3.93, 24.97 2.37 C31.59 0.82, 42.94 2.68, 46.45 3.02 C49.95 3.35, 46.31 3.98, 46.01 4.38" stroke="#ffffff" stroke-width="1" fill="none"></path></g><g stroke-linecap="round"><g transform="translate(745.3199594151961 51.140512020319875) rotate(0 16.9044493759518 -17.860758734037745)"><path d="M0 0 C12.13 -12.63, 23.99 -24.71, 33.81 -35.72 M0 0 C8.01 -8.06, 14.92 -16.62, 33.81 -35.72" stroke="#ffffff" stroke-width="1" fill="none"></path></g></g><mask></mask></svg>