<?xml version="1.0" standalone="no"?>
<!DOCTYPE svg PUBLIC "-//W3C//DTD SVG 1.1//EN" "http://www.w3.org/Graphics/SVG/1.1/DTD/svg11.dtd">
<svg version="1.1" xmlns="http://www.w3.org/2000/svg" viewBox="0 0 685.8228962566122 204.64158884301287" width="2057.4686887698367" height="613.9247665290386"><!-- svg-source:excalidraw --><metadata></metadata><defs><style class="style-fonts">
      </style></defs><g stroke-linecap="round" transform="translate(10 10) rotate(0 332.9114481283061 92.32079442150643)"><path d="M32 0 C214.24 -5.18, 393.06 -3.15, 633.82 0 C654.4 1.06, 660.52 13.3, 665.82 32 C672.64 68.69, 670.96 103.4, 665.82 152.64 C660.55 172.72, 654.7 186.65, 633.82 184.64 C464.74 189.36, 293.15 192.16, 32 184.64 C13.17 179.18, 4.25 172.6, 0 152.64 C1.47 130.83, -0.42 107.18, 0 32 C-3.65 14.07, 6.43 0.76, 32 0" stroke="none" stroke-width="0" fill="#0b0a0a"></path><path d="M32 0 C162.04 -0.52, 292.1 0.52, 633.82 0 M32 0 C166.37 3.29, 299.36 2.88, 633.82 0 M633.82 0 C653.98 -1.44, 663.67 10.23, 665.82 32 M633.82 0 C656.45 -2.67, 666.78 14.34, 665.82 32 M665.82 32 C667.73 81.98, 663.62 129.68, 665.82 152.64 M665.82 32 C665.88 69.69, 669.23 108.8, 665.82 152.64 M665.82 152.64 C669.66 172.01, 657 188.45, 633.82 184.64 M665.82 152.64 C662.26 174.02, 654.45 182.14, 633.82 184.64 M633.82 184.64 C509.71 180.62, 387.51 179.42, 32 184.64 M633.82 184.64 C510.93 182.53, 386.97 182.65, 32 184.64 M32 184.64 C9.59 182.87, -0.91 176.28, 0 152.64 M32 184.64 C14.33 185.93, -2.57 174.66, 0 152.64 M0 152.64 C5.18 104.86, 4.57 60.02, 0 32 M0 152.64 C1.17 118.78, -1.62 87.15, 0 32 M0 32 C-1.44 14.24, 11.42 -2.21, 32 0 M0 32 C-2.5 10.64, 8.93 -3.61, 32 0" stroke="#ffffff" stroke-width="2" fill="none"></path></g><g stroke-linecap="round" transform="translate(44.29745627611646 49.337334476731485) rotate(0 49.27237168001136 54.48698900150339)"><path d="M5.9 6.46 C5.9 6.46, 5.9 6.46, 5.9 6.46 M5.9 6.46 C5.9 6.46, 5.9 6.46, 5.9 6.46 M0.13 25.29 C3.09 21.56, 13.19 14.96, 21.78 0.38 M0.13 25.29 C2.36 18.81, 9.83 14.91, 21.78 0.38 M0.26 37.33 C9.8 25.62, 21.13 10.22, 32.41 0.35 M0.26 37.33 C7.29 29.15, 14.63 23.52, 32.41 0.35 M0.4 49.37 C13.44 41.29, 17.46 27.84, 43.04 0.31 M0.4 49.37 C10.97 39.87, 17.57 28.78, 43.04 0.31 M-0.13 62.17 C16.78 47.94, 27.23 29.95, 53.67 0.28 M-0.13 62.17 C20.4 37.51, 41.65 12.56, 53.67 0.28 M0.01 74.21 C18.92 48.14, 39.06 28.77, 64.3 0.25 M0.01 74.21 C24.07 46.56, 46.34 19.55, 64.3 0.25 M0.8 85.49 C16.05 66.49, 30.86 52.48, 74.93 0.21 M0.8 85.49 C25.44 57.38, 50.89 27.37, 74.93 0.21 M2.9 95.27 C31.52 67.33, 55.45 38.98, 84.25 1.69 M2.9 95.27 C33.03 62.18, 65.01 27.2, 84.25 1.69 M6.97 102.78 C39.12 61.95, 68.92 27.02, 91.6 5.42 M6.97 102.78 C36.66 71.02, 65.64 35.82, 91.6 5.42 M13.66 107.28 C32.63 84.07, 58.44 58, 96.32 12.18 M13.66 107.28 C34.55 85.1, 56.08 57.87, 96.32 12.18 M22.98 108.75 C41.99 85.47, 61.89 62.7, 98.43 21.96 M22.98 108.75 C44.38 81.93, 66.61 56.55, 98.43 21.96 M33.61 108.72 C51.41 88.25, 75.58 59.12, 98.56 34 M33.61 108.72 C48.86 91.83, 62.91 78.14, 98.56 34 M44.24 108.68 C58.92 84.92, 83.42 69.98, 98.69 46.04 M44.24 108.68 C61.59 87.06, 76.1 71.21, 98.69 46.04 M54.87 108.65 C64.26 96.69, 77.74 82.64, 98.82 58.08 M54.87 108.65 C68.85 95, 82.37 80.04, 98.82 58.08 M64.84 109.37 C72.35 99.85, 80.27 87.03, 98.96 70.12 M64.84 109.37 C73.9 95.18, 86.2 82.37, 98.96 70.12 M76.13 108.58 C83.92 99.56, 87.32 91.56, 98.43 82.92 M76.13 108.58 C84.84 100.14, 91.15 92.27, 98.43 82.92 M89.38 105.52 C90.25 103.7, 93.31 100.58, 96.6 97.22 M89.38 105.52 C92.87 101.65, 93.87 100.44, 96.6 97.22 M9.26 105.19 C9.26 105.19, 9.26 105.19, 9.26 105.19 M9.26 105.19 C9.26 105.19, 9.26 105.19, 9.26 105.19 M25.07 108.34 C16.77 104.83, 10.69 99.29, 0.92 87.35 M25.07 108.34 C18.15 101.01, 11.56 97.6, 0.92 87.35 M37.11 108.21 C23.9 96.05, 17.88 93.72, 0.13 76.06 M37.11 108.21 C25.14 98.96, 15.76 89.43, 0.13 76.06 M49.91 108.73 C27.99 91.4, 17.2 75.24, 0.1 65.43 M49.91 108.73 C33.31 94.02, 16.89 78.22, 0.1 65.43 M61.95 108.6 C41.51 90.53, 24.17 69.98, 0.06 54.8 M61.95 108.6 C39.96 86.49, 12.29 64.87, 0.06 54.8 M73.99 108.46 C55.85 92.21, 39.61 83.09, 0.78 44.83 M73.99 108.46 C52.57 89.42, 30.84 72.91, 0.78 44.83 M83.77 106.36 C58.91 87.87, 37.82 63.59, 0.75 34.2 M83.77 106.36 C57.11 82.24, 34.78 60.87, 0.75 34.2 M92.04 102.95 C72.76 90.89, 58.23 67.53, 0.72 23.57 M92.04 102.95 C68.17 82.56, 47.66 64.24, 0.72 23.57 M95.77 95.6 C68.66 73.95, 46.64 54.33, 2.19 14.25 M95.77 95.6 C69.67 73.66, 41.89 48.8, 2.19 14.25 M98 86.94 C72.95 63.35, 54.34 46.18, 5.93 6.9 M98 86.94 C58.24 53.16, 23.86 20.58, 5.93 6.9 M98.72 76.96 C79.22 59.18, 63.91 48.92, 12.69 2.17 M98.72 76.96 C63.16 48.21, 30.78 16.8, 12.69 2.17 M98.69 66.33 C69.2 47.66, 46.1 20.86, 22.46 0.07 M98.69 66.33 C78.4 49.32, 61.06 31, 22.46 0.07 M98.66 55.7 C84.25 38.57, 68.61 27.59, 34.5 -0.06 M98.66 55.7 C85.26 43.38, 67.69 29.41, 34.5 -0.06 M98.62 45.07 C91 33.55, 75.83 23.53, 46.55 -0.2 M98.62 45.07 C83.39 32.04, 63.94 16.93, 46.55 -0.2 M99.34 35.1 C88.21 21.36, 72.76 13.28, 58.59 -0.33 M99.34 35.1 C88.49 27.21, 79.62 18.49, 58.59 -0.33 M99.31 24.47 C87.63 17.71, 82.16 10.75, 71.38 0.19 M99.31 24.47 C91.22 18.17, 83.6 10.02, 71.38 0.19 M96.25 11.21 C95.44 7.91, 91.53 6.99, 84.93 1.37 M96.25 11.21 C92.1 7.12, 88.83 5.23, 84.93 1.37" stroke="#1971c2" stroke-width="1" fill="none"></path><path d="M24.64 0 C39.84 -3.96, 50.14 -1.59, 73.91 0 M24.64 0 C38.21 -1.05, 51.07 1.7, 73.91 0 M73.91 0 C94.03 -3.16, 95.56 12.02, 98.54 24.64 M73.91 0 C93.37 -0.34, 102 8.86, 98.54 24.64 M98.54 24.64 C98.4 50.24, 100.85 73.48, 98.54 84.34 M98.54 24.64 C97.55 39.63, 98.79 53.5, 98.54 84.34 M98.54 84.34 C94.76 101.49, 87.2 107.71, 73.91 108.97 M98.54 84.34 C97.83 103.37, 86.16 104.58, 73.91 108.97 M73.91 108.97 C65.61 105.93, 55.13 108.15, 24.64 108.97 M73.91 108.97 C62.9 110.1, 47.59 109.84, 24.64 108.97 M24.64 108.97 C12.13 106.07, 3.34 104.19, 0 84.34 M24.64 108.97 C8.48 112.21, 3.93 99.54, 0 84.34 M0 84.34 C-2.29 63.11, 0.45 46.35, 0 24.64 M0 84.34 C-1.31 61.08, -0.98 36.27, 0 24.64 M0 24.64 C0.04 11.84, 10.56 1.87, 24.64 0 M0 24.64 C-2.51 5.51, 9.87 -0.62, 24.64 0" stroke="#ffffff" stroke-width="2" fill="none"></path></g><g stroke-linecap="round" transform="translate(527.7490343106278 67.03476072316334) rotate(0 34.34680624438374 37.98181395099573)"><path d="M6.98 2.1 C6.98 2.1, 6.98 2.1, 6.98 2.1 M6.98 2.1 C6.98 2.1, 6.98 2.1, 6.98 2.1 M0.56 21.68 C4.02 18.37, 7.93 14.18, 18.93 0.55 M0.56 21.68 C5.78 18.01, 9.52 13.11, 18.93 0.55 M0.69 33.73 C9.59 22.06, 19.26 13.68, 29.56 0.52 M0.69 33.73 C11.91 20.36, 21.78 11.42, 29.56 0.52 M0.82 45.77 C9.32 29.03, 29.37 17.65, 40.19 0.48 M0.82 45.77 C14.28 29.8, 27.88 16.71, 40.19 0.48 M0.3 58.56 C16.91 37.14, 35.66 16.68, 50.82 0.45 M0.3 58.56 C17.87 40.04, 29.91 24.51, 50.82 0.45 M2.4 68.34 C21.37 46.15, 45.04 18.25, 59.48 2.68 M2.4 68.34 C15.18 55.2, 27.45 36.2, 59.48 2.68 M9.1 72.83 C31.38 49.58, 57.53 17.67, 66.17 7.17 M9.1 72.83 C27.79 52.35, 46.72 29.72, 66.17 7.17 M17.1 75.82 C32.23 54.26, 48.99 40.71, 68.93 16.19 M17.1 75.82 C32.43 57.01, 50.07 39.01, 68.93 16.19 M27.73 75.78 C37.79 63.6, 51.6 56.52, 69.06 28.24 M27.73 75.78 C40.23 62.05, 48.91 51.12, 69.06 28.24 M38.36 75.75 C44.82 64.64, 57.26 57.25, 69.2 40.28 M38.36 75.75 C47.56 67.01, 56.51 55.54, 69.2 40.28 M48.99 75.71 C51.41 70.96, 55.94 66.83, 69.33 52.32 M48.99 75.71 C58.25 66.09, 62.05 60.92, 69.33 52.32 M60.28 74.92 C64.32 74.44, 64.15 70.57, 67.49 66.62 M60.28 74.92 C61.53 72.64, 64.8 69.91, 67.49 66.62 M2.22 69.09 C2.22 69.09, 2.22 69.09, 2.22 69.09 M2.22 69.09 C2.22 69.09, 2.22 69.09, 2.22 69.09 M17.28 71.58 C9.75 65.26, 7.82 62.7, 1.43 57.8 M17.28 71.58 C11.43 68.94, 7.72 61.2, 1.43 57.8 M29.32 71.44 C24.21 65.99, 11.61 55.99, 1.4 47.17 M29.32 71.44 C23.34 67.42, 15.45 57.82, 1.4 47.17 M41.36 71.31 C31.18 61.81, 18.58 53.59, 1.36 36.54 M41.36 71.31 C26.28 57.13, 15.1 45.23, 1.36 36.54 M54.91 72.49 C39.89 66.88, 36.25 55.86, 1.33 25.91 M54.91 72.49 C39.6 61.14, 29.63 48.75, 1.33 25.91 M64.69 70.39 C47.36 51.75, 27.1 41.71, 1.29 15.28 M64.69 70.39 C45.85 51.69, 23.2 30.98, 1.29 15.28 M69.94 64.35 C53.55 52.77, 44.18 39.07, 5.03 7.93 M69.94 64.35 C50.36 46.94, 28.29 31.13, 5.03 7.93 M71.41 55.03 C53.86 39.38, 33.17 19.99, 8.77 0.58 M71.41 55.03 C52.2 35.79, 28.35 18.58, 8.77 0.58 M71.38 44.4 C59.18 30.41, 42.45 18.7, 18.55 -1.52 M71.38 44.4 C51.02 27.78, 30.07 9.7, 18.55 -1.52 M72.1 34.43 C53.45 22.3, 42.71 5.65, 30.59 -1.65 M72.1 34.43 C61.42 27.01, 51.68 17.53, 30.59 -1.65 M72.06 23.8 C60.78 15.98, 51.9 11.58, 43.38 -1.13 M72.06 23.8 C65.31 16.98, 54.66 8.25, 43.38 -1.13 M72.03 13.17 C70.73 8.23, 60.35 3.95, 56.18 -0.61 M72.03 13.17 C69.07 8.66, 62.13 6.49, 56.18 -0.61" stroke="#0c8599" stroke-width="1" fill="none"></path><path d="M17.17 0 C33.36 -0.36, 47.29 -1.03, 51.52 0 M17.17 0 C27.35 0.86, 39.88 0.87, 51.52 0 M51.52 0 C59.99 1.44, 65.16 6.34, 68.69 17.17 M51.52 0 C60.19 -1.22, 64.79 5.95, 68.69 17.17 M68.69 17.17 C66.78 29.96, 67.24 44.49, 68.69 58.79 M68.69 17.17 C70.89 28.18, 70.75 36.44, 68.69 58.79 M68.69 58.79 C70.75 67.26, 60.01 74.27, 51.52 75.96 M68.69 58.79 C66.81 74.17, 64.18 74.04, 51.52 75.96 M51.52 75.96 C41.29 75.9, 24.6 73.35, 17.17 75.96 M51.52 75.96 C40.04 77.92, 29.77 77.09, 17.17 75.96 M17.17 75.96 C4.22 78.18, -3.01 69.66, 0 58.79 M17.17 75.96 C9.65 75.03, -2.73 69.89, 0 58.79 M0 58.79 C2.91 42.57, 2.28 36.9, 0 17.17 M0 58.79 C-0.92 47.42, -0.11 33.56, 0 17.17 M0 17.17 C3.57 2.1, 7.58 0, 17.17 0 M0 17.17 C-3.91 6.86, 8.6 -0.33, 17.17 0" stroke="#ffffff" stroke-width="2" fill="none"></path></g><g stroke-linecap="round" transform="translate(651.2615291175673 148.4127252494336) rotate(270 3.2098479279902676 9.973886059816323)"><path d="M1.6 0 C2.74 0, 3.87 0, 4.81 0 C5.88 0, 6.42 0.53, 6.42 1.6 C6.42 5.76, 6.42 9.92, 6.42 18.34 C6.42 19.41, 5.88 19.95, 4.81 19.95 C3.84 19.95, 2.86 19.95, 1.6 19.95 C0.53 19.95, 0 19.41, 0 18.34 C0 14.34, 0 10.35, 0 1.6 C0 0.53, 0.53 0, 1.6 0" stroke="none" stroke-width="0" fill="#ffc105"></path><path d="M1.6 0 C2.56 0, 3.51 0, 4.81 0 M1.6 0 C2.63 0, 3.65 0, 4.81 0 M4.81 0 C5.88 0, 6.42 0.53, 6.42 1.6 M4.81 0 C5.88 0, 6.42 0.53, 6.42 1.6 M6.42 1.6 C6.42 4.96, 6.42 8.31, 6.42 18.34 M6.42 1.6 C6.42 6.86, 6.42 12.12, 6.42 18.34 M6.42 18.34 C6.42 19.41, 5.88 19.95, 4.81 19.95 M6.42 18.34 C6.42 19.41, 5.88 19.95, 4.81 19.95 M4.81 19.95 C3.72 19.95, 2.63 19.95, 1.6 19.95 M4.81 19.95 C3.55 19.95, 2.28 19.95, 1.6 19.95 M1.6 19.95 C0.53 19.95, 0 19.41, 0 18.34 M1.6 19.95 C0.53 19.95, 0 19.41, 0 18.34 M0 18.34 C0 14.97, 0 11.61, 0 1.6 M0 18.34 C0 12.46, 0 6.58, 0 1.6 M0 1.6 C0 0.53, 0.53 0, 1.6 0 M0 1.6 C0 0.53, 0.53 0, 1.6 0" stroke="#ffc105" stroke-width="4" fill="none"></path></g><g stroke-linecap="round" transform="translate(651.0067025370881 132.41247867850052) rotate(270 3.2098479279902676 9.973886059816323)"><path d="M1.6 0 C2.87 0, 4.13 0, 4.81 0 C5.88 0, 6.42 0.53, 6.42 1.6 C6.42 7.75, 6.42 13.9, 6.42 18.34 C6.42 19.41, 5.88 19.95, 4.81 19.95 C4.14 19.95, 3.46 19.95, 1.6 19.95 C0.53 19.95, 0 19.41, 0 18.34 C0 13.55, 0 8.75, 0 1.6 C0 0.53, 0.53 0, 1.6 0" stroke="none" stroke-width="0" fill="#ffc105"></path><path d="M1.6 0 C2.49 0, 3.37 0, 4.81 0 M1.6 0 C2.35 0, 3.1 0, 4.81 0 M4.81 0 C5.88 0, 6.42 0.53, 6.42 1.6 M4.81 0 C5.88 0, 6.42 0.53, 6.42 1.6 M6.42 1.6 C6.42 6.26, 6.42 10.92, 6.42 18.34 M6.42 1.6 C6.42 7.28, 6.42 12.95, 6.42 18.34 M6.42 18.34 C6.42 19.41, 5.88 19.95, 4.81 19.95 M6.42 18.34 C6.42 19.41, 5.88 19.95, 4.81 19.95 M4.81 19.95 C3.66 19.95, 2.51 19.95, 1.6 19.95 M4.81 19.95 C4.16 19.95, 3.52 19.95, 1.6 19.95 M1.6 19.95 C0.53 19.95, 0 19.41, 0 18.34 M1.6 19.95 C0.53 19.95, 0 19.41, 0 18.34 M0 18.34 C0 13.85, 0 9.36, 0 1.6 M0 18.34 C0 13.8, 0 9.27, 0 1.6 M0 1.6 C0 0.53, 0.53 0, 1.6 0 M0 1.6 C0 0.53, 0.53 0, 1.6 0" stroke="#ffc105" stroke-width="4" fill="none"></path></g><g stroke-linecap="round" transform="translate(651.1885952348969 116.62417177781754) rotate(270 3.2098479279902676 9.973886059816323)"><path d="M1.6 0 C2.71 0, 3.81 0, 4.81 0 C5.88 0, 6.42 0.53, 6.42 1.6 C6.42 8.18, 6.42 14.76, 6.42 18.34 C6.42 19.41, 5.88 19.95, 4.81 19.95 C4.06 19.95, 3.3 19.95, 1.6 19.95 C0.53 19.95, 0 19.41, 0 18.34 C0 12.28, 0 6.21, 0 1.6 C0 0.53, 0.53 0, 1.6 0" stroke="none" stroke-width="0" fill="#ffc105"></path><path d="M1.6 0 C2.7 0, 3.8 0, 4.81 0 M1.6 0 C2.28 0, 2.95 0, 4.81 0 M4.81 0 C5.88 0, 6.42 0.53, 6.42 1.6 M4.81 0 C5.88 0, 6.42 0.53, 6.42 1.6 M6.42 1.6 C6.42 7.44, 6.42 13.28, 6.42 18.34 M6.42 1.6 C6.42 7.66, 6.42 13.72, 6.42 18.34 M6.42 18.34 C6.42 19.41, 5.88 19.95, 4.81 19.95 M6.42 18.34 C6.42 19.41, 5.88 19.95, 4.81 19.95 M4.81 19.95 C3.93 19.95, 3.05 19.95, 1.6 19.95 M4.81 19.95 C3.79 19.95, 2.77 19.95, 1.6 19.95 M1.6 19.95 C0.53 19.95, 0 19.41, 0 18.34 M1.6 19.95 C0.53 19.95, 0 19.41, 0 18.34 M0 18.34 C0 11.84, 0 5.34, 0 1.6 M0 18.34 C0 12.76, 0 7.17, 0 1.6 M0 1.6 C0 0.53, 0.53 0, 1.6 0 M0 1.6 C0 0.53, 0.53 0, 1.6 0" stroke="#ffc105" stroke-width="4" fill="none"></path></g><g stroke-linecap="round" transform="translate(651.02050202237 92.3166160652936) rotate(270 3.2098479279902676 9.973886059816323)"><path d="M1.6 0 C2.81 0, 4.02 0, 4.81 0 C5.88 0, 6.42 0.53, 6.42 1.6 C6.42 5.71, 6.42 9.82, 6.42 18.34 C6.42 19.41, 5.88 19.95, 4.81 19.95 C3.67 19.95, 2.52 19.95, 1.6 19.95 C0.53 19.95, 0 19.41, 0 18.34 C0 14.88, 0 11.42, 0 1.6 C0 0.53, 0.53 0, 1.6 0" stroke="none" stroke-width="0" fill="#ffc105"></path><path d="M1.6 0 C2.73 0, 3.86 0, 4.81 0 M1.6 0 C2.3 0, 2.99 0, 4.81 0 M4.81 0 C5.88 0, 6.42 0.53, 6.42 1.6 M4.81 0 C5.88 0, 6.42 0.53, 6.42 1.6 M6.42 1.6 C6.42 6.1, 6.42 10.6, 6.42 18.34 M6.42 1.6 C6.42 6.14, 6.42 10.67, 6.42 18.34 M6.42 18.34 C6.42 19.41, 5.88 19.95, 4.81 19.95 M6.42 18.34 C6.42 19.41, 5.88 19.95, 4.81 19.95 M4.81 19.95 C3.85 19.95, 2.89 19.95, 1.6 19.95 M4.81 19.95 C4.17 19.95, 3.53 19.95, 1.6 19.95 M1.6 19.95 C0.53 19.95, 0 19.41, 0 18.34 M1.6 19.95 C0.53 19.95, 0 19.41, 0 18.34 M0 18.34 C0 13.69, 0 9.04, 0 1.6 M0 18.34 C0 14.72, 0 11.09, 0 1.6 M0 1.6 C0 0.53, 0.53 0, 1.6 0 M0 1.6 C0 0.53, 0.53 0, 1.6 0" stroke="#ffc105" stroke-width="4" fill="none"></path></g><g stroke-linecap="round" transform="translate(650.9438111191114 76.73541917988314) rotate(270 3.2098479279902676 9.973886059816323)"><path d="M1.6 0 C2.49 0, 3.38 0, 4.81 0 C5.88 0, 6.42 0.53, 6.42 1.6 C6.42 6.72, 6.42 11.84, 6.42 18.34 C6.42 19.41, 5.88 19.95, 4.81 19.95 C4.12 19.95, 3.43 19.95, 1.6 19.95 C0.53 19.95, 0 19.41, 0 18.34 C0 12.14, 0 5.94, 0 1.6 C0 0.53, 0.53 0, 1.6 0" stroke="none" stroke-width="0" fill="#ffc105"></path><path d="M1.6 0 C2.79 0, 3.98 0, 4.81 0 M1.6 0 C2.81 0, 4.02 0, 4.81 0 M4.81 0 C5.88 0, 6.42 0.53, 6.42 1.6 M4.81 0 C5.88 0, 6.42 0.53, 6.42 1.6 M6.42 1.6 C6.42 7.63, 6.42 13.65, 6.42 18.34 M6.42 1.6 C6.42 6.02, 6.42 10.43, 6.42 18.34 M6.42 18.34 C6.42 19.41, 5.88 19.95, 4.81 19.95 M6.42 18.34 C6.42 19.41, 5.88 19.95, 4.81 19.95 M4.81 19.95 C3.66 19.95, 2.51 19.95, 1.6 19.95 M4.81 19.95 C3.64 19.95, 2.46 19.95, 1.6 19.95 M1.6 19.95 C0.53 19.95, 0 19.41, 0 18.34 M1.6 19.95 C0.53 19.95, 0 19.41, 0 18.34 M0 18.34 C0 14.69, 0 11.04, 0 1.6 M0 18.34 C0 14.85, 0 11.36, 0 1.6 M0 1.6 C0 0.53, 0.53 0, 1.6 0 M0 1.6 C0 0.53, 0.53 0, 1.6 0" stroke="#ffc105" stroke-width="4" fill="none"></path></g><g stroke-linecap="round" transform="translate(650.7508579180451 60.73517260894914) rotate(270 3.2098479279902676 9.973886059816323)"><path d="M1.6 0 C2.87 0, 4.14 0, 4.81 0 C5.88 0, 6.42 0.53, 6.42 1.6 C6.42 6.05, 6.42 10.5, 6.42 18.34 C6.42 19.41, 5.88 19.95, 4.81 19.95 C3.97 19.95, 3.12 19.95, 1.6 19.95 C0.53 19.95, 0 19.41, 0 18.34 C0 13.89, 0 9.43, 0 1.6 C0 0.53, 0.53 0, 1.6 0" stroke="none" stroke-width="0" fill="#ffc105"></path><path d="M1.6 0 C2.34 0, 3.07 0, 4.81 0 M1.6 0 C2.35 0, 3.1 0, 4.81 0 M4.81 0 C5.88 0, 6.42 0.53, 6.42 1.6 M4.81 0 C5.88 0, 6.42 0.53, 6.42 1.6 M6.42 1.6 C6.42 7.59, 6.42 13.57, 6.42 18.34 M6.42 1.6 C6.42 6.61, 6.42 11.61, 6.42 18.34 M6.42 18.34 C6.42 19.41, 5.88 19.95, 4.81 19.95 M6.42 18.34 C6.42 19.41, 5.88 19.95, 4.81 19.95 M4.81 19.95 C4.03 19.95, 3.25 19.95, 1.6 19.95 M4.81 19.95 C4.02 19.95, 3.22 19.95, 1.6 19.95 M1.6 19.95 C0.53 19.95, 0 19.41, 0 18.34 M1.6 19.95 C0.53 19.95, 0 19.41, 0 18.34 M0 18.34 C0 14.94, 0 11.53, 0 1.6 M0 18.34 C0 14, 0 9.66, 0 1.6 M0 1.6 C0 0.53, 0.53 0, 1.6 0 M0 1.6 C0 0.53, 0.53 0, 1.6 0" stroke="#ffc105" stroke-width="4" fill="none"></path></g><g stroke-linecap="round" transform="translate(650.9327506158529 44.94686570826525) rotate(270 3.2098479279902676 9.973886059816323)"><path d="M1.6 0 C2.87 0, 4.13 0, 4.81 0 C5.88 0, 6.42 0.53, 6.42 1.6 C6.42 7.93, 6.42 14.26, 6.42 18.34 C6.42 19.41, 5.88 19.95, 4.81 19.95 C3.79 19.95, 2.76 19.95, 1.6 19.95 C0.53 19.95, 0 19.41, 0 18.34 C0 14.71, 0 11.08, 0 1.6 C0 0.53, 0.53 0, 1.6 0" stroke="none" stroke-width="0" fill="#ffc105"></path><path d="M1.6 0 C2.47 0, 3.33 0, 4.81 0 M1.6 0 C2.84 0, 4.07 0, 4.81 0 M4.81 0 C5.88 0, 6.42 0.53, 6.42 1.6 M4.81 0 C5.88 0, 6.42 0.53, 6.42 1.6 M6.42 1.6 C6.42 7.65, 6.42 13.7, 6.42 18.34 M6.42 1.6 C6.42 7.42, 6.42 13.23, 6.42 18.34 M6.42 18.34 C6.42 19.41, 5.88 19.95, 4.81 19.95 M6.42 18.34 C6.42 19.41, 5.88 19.95, 4.81 19.95 M4.81 19.95 C3.67 19.95, 2.52 19.95, 1.6 19.95 M4.81 19.95 C4.06 19.95, 3.31 19.95, 1.6 19.95 M1.6 19.95 C0.53 19.95, 0 19.41, 0 18.34 M1.6 19.95 C0.53 19.95, 0 19.41, 0 18.34 M0 18.34 C0 13.44, 0 8.53, 0 1.6 M0 18.34 C0 14.5, 0 10.67, 0 1.6 M0 1.6 C0 0.53, 0.53 0, 1.6 0 M0 1.6 C0 0.53, 0.53 0, 1.6 0" stroke="#ffc105" stroke-width="4" fill="none"></path></g><g stroke-linecap="round" transform="translate(650.7397974147846 28.946619137332164) rotate(270 3.2098479279902676 9.973886059816323)"><path d="M1.6 0 C2.89 0, 4.17 0, 4.81 0 C5.88 0, 6.42 0.53, 6.42 1.6 C6.42 6.74, 6.42 11.87, 6.42 18.34 C6.42 19.41, 5.88 19.95, 4.81 19.95 C3.79 19.95, 2.77 19.95, 1.6 19.95 C0.53 19.95, 0 19.41, 0 18.34 C0 13.21, 0 8.08, 0 1.6 C0 0.53, 0.53 0, 1.6 0" stroke="none" stroke-width="0" fill="#ffc105"></path><path d="M1.6 0 C2.58 0, 3.56 0, 4.81 0 M1.6 0 C2.7 0, 3.79 0, 4.81 0 M4.81 0 C5.88 0, 6.42 0.53, 6.42 1.6 M4.81 0 C5.88 0, 6.42 0.53, 6.42 1.6 M6.42 1.6 C6.42 8.05, 6.42 14.49, 6.42 18.34 M6.42 1.6 C6.42 5.61, 6.42 9.62, 6.42 18.34 M6.42 18.34 C6.42 19.41, 5.88 19.95, 4.81 19.95 M6.42 18.34 C6.42 19.41, 5.88 19.95, 4.81 19.95 M4.81 19.95 C3.95 19.95, 3.09 19.95, 1.6 19.95 M4.81 19.95 C3.77 19.95, 2.73 19.95, 1.6 19.95 M1.6 19.95 C0.53 19.95, 0 19.41, 0 18.34 M1.6 19.95 C0.53 19.95, 0 19.41, 0 18.34 M0 18.34 C0 12.32, 0 6.29, 0 1.6 M0 18.34 C0 12.65, 0 6.95, 0 1.6 M0 1.6 C0 0.53, 0.53 0, 1.6 0 M0 1.6 C0 0.53, 0.53 0, 1.6 0" stroke="#ffc105" stroke-width="4" fill="none"></path></g><g stroke-linecap="round" transform="translate(161.35739072972774 49.91228738139671) rotate(0 49.27237168001136 54.48698900150339)"><path d="M5.9 6.46 C5.9 6.46, 5.9 6.46, 5.9 6.46 M5.9 6.46 C5.9 6.46, 5.9 6.46, 5.9 6.46 M0.13 25.29 C6.06 22.72, 12.06 13.93, 21.78 0.38 M0.13 25.29 C9.18 14.77, 14.07 7.92, 21.78 0.38 M0.26 37.33 C9.61 29.02, 16.04 24.49, 32.41 0.35 M0.26 37.33 C8.93 27.94, 20.99 14.32, 32.41 0.35 M0.4 49.37 C12.17 39.95, 18.65 25.59, 43.04 0.31 M0.4 49.37 C13.24 37.43, 22.59 25.94, 43.04 0.31 M-0.13 62.17 C9.71 48.07, 20.89 29.6, 53.67 0.28 M-0.13 62.17 C12.34 48.92, 26.75 34.28, 53.67 0.28 M0.01 74.21 C16.8 53.93, 37.5 29.61, 64.3 0.25 M0.01 74.21 C26.52 47.87, 47.62 21.03, 64.3 0.25 M0.8 85.49 C22.2 62.4, 42.65 39.05, 74.93 0.21 M0.8 85.49 C26.06 59.54, 46.15 31.4, 74.93 0.21 M2.9 95.27 C19.92 68.42, 38.72 53.76, 84.25 1.69 M2.9 95.27 C33.12 59.46, 67.23 22.64, 84.25 1.69 M6.97 102.78 C30.74 74.62, 56.11 41.71, 91.6 5.42 M6.97 102.78 C31.19 73.37, 58.27 43.31, 91.6 5.42 M13.66 107.28 C38.12 84.88, 58.4 62.35, 96.32 12.18 M13.66 107.28 C43.7 67.12, 78.33 31.67, 96.32 12.18 M22.98 108.75 C51.76 75.94, 83.32 46.4, 98.43 21.96 M22.98 108.75 C40.51 89.18, 56.38 69.4, 98.43 21.96 M33.61 108.72 C48.95 93.58, 62.08 75.55, 98.56 34 M33.61 108.72 C52.07 89.14, 67.1 71.73, 98.56 34 M44.24 108.68 C59.69 90.39, 75.3 78.96, 98.69 46.04 M44.24 108.68 C64.46 85.23, 85.8 61, 98.69 46.04 M54.87 108.65 C69.8 93.18, 79.9 76.22, 98.82 58.08 M54.87 108.65 C63.13 95.94, 75.71 88.18, 98.82 58.08 M64.84 109.37 C73.94 94.04, 87.56 83.23, 98.96 70.12 M64.84 109.37 C73.56 98, 85.24 86.5, 98.96 70.12 M76.13 108.58 C83.21 101.61, 93.05 94.33, 98.43 82.92 M76.13 108.58 C80.27 102.72, 87.44 96.89, 98.43 82.92 M89.38 105.52 C90.33 104.29, 94.86 100.07, 96.6 97.22 M89.38 105.52 C91.75 103.54, 94.41 100.1, 96.6 97.22 M9.26 105.19 C9.26 105.19, 9.26 105.19, 9.26 105.19 M9.26 105.19 C9.26 105.19, 9.26 105.19, 9.26 105.19 M25.07 108.34 C17.72 98.19, 9.67 98.23, 0.92 87.35 M25.07 108.34 C18.72 102.59, 11.94 96.66, 0.92 87.35 M37.11 108.21 C32.38 102.12, 23.22 94.13, 0.13 76.06 M37.11 108.21 C25.72 100.03, 20.12 92.89, 0.13 76.06 M49.91 108.73 C33.58 94.54, 10.96 73.71, 0.1 65.43 M49.91 108.73 C31.86 92.45, 15.5 77.96, 0.1 65.43 M61.95 108.6 C45.64 97.8, 32.21 84.27, 0.06 54.8 M61.95 108.6 C43.93 93.55, 23.35 76.47, 0.06 54.8 M73.99 108.46 C56.1 96.21, 38.22 73.76, 0.78 44.83 M73.99 108.46 C48.16 83.77, 21.3 62.89, 0.78 44.83 M83.77 106.36 C49.64 81.21, 21.35 50.32, 0.75 34.2 M83.77 106.36 C65.29 90.16, 50.12 75.18, 0.75 34.2 M92.04 102.95 C63.13 79, 31.92 48.56, 0.72 23.57 M92.04 102.95 C57.64 70, 18.54 39.71, 0.72 23.57 M95.77 95.6 C77.82 78.11, 57.14 63.7, 2.19 14.25 M95.77 95.6 C63.92 65.66, 32.41 41.61, 2.19 14.25 M98 86.94 C66.43 62.9, 34.97 31.14, 5.93 6.9 M98 86.94 C70.76 61.94, 42.26 37.17, 5.93 6.9 M98.72 76.96 C76.75 60.05, 59.95 43.17, 12.69 2.17 M98.72 76.96 C71.37 56.75, 47.9 33.16, 12.69 2.17 M98.69 66.33 C70.32 46.16, 42.74 20.91, 22.46 0.07 M98.69 66.33 C82.46 54.14, 67.81 39.3, 22.46 0.07 M98.66 55.7 C78.93 33.61, 55.51 21.33, 34.5 -0.06 M98.66 55.7 C80.13 41.91, 64.49 25.92, 34.5 -0.06 M98.62 45.07 C82.33 33.72, 74.53 19.02, 46.55 -0.2 M98.62 45.07 C85.67 33.27, 71.88 21.63, 46.55 -0.2 M99.34 35.1 C81.61 20.04, 72.68 9.91, 58.59 -0.33 M99.34 35.1 C87.17 23.03, 75.05 13.76, 58.59 -0.33 M99.31 24.47 C93.35 19.39, 79.33 4.66, 71.38 0.19 M99.31 24.47 C87.92 18.03, 81.49 8.94, 71.38 0.19 M96.25 11.21 C95.29 10.38, 92.75 5.32, 84.93 1.37 M96.25 11.21 C93.76 7.31, 89.54 6.13, 84.93 1.37" stroke="#1971c2" stroke-width="1" fill="none"></path><path d="M24.64 0 C43.13 3.75, 61.92 -1.47, 73.91 0 M24.64 0 C39.41 -0.29, 52.29 -0.07, 73.91 0 M73.91 0 C86.52 -2.47, 96.8 10.65, 98.54 24.64 M73.91 0 C92.15 3.78, 98.13 11.22, 98.54 24.64 M98.54 24.64 C99.49 39.81, 101.14 53.93, 98.54 84.34 M98.54 24.64 C101.02 49.42, 98.83 71.8, 98.54 84.34 M98.54 84.34 C100.09 102.17, 93.68 109.33, 73.91 108.97 M98.54 84.34 C94.89 103.27, 88.32 108.5, 73.91 108.97 M73.91 108.97 C53.13 106.97, 35.63 110, 24.64 108.97 M73.91 108.97 C61.15 109.11, 50.55 108.28, 24.64 108.97 M24.64 108.97 C4.92 110.85, 1.46 98.19, 0 84.34 M24.64 108.97 C9.63 105.34, -3.3 97.34, 0 84.34 M0 84.34 C1.78 67.63, 1.45 49.92, 0 24.64 M0 84.34 C-0.54 61.44, -0.21 39.42, 0 24.64 M0 24.64 C2.64 10.75, 10.1 -2.07, 24.64 0 M0 24.64 C2.8 10.79, 8.45 -1.63, 24.64 0" stroke="#ffffff" stroke-width="2" fill="none"></path></g><g stroke-linecap="round" transform="translate(278.3494353211322 49.3872303746939) rotate(0 49.27237168001136 54.48698900150339)"><path d="M5.9 6.46 C5.9 6.46, 5.9 6.46, 5.9 6.46 M5.9 6.46 C5.9 6.46, 5.9 6.46, 5.9 6.46 M0.13 25.29 C4.34 19.68, 15.96 14.16, 21.78 0.38 M0.13 25.29 C5.56 18.99, 10.41 13.7, 21.78 0.38 M0.26 37.33 C12.7 21.18, 23.57 6.74, 32.41 0.35 M0.26 37.33 C5.52 31.21, 15.63 22.22, 32.41 0.35 M0.4 49.37 C11.12 34.58, 26.12 23.13, 43.04 0.31 M0.4 49.37 C10.82 37.9, 21.4 26.1, 43.04 0.31 M-0.13 62.17 C14.7 48.35, 29.94 26.3, 53.67 0.28 M-0.13 62.17 C11.68 49.83, 23.64 35.39, 53.67 0.28 M0.01 74.21 C17.68 58.33, 30.91 33.95, 64.3 0.25 M0.01 74.21 C13.45 60.09, 24.82 42.11, 64.3 0.25 M0.8 85.49 C32.88 56.17, 61.77 23.49, 74.93 0.21 M0.8 85.49 C26.53 57.97, 50 32.22, 74.93 0.21 M2.9 95.27 C26.85 63.63, 50.25 42.03, 84.25 1.69 M2.9 95.27 C31.27 65.45, 57.86 36.55, 84.25 1.69 M6.97 102.78 C28.06 80.56, 44.51 58.83, 91.6 5.42 M6.97 102.78 C25.62 78.63, 50.41 55.19, 91.6 5.42 M13.66 107.28 C47.38 72.81, 74.25 32.63, 96.32 12.18 M13.66 107.28 C44.14 72.98, 75.6 39.79, 96.32 12.18 M22.98 108.75 C41.86 87.73, 63.08 65.88, 98.43 21.96 M22.98 108.75 C45.84 82.89, 66.11 56.01, 98.43 21.96 M33.61 108.72 C53.62 91.25, 73.52 65.78, 98.56 34 M33.61 108.72 C59.14 79.72, 83.54 54.72, 98.56 34 M44.24 108.68 C61.47 89.77, 84.67 62.44, 98.69 46.04 M44.24 108.68 C54.35 94.81, 67.71 81.81, 98.69 46.04 M54.87 108.65 C73.28 92.41, 89.93 72.16, 98.82 58.08 M54.87 108.65 C73.95 87.45, 88.53 68.59, 98.82 58.08 M64.84 109.37 C75.38 99.73, 82.88 94.61, 98.96 70.12 M64.84 109.37 C77.19 94.14, 89.45 84.52, 98.96 70.12 M76.13 108.58 C83.3 102.9, 91.36 89.94, 98.43 82.92 M76.13 108.58 C84.39 101.08, 91.77 93.37, 98.43 82.92 M89.38 105.52 C89.01 103.52, 91.18 101.11, 96.6 97.22 M89.38 105.52 C90.88 103.78, 93.87 100.37, 96.6 97.22 M9.26 105.19 C9.26 105.19, 9.26 105.19, 9.26 105.19 M9.26 105.19 C9.26 105.19, 9.26 105.19, 9.26 105.19 M21.3 105.06 C14.01 101.5, 15.33 96.99, 8.47 93.91 M21.3 105.06 C16.99 101.51, 11.81 96.93, 8.47 93.91 M34.1 105.58 C25.72 100.99, 14.92 89.26, 3.91 79.34 M34.1 105.58 C27.76 98.15, 21.22 95.9, 3.91 79.34 M46.14 105.45 C30.11 96.05, 19.27 81.54, 3.87 68.71 M46.14 105.45 C30.07 93.62, 16.57 80.03, 3.87 68.71 M58.18 105.32 C50.08 93.36, 31.36 87.12, 4.59 58.74 M58.18 105.32 C39.27 88.46, 18.15 67.98, 4.59 58.74 M73.99 108.46 C59.37 95.94, 37.72 76.71, 4.56 48.11 M73.99 108.46 C53.25 91.5, 36.12 77.07, 4.56 48.11 M83.77 106.36 C55.17 79.65, 30.2 57.12, 4.52 37.48 M83.77 106.36 C65.72 89.64, 51.57 76.79, 4.52 37.48 M91.28 102.29 C68.37 83.67, 49.69 60.01, 4.49 26.85 M91.28 102.29 C69.11 80.59, 46.92 60.65, 4.49 26.85 M97.28 96.91 C69.18 78.77, 44.86 50.61, 3.7 15.56 M97.28 96.91 C65.1 69.23, 29.47 41.28, 3.7 15.56 M99.51 88.25 C76.69 63.81, 45.2 45.18, 6.68 7.55 M99.51 88.25 C77.39 69.5, 54.45 49.33, 6.68 7.55 M102.5 80.24 C76.02 58.19, 49.95 35.13, 11.18 0.86 M102.5 80.24 C79.66 61.44, 61.46 41.3, 11.18 0.86 M102.46 69.61 C81.24 48.31, 56.83 30.4, 17.94 -3.87 M102.46 69.61 C74.52 43.44, 44.91 19.91, 17.94 -3.87 M102.43 58.98 C79.23 40.36, 66.24 24.19, 29.22 -4.66 M102.43 58.98 C82.9 41.44, 63.52 23.88, 29.22 -4.66 M102.39 48.35 C87.94 37.19, 74.73 23, 41.26 -4.79 M102.39 48.35 C86.7 35.51, 71.04 21.04, 41.26 -4.79 M102.36 37.72 C87.83 28.05, 76.03 10.31, 53.3 -4.92 M102.36 37.72 C91.61 27.43, 80 21.21, 53.3 -4.92 M99.31 24.47 C91.25 16.03, 81.02 11.81, 66.1 -4.4 M99.31 24.47 C90.87 15.59, 80.06 8.69, 66.1 -4.4 M96.25 11.21 C92.99 7, 87.26 1.95, 81.16 -1.91 M96.25 11.21 C92.95 6.6, 89.8 5.77, 81.16 -1.91" stroke="#1971c2" stroke-width="1" fill="none"></path><path d="M24.64 0 C40.8 -0.77, 49.46 -0.42, 73.91 0 M24.64 0 C36 1.39, 47.5 1.23, 73.91 0 M73.91 0 C94.19 3.14, 97.41 11.95, 98.54 24.64 M73.91 0 C89.92 -0.76, 100.89 7.69, 98.54 24.64 M98.54 24.64 C98.51 44.25, 96.6 70.59, 98.54 84.34 M98.54 24.64 C96.3 42.14, 98.81 59.31, 98.54 84.34 M98.54 84.34 C94.76 97.76, 93.95 112.39, 73.91 108.97 M98.54 84.34 C98.74 101.48, 87.91 110.16, 73.91 108.97 M73.91 108.97 C54.31 109.98, 34.31 110.12, 24.64 108.97 M73.91 108.97 C62.07 108.06, 46.27 109.82, 24.64 108.97 M24.64 108.97 C5.41 112.16, -1.62 102.53, 0 84.34 M24.64 108.97 C3.76 113.41, 0.77 103.86, 0 84.34 M0 84.34 C2.56 60.1, -2.56 41.31, 0 24.64 M0 84.34 C0.45 61, -0.6 39.5, 0 24.64 M0 24.64 C3.35 5.28, 6.57 -1.54, 24.64 0 M0 24.64 C-0.65 7.1, 4.75 -1.35, 24.64 0" stroke="#ffffff" stroke-width="2" fill="none"></path></g><g stroke-linecap="round" transform="translate(395.26102021879683 51.08031070828929) rotate(0 49.27237168001136 54.48698900150339)"><path d="M5.9 6.46 C5.9 6.46, 5.9 6.46, 5.9 6.46 M5.9 6.46 C5.9 6.46, 5.9 6.46, 5.9 6.46 M3.41 21.51 C6.11 18.87, 10.49 11.3, 17.84 4.91 M3.41 21.51 C6.02 19, 10.52 15.27, 17.84 4.91 M3.54 33.56 C10.45 30.99, 18.15 22.73, 29.13 4.12 M3.54 33.56 C9.87 27.13, 15.49 18.62, 29.13 4.12 M3.02 46.35 C11.68 36.34, 26.17 20.78, 39.76 4.09 M3.02 46.35 C14.68 31.4, 27.75 20.5, 39.76 4.09 M3.15 58.39 C15.85 49.81, 26.99 36.35, 50.39 4.05 M3.15 58.39 C15.8 45.26, 25.46 32.07, 50.39 4.05 M3.29 70.43 C20.41 53.17, 35.18 33.48, 61.02 4.02 M3.29 70.43 C19.06 53.29, 31.31 35.31, 61.02 4.02 M0.8 85.49 C32.79 52.05, 58.1 18.85, 71.65 3.98 M0.8 85.49 C22.92 61.76, 41.44 38.53, 71.65 3.98 M3.55 94.51 C32.89 61.55, 63.92 22.37, 82.94 3.19 M3.55 94.51 C27.68 68.52, 51.71 39.99, 82.94 3.19 M6.97 102.78 C33.11 72.38, 58.83 50.33, 91.6 5.42 M6.97 102.78 C35.41 74.14, 61.4 42.58, 91.6 5.42 M13 108.03 C34.89 80.4, 67.6 49.63, 96.98 11.43 M13 108.03 C35.35 82.17, 59.65 54.16, 96.98 11.43 M21.01 111.01 C43.79 86.93, 62.42 57.4, 99.08 21.2 M21.01 111.01 C39.88 89.77, 56.69 68.54, 99.08 21.2 M31.64 110.98 C56.35 85.27, 74.99 64.61, 103.15 28.72 M31.64 110.98 C56.83 83, 81.26 52.83, 103.15 28.72 M42.27 110.95 C58.76 95.45, 68.52 83.72, 103.28 40.76 M42.27 110.95 C67.53 87.79, 87.2 63.1, 103.28 40.76 M52.9 110.91 C67.63 92.7, 77.33 79.5, 103.42 52.8 M52.9 110.91 C73.31 90.58, 89.91 69.76, 103.42 52.8 M63.53 110.88 C76.95 102.89, 85.11 90.69, 102.89 65.59 M63.53 110.88 C77.91 93.18, 89.24 77.91, 102.89 65.59 M74.82 110.09 C82.81 100.18, 95.94 83.55, 103.03 77.64 M74.82 110.09 C79.96 104.17, 86.92 97.06, 103.03 77.64 M89.38 105.52 C94.08 100.89, 97.67 97.82, 103.82 88.92 M89.38 105.52 C93.71 101.82, 95.08 97.83, 103.82 88.92 M9.26 105.19 C9.26 105.19, 9.26 105.19, 9.26 105.19 M9.26 105.19 C9.26 105.19, 9.26 105.19, 9.26 105.19 M21.3 105.06 C16.24 99.4, 13.09 96.46, 8.47 93.91 M21.3 105.06 C15.81 99.21, 10.41 95.18, 8.47 93.91 M34.1 105.58 C25.08 96, 18.74 89.08, 3.91 79.34 M34.1 105.58 C25.67 97.29, 18.09 90.47, 3.91 79.34 M46.14 105.45 C36.4 96.81, 21.53 81.27, 3.87 68.71 M46.14 105.45 C33.72 93.64, 19.68 83.64, 3.87 68.71 M58.18 105.32 C38.89 89.58, 29.04 80.8, 4.59 58.74 M58.18 105.32 C42.3 93.81, 28.61 80.88, 4.59 58.74 M73.99 108.46 C59.66 95.5, 43.02 79.87, 4.56 48.11 M73.99 108.46 C57.78 93.41, 40.69 80.49, 4.56 48.11 M83.77 106.36 C63.45 92.07, 49.28 79.46, 4.52 37.48 M83.77 106.36 C61.22 86.99, 39.04 65.93, 4.52 37.48 M91.28 102.29 C58.9 73.39, 19.55 43.18, 4.49 26.85 M91.28 102.29 C70.1 82.34, 47.65 66.3, 4.49 26.85 M97.28 96.91 C80.6 77.1, 60.5 59.97, 3.7 15.56 M97.28 96.91 C62.41 67.95, 31.21 37.9, 3.7 15.56 M99.51 88.25 C72.85 63.53, 46.6 40.61, 6.68 7.55 M99.51 88.25 C71.17 63.49, 44.22 38.44, 6.68 7.55 M102.5 80.24 C85.1 64.13, 57.58 42.82, 11.18 0.86 M102.5 80.24 C74.2 55.64, 43.79 31.2, 11.18 0.86 M102.46 69.61 C86.86 52.5, 65.16 41.98, 17.94 -3.87 M102.46 69.61 C72.6 42.57, 44.83 20.08, 17.94 -3.87 M102.43 58.98 C83.28 46.46, 60.23 26.92, 29.22 -4.66 M102.43 58.98 C72.19 34.21, 45.57 9.7, 29.22 -4.66 M102.39 48.35 C82.77 29.55, 62.59 13.41, 41.26 -4.79 M102.39 48.35 C81.92 30.68, 63.55 12.07, 41.26 -4.79 M102.36 37.72 C80.12 23.03, 64.82 4.69, 53.3 -4.92 M102.36 37.72 C90.65 26.11, 75.64 13.47, 53.3 -4.92 M99.31 24.47 C91.65 12.43, 80.97 5.06, 66.1 -4.4 M99.31 24.47 C92.08 15.69, 82.66 11.99, 66.1 -4.4 M96.25 11.21 C95.6 3.36, 83.85 0.91, 81.16 -1.91 M96.25 11.21 C90.86 6.28, 84.36 4.55, 81.16 -1.91" stroke="#1971c2" stroke-width="1" fill="none"></path><path d="M24.64 0 C34.22 -3.67, 44.19 -0.05, 73.91 0 M24.64 0 C40.44 -1.89, 60.28 0.92, 73.91 0 M73.91 0 C90.65 1.45, 101.51 10.45, 98.54 24.64 M73.91 0 C94.67 3.96, 97.92 8.61, 98.54 24.64 M98.54 24.64 C95.45 43.17, 98.86 57.27, 98.54 84.34 M98.54 24.64 C98.36 47.87, 101 68.81, 98.54 84.34 M98.54 84.34 C100.28 102.69, 87.09 108.22, 73.91 108.97 M98.54 84.34 C98.64 96.34, 89.5 111.44, 73.91 108.97 M73.91 108.97 C54.8 108.49, 45.34 109.37, 24.64 108.97 M73.91 108.97 C59.67 111.05, 43.89 108.18, 24.64 108.97 M24.64 108.97 C6.37 109.13, -1.99 100.08, 0 84.34 M24.64 108.97 C5.09 108.18, 0.37 98.24, 0 84.34 M0 84.34 C4.1 58.83, -0.24 39.54, 0 24.64 M0 84.34 C0.78 70.4, 0.95 54.58, 0 24.64 M0 24.64 C0.33 6.2, 6.02 -3.01, 24.64 0 M0 24.64 C-3.76 10.66, 3.93 -3.15, 24.64 0" stroke="#ffffff" stroke-width="2" fill="none"></path></g></svg>