<?xml version="1.0" encoding="UTF-8"?>
<svg id="Calque_1" xmlns="http://www.w3.org/2000/svg" version="1.1" viewBox="0 0 2911.15 609.88">
  <!-- Generator: Adobe Illustrator 29.5.0, SVG Export Plug-In . SVG Version: 2.1.0 Build 137)  -->
  <defs>
    <style>
      .st0 {
        fill: #fff;
      }

      .st1 {
        fill: #55c3ec;
      }
    </style>
  </defs>
  <path class="st0" d="M173.02,463.62c-38.53,0-69.1-14.28-91.72-42.84-22.62-28.56-33.93-67.47-33.93-116.73s11.36-87.5,34.07-115.87c22.71-28.37,53.43-42.55,92.15-42.55,21.85,0,41.06,5.27,57.65,15.81,16.58,10.54,28.7,24.54,36.37,41.98h1.73V43.85h83.95v414.88h-82.8v-52.9h-1.44c-7.67,17.44-20.03,31.44-37.09,41.98-17.06,10.54-36.71,15.81-58.94,15.81ZM201.49,212.91c-21.09,0-37.71,8.24-49.88,24.73-12.17,16.49-18.26,38.81-18.26,66.99s6.08,50.7,18.26,66.99c12.17,16.29,28.8,24.44,49.88,24.44s37.52-8.19,49.88-24.58c12.36-16.39,18.54-38.67,18.54-66.85s-6.18-50.27-18.54-66.85c-12.36-16.58-28.99-24.87-49.88-24.87Z"/>
  <path class="st0" d="M647.06,422.65c-27.41,28.46-64.6,42.7-111.55,42.7s-84.15-14.28-111.55-42.84c-27.41-28.56-41.11-67.95-41.11-118.17s13.85-88.79,41.55-117.45c27.7-28.65,64.74-42.98,111.12-42.98s83.67,14.33,111.27,42.98c27.6,28.66,41.4,67.81,41.4,117.45s-13.71,89.85-41.11,118.31ZM535.51,401.23c20.7,0,37.09-8.43,49.17-25.3,12.08-16.86,18.11-40.63,18.11-71.3s-6.04-53.95-18.11-71.02c-12.08-17.06-28.46-25.59-49.17-25.59s-37.14,8.53-49.31,25.59c-12.17,17.06-18.26,40.73-18.26,71.02s6.04,54.44,18.11,71.3c12.08,16.87,28.56,25.3,49.45,25.3Z"/>
  <path class="st0" d="M996.03,265.24h-77.92c-2.49-16.68-9.06-30.09-19.69-40.25-10.64-10.16-24.39-15.24-41.26-15.24-20.89,0-37.33,8.39-49.31,25.16-11.98,16.77-17.97,39.92-17.97,69.43s5.99,53.48,17.97,70.15c11.98,16.68,28.51,25.01,49.6,25.01,16.68,0,30.28-4.74,40.83-14.23,10.54-9.49,17.15-22.66,19.84-39.53h78.2c-2.11,36.42-15.81,65.46-41.11,87.12-25.3,21.66-58.18,32.49-98.62,32.49-46.77,0-83.76-14.33-110.98-42.98-27.22-28.65-40.83-68-40.83-118.02s13.66-88.31,40.97-117.16c27.31-28.85,64.07-43.27,110.26-43.27,41.02,0,74.13,11.31,99.34,33.93,25.2,22.62,38.76,51.75,40.68,87.4Z"/>
  <path class="st0" d="M1306.18,150.52v308.21h-81.08v-55.49h-1.72c-16.1,40.83-46.86,61.24-92.29,61.24-33.74,0-60.67-10.3-80.79-30.91-20.12-20.6-30.19-48.73-30.19-84.38v-198.67h83.95v181.13c0,20.51,4.93,36.13,14.81,46.86,9.87,10.74,24.1,16.1,42.7,16.1s33.35-6.13,44.28-18.4c10.92-12.26,16.39-28.65,16.39-49.17v-176.53h83.95Z"/>
  <path class="st1" d="M1442.39,311.24c-9.2,9.2-20.32,13.8-33.35,13.8s-24.15-4.6-33.35-13.8c-9.2-9.2-13.8-20.31-13.8-33.35s4.6-24.39,13.8-33.49c9.2-9.1,20.31-13.66,33.35-13.66s24.15,4.56,33.35,13.66c9.2,9.11,13.8,20.27,13.8,33.49s-4.6,24.15-13.8,33.35Z"/>
  <path class="st0" d="M1626.33,463.62c-38.53,0-69.1-14.28-91.72-42.84-22.62-28.56-33.93-67.47-33.93-116.73s11.36-87.5,34.07-115.87c22.71-28.37,53.43-42.55,92.15-42.55,21.85,0,41.07,5.27,57.65,15.81,16.58,10.54,28.7,24.54,36.37,41.98h1.73V43.85h83.95v414.88h-82.8v-52.9h-1.44c-7.67,17.44-20.03,31.44-37.09,41.98-17.06,10.54-36.71,15.81-58.94,15.81ZM1654.79,212.91c-21.09,0-37.71,8.24-49.88,24.73-12.17,16.49-18.26,38.81-18.26,66.99s6.08,50.7,18.26,66.99c12.17,16.29,28.8,24.44,49.88,24.44s37.52-8.19,49.88-24.58c12.36-16.39,18.54-38.67,18.54-66.85s-6.18-50.27-18.54-66.85c-12.36-16.58-28.99-24.87-49.88-24.87Z"/>
  <path class="st0" d="M1932.75,150.52v322.59c0,31.24-9.39,54.91-28.18,71.02-18.79,16.1-46.2,24.15-82.23,24.15-10.35,0-18.01-.39-23-1.15v-61.82c2.69.38,6.23.58,10.64.58,13.99,0,23.96-2.73,29.9-8.19,5.94-5.46,8.91-14.42,8.91-26.88V150.52h83.95ZM1922.68,103.94c-8.62,8.44-19.26,12.65-31.91,12.65s-23.29-4.21-31.91-12.65c-8.63-8.43-12.94-18.69-12.94-30.76s4.31-22.57,12.94-30.91c8.62-8.34,19.26-12.51,31.91-12.51s23.29,4.17,31.91,12.51c8.63,8.34,12.94,18.64,12.94,30.91s-4.31,22.33-12.94,30.76Z"/>
  <path class="st0" d="M2177.35,364.43h77.05c-4.6,30.29-19.7,54.68-45.28,73.17-25.59,18.5-57.36,27.74-95.31,27.74-47.35,0-84.48-14.18-111.41-42.55-26.93-28.36-40.4-67.28-40.4-116.73s13.41-88.6,40.25-118.02c26.83-29.42,62.96-44.13,108.39-44.13s80.22,13.99,106.67,41.98c26.45,27.99,39.68,65.46,39.68,112.42v25.59h-212.47v5.18c0,22.04,6.47,39.92,19.41,53.62,12.94,13.71,30.04,20.56,51.32,20.56,15.33,0,28.56-3.5,39.68-10.49,11.11-6.99,18.59-16.43,22.43-28.32ZM2111.51,206.01c-18.21,0-33.4,6.23-45.57,18.69-12.17,12.46-19.03,28.37-20.56,47.73h130.82c-.96-19.74-7.33-35.75-19.12-48.01-11.79-12.26-26.98-18.4-45.57-18.4Z"/>
  <path class="st0" d="M2488.94,364.43h77.05c-4.6,30.29-19.7,54.68-45.28,73.17-25.59,18.5-57.36,27.74-95.31,27.74-47.35,0-84.48-14.18-111.41-42.55-26.93-28.36-40.4-67.28-40.4-116.73s13.41-88.6,40.25-118.02c26.83-29.42,62.96-44.13,108.39-44.13s80.22,13.99,106.67,41.98c26.45,27.99,39.68,65.46,39.68,112.42v25.59h-212.47v5.18c0,22.04,6.47,39.92,19.41,53.62,12.94,13.71,30.04,20.56,51.32,20.56,15.33,0,28.56-3.5,39.68-10.49,11.11-6.99,18.59-16.43,22.43-28.32ZM2423.1,206.01c-18.21,0-33.4,6.23-45.57,18.69-12.17,12.46-19.03,28.37-20.56,47.73h130.82c-.96-19.74-7.33-35.75-19.12-48.01-11.79-12.26-26.98-18.4-45.57-18.4Z"/>
  <path class="st0" d="M2718.88,351.78h-1.72l-57.79,106.95h-88.27l96.6-153.53-96.03-154.68h94.59l55.49,104.08h1.73l54.63-104.08h91.43l-96.32,152.38,95.45,155.83h-91.14l-58.65-106.95Z"/>
</svg>