<?xml version="1.0" encoding="UTF-8"?>
<svg id="Calque_1" xmlns="http://www.w3.org/2000/svg" version="1.1" viewBox="0 0 3360.7 576.1">
  <!-- Generator: Adobe Illustrator 30.8.0, SVG Export Plug-In . SVG Version: 2.1.4 Build 114)  -->
  <defs>
    <style>
      .st0 {
        fill: #55c3ec;
      }

      .st1 {
        fill: #fff;
      }

      .st2 {
        fill: #55c3ed;
      }
    </style>
  </defs>
  <path class="st1" d="M16.1,298.8v-.3c0-100.3,47.7-160.1,125.4-160.1s78.2,22.4,94.9,59.8h1.7V38h84v414.9h-84v-52.6h-1.7c-16.4,36.5-50.3,58.9-94.9,58.9-77.6,0-125.4-60.4-125.4-160.4ZM238.3,298.8v-.3c0-55.5-28.2-90.6-68.7-90.6s-68.1,34.2-68.1,90.6v.3c0,56.1,26.2,90.9,68.1,90.9s68.7-35.1,68.7-90.9Z"/>
  <path class="st1" d="M351.6,298.8v-.6c0-99.2,60.4-159.9,152.4-159.9s153,60.1,153,159.9v.6c0,100.6-59.5,160.4-152.7,160.4s-152.7-60.1-152.7-160.4ZM571.5,298.8v-.6c0-59.5-26.7-94-67.6-94s-67,34.5-67,94v.6c0,60.4,26.2,94.6,67.6,94.6s67-34.5,67-94.6Z"/>
  <path class="st1" d="M673.5,298.5v-.3c0-98.6,58.9-159.9,151.2-159.9s136.9,51.5,140,118.2v2h-77.9l-.6-2.6c-5.2-29.3-25.6-51.8-60.4-51.8s-67,35.4-67,94.3v.3c0,60.4,25.9,94.6,67.3,94.6s54.6-20.7,60.4-51.8l.3-2.6h78.2v1.7c-4,67.3-57.2,118.5-139.4,118.5s-152.1-61.2-152.1-160.7Z"/>
  <path class="st1" d="M988.8,343.6v-199h84v181.4c0,40.3,19,63.5,56.6,63.5s61.5-27.6,61.5-67.9v-177.1h84v308.2h-84v-50.9h-1.7c-15.8,35.4-47.4,57.2-94,57.2-67.9,0-106.4-43.4-106.4-115.6Z"/>
  <path class="st0" d="M1311.3,284.1c0-25.9,20.4-46.6,46.6-46.6s46.6,20.7,46.6,46.6-20.7,46.6-46.6,46.6-46.6-20.4-46.6-46.6Z"/>
  <path class="st1" d="M1429.4,298.8v-.3c0-100.3,47.7-160.1,125.4-160.1s78.2,22.4,94.9,59.8h1.7V38h84v414.9h-84v-52.6h-1.7c-16.4,36.5-50.3,58.9-94.9,58.9-77.6,0-125.4-60.4-125.4-160.4ZM1651.7,298.8v-.3c0-55.5-28.2-90.6-68.7-90.6s-68.1,34.2-68.1,90.6v.3c0,56.1,26.2,90.9,68.1,90.9s68.7-35.1,68.7-90.9Z"/>
  <path class="st1" d="M1728.1,553.5v-63.3c3.2.3,6.9.6,10.6.6,27.9,0,38.8-8.9,38.8-33.9V144.7h84v314.5c0,62.7-38.2,95.2-110.4,95.2s-17.8-.3-23-.9ZM1774.7,61.3c0-23.9,19.5-43.7,44.9-43.7s44.9,19.8,44.9,43.7-19.5,43.7-44.9,43.7-44.9-19.8-44.9-43.7Z"/>
  <path class="st1" d="M1891,299.3v-.3c0-98,57.8-160.7,148.1-160.7s146.9,61.2,146.9,154.4v25.9h-212.2c.9,49.2,27.6,77.9,70.4,77.9s55.5-19,61.5-36.2l.6-1.7h77.1l-.9,3.2c-9.5,45.4-52,97.5-140,97.5s-151.5-61.2-151.5-159.9ZM1974.7,265.7h130.8c-5.2-42.6-30.2-64.7-65-64.7s-60.4,23-65.8,64.7Z"/>
  <path class="st1" d="M2202.6,299.3v-.3c0-98,57.8-160.7,148.1-160.7s146.9,61.2,146.9,154.4v25.9h-212.2c.9,49.2,27.6,77.9,70.4,77.9s55.5-19,61.5-36.2l.6-1.7h77.1l-.9,3.2c-9.5,45.4-52,97.5-140,97.5s-151.5-61.2-151.5-159.9ZM2286.3,265.7h130.8c-5.2-42.6-30.2-64.7-65-64.7s-60.4,23-65.8,64.7Z"/>
  <path class="st1" d="M2596.7,299.3l-96-154.7h94.6l55.5,104.1h1.7l54.6-104.1h91.4l-96.3,152.4,95.5,155.8h-91.1l-58.7-107h-1.7l-57.8,107h-88.3l96.6-153.5Z"/>
  <path class="st2" d="M2891.9,227.3h65.7l47.1,171.3h1.3l46.5-171.3h64.2l-77.4,225.6h-69.2l-78.1-225.6Z"/>
  <path class="st1" d="M3128.4,409.3l107.3-100.4c39.1-36.6,47.4-51.6,47.4-72.6v-.4c-.2-24.8-19.2-42.5-46.1-42.5s-52.2,20.4-53,47.8l-.2,1.9h-58.9v-1.7c0-57.2,47.6-97.4,111.7-97.4s108.4,36.6,108.4,88.4v.4c0,36.8-17.5,60.8-69.9,109l-63.6,58.1v2.5h137.6v50.5h-220.8v-43.6Z"/>
</svg>
