<?xml version="1.0" encoding="UTF-8"?>
<svg id="Calque_1" data-name="Calque 1" xmlns="http://www.w3.org/2000/svg" viewBox="0 0 1024 561.54">
  <defs>
    <style>
      .cls-1 {
        fill: #55c3ec;
      }

      .cls-1, .cls-2 {
        stroke-width: 0px;
      }

      .cls-2 {
        fill: #fff;
      }
    </style>
  </defs>
  <path class="cls-2" d="M167.5,561.54c-34.5,0-64.27-8.56-89.31-25.68-25.05-17.12-44.34-41.65-57.88-73.59C6.77,430.32,0,392.12,0,347.66v-.38c0-44.71,6.77-82.98,20.32-114.8,13.54-31.81,32.83-56.21,57.88-73.21,25.04-16.99,54.68-25.49,88.93-25.49,19.67,0,37.69,3.2,54.05,9.58,16.35,6.39,30.72,15.52,43.12,27.41,12.39,11.88,22.29,26.13,29.71,42.74h2.3V0h111.92v553.11h-111.92v-70.15h-2.3c-7.41,16.36-17.25,30.41-29.51,42.16-12.27,11.76-26.58,20.76-42.93,27.02-16.36,6.26-34.37,9.39-54.05,9.39ZM205.07,468.78c18.14,0,34.11-4.92,47.91-14.76,13.8-9.83,24.47-23.82,32.01-41.97,7.53-18.14,11.31-39.61,11.31-64.39v-.38c0-24.53-3.83-45.86-11.5-64.01-7.67-18.14-18.34-32.13-32.01-41.97-13.67-9.83-29.58-14.76-47.72-14.76s-34.76,4.86-48.3,14.57c-13.55,9.71-24.02,23.57-31.43,41.59-7.41,18.02-11.12,39.55-11.12,64.59v.38c0,24.79,3.64,46.25,10.92,64.39,7.28,18.15,17.76,32.14,31.43,41.97,13.67,9.84,29.83,14.76,48.49,14.76Z"/>
  <path class="cls-1" d="M520.82,390.59c-17.38,0-32.14-6-44.27-18.01-12.14-12.01-18.21-26.83-18.21-44.46s6.07-32.07,18.21-44.08c12.13-12.01,26.89-18.02,44.27-18.02s32.07,6.01,44.08,18.02c12.01,12.01,18.02,26.71,18.02,44.08s-6.01,32.45-18.02,44.46c-12.01,12.01-26.71,18.01-44.08,18.01Z"/>
  <path class="cls-2" d="M783.28,561.54c-34.5,0-64.27-8.56-89.31-25.68-25.05-17.12-44.34-41.65-57.88-73.59-13.55-31.94-20.32-70.14-20.32-114.61v-.38c0-44.71,6.77-82.98,20.32-114.8,13.54-31.81,32.83-56.21,57.88-73.21,25.04-16.99,54.68-25.49,88.93-25.49,19.67,0,37.69,3.2,54.05,9.58,16.35,6.39,30.72,15.52,43.12,27.41,12.39,11.88,22.29,26.13,29.71,42.74h2.3V0h111.92v553.11h-111.92v-70.15h-2.3c-7.41,16.36-17.25,30.41-29.51,42.16-12.27,11.76-26.58,20.76-42.93,27.02-16.36,6.26-34.37,9.39-54.05,9.39ZM820.85,468.78c18.14,0,34.11-4.92,47.91-14.76,13.8-9.83,24.47-23.82,32.01-41.97,7.54-18.14,11.31-39.61,11.31-64.39v-.38c0-24.53-3.83-45.86-11.5-64.01-7.67-18.14-18.34-32.13-32.01-41.97-13.67-9.83-29.58-14.76-47.72-14.76s-34.76,4.86-48.3,14.57c-13.55,9.71-24.02,23.57-31.43,41.59-7.41,18.02-11.12,39.55-11.12,64.59v.38c0,24.79,3.64,46.25,10.92,64.39,7.28,18.15,17.76,32.14,31.43,41.97,13.67,9.84,29.83,14.76,48.49,14.76Z"/>
</svg>